<svg width="324" height="297" viewBox="0 0 324 297" fill="none" xmlns="http://www.w3.org/2000/svg">
<path d="M213.398 43.3477C216.239 44.8961 219.353 42.497 217.805 42.8033C216.533 42.9798 215.237 42.7787 214.078 42.2248C214.639 40.0835 214.958 37.8864 215.031 35.6742C214.487 30.3146 212.394 42.7012 213.398 43.3477ZM221.565 45.7638C219.863 47.4653 217.754 48.7073 219.506 48.5202C221.854 48.282 223.436 45.951 222.586 44.7259C221.905 45.1683 222.348 44.9641 221.565 45.7638ZM219.591 34.0918C219.081 34.7044 219.591 36.0825 219.71 36.6951C219.747 36.8625 219.845 37.01 219.986 37.108C220.127 37.206 220.299 37.2473 220.469 37.2236C220.639 37.2 220.793 37.1131 220.902 36.9804C221.01 36.8478 221.065 36.679 221.054 36.5079C220.867 34.9766 220.493 33.0369 219.591 34.0918ZM210.097 37.2225C209.536 33.3092 208.396 34.9936 208.498 35.6402C208.634 38.2604 210.284 38.5496 210.097 37.2225ZM218.57 31.3865C227.894 32.2883 218.264 28.2729 217.754 31.2504L218.57 31.3865ZM159.768 101.384C157.828 102.065 158.22 104.124 160.619 103.222C165.524 101.252 170.677 99.964 175.932 99.3936C175.932 113.209 175.234 118.569 176.034 118.943C176.902 118.603 177.616 100.074 177.565 98.5258C177.412 95.6674 162.814 100.295 159.768 101.384ZM143.298 120.509C140.797 125.868 136.373 133.184 141.801 135.039C144.846 136.06 157.743 135.039 155.276 128.114C153.098 121.921 146.191 114.468 143.298 120.509ZM228.915 156.426C226.618 155.763 206.473 151.968 205.486 152.938C203.342 155.099 215.235 153.874 228.541 157.736C228.715 157.786 228.901 157.765 229.059 157.677C229.217 157.589 229.333 157.442 229.383 157.268C229.433 157.095 229.411 156.908 229.324 156.75C229.236 156.593 229.089 156.476 228.915 156.426ZM230.804 146.609C224.972 145.215 219.037 144.293 213.058 143.853C212.877 143.875 212.713 143.968 212.601 144.112C212.49 144.256 212.44 144.438 212.462 144.618C212.485 144.799 212.578 144.963 212.722 145.075C212.865 145.186 213.047 145.236 213.228 145.214C219.022 145.676 224.773 146.58 230.429 147.919C230.603 147.969 230.79 147.947 230.947 147.859C231.105 147.772 231.222 147.625 231.272 147.451C231.321 147.277 231.3 147.091 231.212 146.933C231.124 146.775 230.977 146.659 230.804 146.609ZM98.2436 49.1157C96.0827 49.3539 95.4192 48.7413 95.232 49.2178C94.7726 52.3654 103.008 48.9796 98.2436 49.1157ZM91.0975 36.3037C91.0975 32.0671 89.7363 33.3262 89.7363 36.3037C89.7363 36.4842 89.808 36.6573 89.9357 36.785C90.0633 36.9126 90.2364 36.9843 90.4169 36.9843C90.5974 36.9843 90.7705 36.9126 90.8982 36.785C91.0258 36.6573 91.0975 36.4842 91.0975 36.3037ZM103.161 34.7044C103.175 34.7926 103.207 34.8772 103.254 34.9531C103.301 35.0291 103.363 35.0951 103.436 35.1472C103.509 35.1993 103.591 35.2366 103.678 35.257C103.765 35.2774 103.855 35.2804 103.943 35.2658C104.032 35.2513 104.116 35.2196 104.192 35.1724C104.268 35.1252 104.334 35.0635 104.386 34.9908C104.438 34.9181 104.476 34.8359 104.496 34.7488C104.516 34.6617 104.519 34.5714 104.505 34.4832C103.875 30.3827 102.667 31.6077 103.161 34.7044Z" fill="black"/>
<path d="M293.026 196.683C305.736 186.95 305.311 169.051 304.936 168.473C309.819 163.368 309.956 148.566 308.543 145.52C306.638 141.385 315.145 104.94 301.261 94.7827C302.486 94.2382 304.817 92.843 304.987 91.0225C305.294 87.4324 301.908 86.8539 299.321 85.3226C288.517 78.9762 287.837 64.9052 266.671 59.6987C265.888 58.2525 265.718 57.9973 265.088 56.9424C280.401 57.9973 278.428 49.6091 275.79 47.5333C274.13 46.5733 272.351 45.8354 270.499 45.3385C276.947 42.6331 276.76 34.5172 268.457 35.2659C267.47 35.3509 270.669 32.7307 268.066 29.3788C267.48 28.4747 266.654 27.752 265.68 27.2921C264.706 26.8322 263.623 26.6533 262.553 26.7756C262.553 21.0757 259.814 18.7618 256.564 18.7618C261.345 11.7518 254.965 3.94211 246.015 8.28082C248.142 3.3466 242.476 -5.53498 229.494 4.75881C228.677 1.18576 217.38 -2.54042 216.154 2.68304C215.525 5.35432 211.05 -2.11506 202.883 4.01017C200.654 5.71162 199.48 8.51902 202.1 9.40377C193.985 9.99928 190.871 17.5537 197.166 19.1871C198.527 19.5444 194.58 20.4632 195.21 25.5335C195.686 29.4129 199.123 31.6418 201.93 29.5149C202.866 28.8173 202.594 28.6642 202.509 29.3958C202.486 29.6829 202.521 29.9718 202.612 30.2451C202.703 30.5184 202.848 30.7705 203.038 30.9865C203.229 31.2025 203.461 31.3778 203.721 31.5021C203.981 31.6264 204.263 31.697 204.551 31.7098C204.808 33.2002 205.201 34.6638 205.725 36.0825C199.565 36.0825 195.907 41.3911 197.541 43.9773C199.429 46.9378 202.747 44.9641 198.595 47.108C190.548 51.2765 192.572 58.1844 197.507 58.1334C202.441 58.0823 199.208 56.2618 199.974 61.196C200.45 64.4458 205.725 67.6275 210.182 63.544C211.441 65.0583 211.697 66.0281 213.228 66.8108C200.45 75.3181 204.908 79.4526 188.336 96.1609C186.413 98.1175 185.852 97.3859 184.933 98.2877C184.014 99.1894 185.273 104.6 190.037 104.209C184.814 119.522 190.037 114.809 182.483 115.608C182.313 115.608 184.473 93.2684 184.184 90.1888C184.014 88.6745 183.708 88.7085 166.625 92.6048C167.187 81.2051 167.068 57.64 166.081 57.4018C165.911 57.4018 153.609 57.4018 153.609 57.0785C153.337 55.9895 154.136 51.3106 153.915 50.4258C153.711 49.8473 153.031 49.8643 152.486 49.507C145.884 45.1173 154.188 47.5163 154.817 46.8698C155.736 45.8489 154.817 35.5551 156.519 35.5551C158.22 36.4569 156.859 45.0662 157.505 45.8829C159.598 47.7205 158.169 38.0052 160.432 38.2774C161.674 38.5156 160.262 45.5256 160.738 46.6826C162.286 48.8945 161.742 43.2797 163.58 41.4591C165.723 40.4213 163.477 56.7722 163.239 57.1125C164.107 57.7931 167.918 37.2736 162.916 40.5063C161.453 41.4591 162.916 40.098 161.844 37.835C161.249 36.661 159.547 36.4739 158.594 38.1413C157.693 32.1862 154.715 33.6325 154.256 37.818C153.813 45.7128 154 44.5218 153.864 45.934C149.355 44.2325 145.987 48.2309 152.605 50.5279C153.643 50.8852 152.605 54.6624 152.928 56.8233C152.928 57.1806 153.116 57.0615 152.231 56.9764C148.59 56.6021 137.7 87.7557 134.349 92.2305C138.994 99.0363 137.445 100.04 137.02 98.9172C132.409 89.3891 113.2 69.431 91.8463 62.2169C90.1449 61.6724 90.5532 62.2169 90.1449 60.005C88.9028 58.1844 107.057 67.5254 105.458 40.132C113.132 40.3872 112.009 28.375 105.594 28.0347C109.831 22.8453 108.504 18.5746 104.233 14.0317C102.344 0.420103 87.7118 0.113843 74.6957 5.08208C71.6161 6.25609 71.0716 8.09366 69.4892 10.816C67.9579 11.0542 67.2603 9.94824 64.2998 11.6497C55.2991 16.8391 57.494 31.5056 64.9464 37.4267C63.6022 41.323 64.7762 45.6447 69.8465 45.2874C69.8465 61.5873 71.3268 57.8101 63.5682 59.1543C8.27098 68.7334 -7.17821 135.771 16.7953 158.026C18.1224 159.268 12.3034 167.588 22.6823 173.492C23.0148 181.05 24.818 188.471 27.9908 195.339C30.3558 200.443 30.4409 199.337 30.2027 200.086C20.0961 232.243 0.835633 289.65 0.529372 291.011C-0.576572 295.928 4.25555 297.358 6.48446 293.58C7.4713 291.879 34.7116 218.206 38.2165 208.61C39.803 209.871 41.4558 211.047 43.1678 212.132C42.4361 225.216 38.2506 281.891 38.9992 285.158C39.139 285.953 39.5402 286.679 40.1391 287.22C40.738 287.761 41.5004 288.086 42.3053 288.145C43.1103 288.203 43.9118 287.992 44.5827 287.543C45.2537 287.095 45.7557 286.435 46.0092 285.669C46.2644 284.818 51.7091 247.369 55.0099 218.07C74.5766 226.05 96.7465 227.02 100.745 227.071C104.148 294.976 103.637 290.892 110.818 288.816C112.077 288.442 112.111 288.816 112.315 280.768C115.718 283.695 130.69 295.452 135.233 296.337C136.595 296.592 137.854 293.87 136.067 290.722C125.688 272.465 124.548 280.888 134.093 268.824C135.165 271.427 139.317 282.011 140.899 282.266C144.898 282.708 143.366 291.403 145.816 291.488C150.172 291.658 172.75 290.092 174.52 287.591C175.269 286.553 173.652 284.324 171.576 283.389C149.049 275.171 158.22 290.484 156.502 242.248C156.502 241.023 166.217 229.776 170.845 215.484C173.414 207.538 170.845 204.101 172.121 200.171C174.928 190.898 169.96 192.837 180.186 192.31C182.364 196.53 183.98 194.011 185.171 199.116C186.378 204.58 188.901 209.668 192.521 213.935C193.185 206.145 194.902 198.481 197.626 191.153C199.327 191 197.404 189.349 193.525 214.973C193.678 215.143 193.032 261.661 195.056 262.614C196.648 263.124 198.303 263.41 199.974 263.465C199.565 263.788 199.838 275.001 199.65 275.001C199.65 275.426 185.869 279.901 184.337 286.826C184.133 288.34 184.099 288.969 185.681 288.969C190.939 288.68 208.617 284.273 209.774 284.273C209.774 286.162 209.485 286.315 211.271 286.298C212.786 286.298 214.674 286.298 215.168 285.601C215.627 284.461 214.572 266.204 214.844 264.077C214.844 263.907 214.555 264.077 218.707 264.077C218.877 288.357 219.064 286.06 220.765 286.553C228.031 287.795 226.703 289.395 229.273 246.824C235.84 252.78 232.914 252.848 241.183 247.539C242.306 248.951 247.989 255.672 247.989 255.723C245.266 261.032 240.536 271.24 244.688 275.681C245.862 276.685 247.24 274.847 258.929 259.415C263.523 253.324 261.124 259.109 263.863 256.761C268.814 252.524 267.266 255.06 253.654 239.236C261.634 233.468 260.767 235.101 254.454 229.146C220.051 196.598 232.471 219.125 276.046 204.714C277.1 215.671 285.097 283.61 286.714 284.784C287.82 285.584 291.478 285.124 292.618 284.614C294.574 283.729 292.141 259.364 288.568 215.229C302.946 254.498 317.306 292.066 317.306 292.236C319.211 296.269 323.958 295.469 323.703 291.471C323.652 291.539 297.909 212.438 293.026 196.683ZM262.91 255.859C262.111 255.025 261.924 254.396 261.209 254.634C259.865 255.315 247.121 273.35 245.283 274.507C241.506 268.926 249.316 256.268 248.924 255.485C248.686 255.162 253.723 253.783 259.405 247.267C265.905 254.787 265.803 253.477 262.893 255.859H262.91ZM258.708 246.365C255.906 249.893 252.437 252.836 248.499 255.025C243.395 249.377 242.697 248.543 241.693 247.318C255.696 238.453 251.306 237.688 258.691 246.365H258.708ZM304.443 169.51C304.154 182.595 299.236 190.949 292.737 195.764C286.629 176.078 288.262 182.05 289.13 175.602C306.144 171.025 304.46 167.622 304.426 169.51H304.443ZM307.046 143.24C303.49 139.276 298.011 138.136 292.924 136.962C297.161 134.801 302.146 132.113 303.405 128.744C305.106 123.163 302.503 109.738 301.448 106.472C297.076 92.775 294.217 97.1307 299.747 95.3782C310.942 102.933 308.203 126.123 307.029 143.24H307.046ZM240.502 143.512C230.6 144.652 235.959 147.017 233.696 148.344C232.097 149.263 231.553 151.186 234.139 151.747C236.044 152.173 235.84 151.747 234.955 152.309C233.05 153.449 232.556 156.205 239.686 155.49C238.869 157.056 234.768 164.934 233.645 166.329C233.237 166.839 205.35 165.104 186.941 162.926C187.094 162.756 204.993 140.211 209.332 136.349C209.74 136.162 239.958 139.752 240.128 139.752C239.791 141.008 239.918 142.342 240.485 143.512H240.502ZM235.279 154.214C234.003 152.513 242.578 152.904 240.638 151.05C240.468 150.948 224.1 150.148 241.319 148.242C241.476 148.207 241.614 148.115 241.709 147.985C241.803 147.855 241.848 147.695 241.833 147.535C241.818 147.375 241.746 147.226 241.63 147.115C241.513 147.004 241.361 146.939 241.2 146.932C238.137 147.017 236.232 147.579 235.619 146.932C234.615 144.976 240.383 144.993 241.353 144.635C243.054 144.176 239.975 141.232 241.608 139.531C242.459 138.765 244.926 143.648 245.283 143.972C250.235 147.255 269.818 117.106 281.779 115.983C284.74 115.694 276.675 115.336 273.374 118.518C266.568 99.2575 266.739 99.9381 266.79 99.1894C267.011 96.2289 270.346 94.9698 273.221 95.4462C276.097 95.9226 276.709 97.7942 279.806 97.8112C281.39 97.8195 282.959 97.5088 284.421 96.8979C285.882 96.287 287.206 95.3883 288.313 94.2552C290.503 95.1677 292.834 95.6916 295.204 95.8035C299.049 104.039 300.393 104.838 301.857 114.213C302.622 119.096 304.188 127.365 300.751 130.547C293.52 137.251 245.062 157.566 235.262 154.214H235.279ZM244.348 140.211C247.75 140.654 247.24 140.211 246.576 141.692C245.675 143.58 246.304 142.985 244.331 140.211H244.348ZM207.953 50.8001C199.055 48.0438 208.362 37.5968 207.953 40.9147C207.953 41.0848 207.46 41.238 207.324 41.323C205.622 42.2929 203.479 49.8303 211.033 50.1366C215.117 50.3237 210.591 51.6338 207.953 50.8001ZM208.362 40.5914C205.81 33.7856 205.708 34.8575 205.146 31.7438C208.549 31.3525 212.224 31.6247 210.012 30.3487C208.804 29.6511 207.613 30.4678 208.158 30.0084C213.262 25.1592 211.441 20.2931 212.462 22.9303C212.953 24.0964 213.731 25.1194 214.724 25.9042C215.716 26.6889 216.891 27.2099 218.139 27.4188C219.387 27.6276 220.668 27.5175 221.861 27.0986C223.055 26.6798 224.124 25.9658 224.968 25.0231C226.397 28.8173 227.997 30.791 232.505 31.2334C235.517 31.5227 235.041 31.1483 236.181 30.0084C240.553 25.6356 244.688 34.262 239.379 36.8142C237.44 37.4948 240.213 46.2402 245.402 44.0113C249.282 42.3099 248.227 34.262 243.905 33.9387C242.306 33.8196 243.122 33.4113 243.378 33.3772C248.992 32.5776 251.375 42.2758 246.406 45.0322C241.846 47.5674 236.385 42.2758 238.426 36.9843C234.768 37.4777 234.785 42.2588 236.725 45.4065C236.963 45.7808 229.086 46.0871 229.817 51.838C230.311 54.3221 233.22 54.8836 235.721 54.8326C230.396 67.2532 237.184 68.9886 243.071 63.0846C243.557 64.6528 244.255 66.147 245.147 67.5254C247.921 71.0474 218.145 79.8439 219.013 66.1302C220.691 65.1855 222.285 64.0982 223.777 62.8804C224 61.183 223.959 59.4613 223.658 57.7761C222.892 53.3353 215.491 59.6136 208.294 40.5574L208.362 40.5914ZM229.443 99.0703C226.04 96.4501 220.936 76.8153 219.949 72.1023C232.931 79.7588 244.637 69.7033 243.973 71.1495C241.982 75.3351 231.451 96.0928 229.375 99.0363L229.443 99.0703ZM230.753 110.657C224.543 111.355 222.943 103.001 227.707 100.959C236.997 97.522 239.72 109.619 230.753 110.657ZM215.848 67.6615C215.848 67.6615 217.379 66.8788 218.417 66.3004C218.247 70.1627 220.068 70.8602 215.848 67.6275V67.6615ZM186.175 101.486C183.861 97.9814 186.889 100.074 194.461 91.5839C200.365 84.9823 206.541 70.8092 214.045 67.7636C214.47 68.1379 216.75 69.9244 218.928 71.4387C220.204 79.6908 224.543 95.2591 227.741 99.2745C227.894 99.4617 220.17 101.946 225.444 110.028C234.7 117.446 242.289 101.52 231.91 99.3936C229.477 98.9172 230.821 102.218 242.493 76.2198C245.896 68.5633 244.109 71.1155 246.968 68.9716C249.435 70.3158 256.292 70.7752 256.292 63.4249C262.077 68.206 269.342 66.3854 267.436 61.2811C284.791 65.9941 286.884 76.3219 294.83 83.6041C299.934 88.3342 304.052 87.8237 303.643 90.8523C303.643 92.3326 298.709 96.1438 291.052 94C288.432 93.2684 288.143 92.7239 287.649 93.3364C286.51 94.5696 285.093 95.5125 283.515 96.0867C281.938 96.6609 280.246 96.8496 278.581 96.6373C277.134 96.2629 276.318 95.3952 274.276 94.6636C271.503 93.8639 267.47 94.6636 266.228 97.556C262.213 81.3922 263.319 79.2484 262.4 78.3296C258.827 81.9707 270.72 114.434 272.336 119.369C269.444 121.07 261.958 128.505 259.593 130.87C258.997 131.466 246.627 128.642 205.537 128.437C209.076 121.376 214.98 116.885 215.287 116.034C215.389 115.472 208.362 108.411 209.655 100.619C211.612 88.7085 216.716 82.1409 214.555 84.0975C210.472 90.461 207.29 97.5901 208.872 105.11C208.143 105.634 207.3 105.977 206.413 106.11C205.525 106.244 204.618 106.163 203.768 105.876C200.365 104.6 199.548 99.4276 190.497 103.154C189.693 103.375 188.839 103.332 188.061 103.032C187.283 102.732 186.622 102.19 186.175 101.486ZM191.092 104.107C194.189 103.579 196.571 102.405 198.629 103.681C200.331 104.736 203.564 109.602 209.008 106.54C210.506 108.735 209.978 112.052 213.755 115.864C197.847 131.585 207.511 136.077 180.509 135.686C180.917 131.517 181.853 121.547 182.313 116.187C190.65 115.2 185.256 120.764 191.092 104.107ZM182.755 90.6481C182.755 98.4408 179.199 136.298 178.331 144.04C170.283 146.728 117.436 161.582 99.1115 164.457C99.4858 153.449 102.719 120.985 105.679 110.368C114.799 105.876 173.924 91.9412 182.755 90.6481ZM61.9518 147.324C67.0562 143.921 92.68 138.323 100.524 136.519C100.524 136.928 100.234 139.003 100.183 139.412C59.1274 147.8 67.3454 149.655 62.0029 147.324H61.9518ZM107.891 70.9113C98.1927 93.4555 97.6823 86.8029 106.377 89.5082C107.279 89.7974 93.8881 118.093 93.837 119.028C91.7783 159.693 92.5779 110.317 96.5934 69.6862C97.1549 64.0885 94.9089 63.0165 107.908 70.9113H107.891ZM96.8656 129.816C96.8656 129.996 96.7939 130.169 96.6663 130.297C96.5386 130.424 96.3655 130.496 96.185 130.496C96.0045 130.496 95.8314 130.424 95.7038 130.297C95.5762 130.169 95.5044 129.996 95.5044 129.816C95.4874 125.97 96.8656 123.963 96.8656 129.816ZM90.5532 62.404C98.3289 65.0753 96.4913 62.7613 95.2833 75.216C95.2833 74.8587 93.7009 73.9229 90.0598 70.2137C91.6932 68.7334 90.9786 64.5649 90.5532 62.404ZM90.7574 79.6908C91.9144 79.4015 92.0845 76.2879 92.1866 74.1441C96.0319 77.7171 95.2152 75.0628 94.3645 85.0844C92.0845 79.1123 92.1015 79.4696 91.7953 79.3335C91.3699 80.1842 89.107 81.2391 87.933 80.3033C87.8139 81.5113 88.4604 95.4462 88.5625 99.3766C60.7438 50.5619 79.0174 87.0411 84.377 77.1726C89.3282 80.2693 87.5757 80.4905 90.7914 79.6908H90.7574ZM105.645 28.9875C110.749 28.8854 111.532 38.5837 105.866 38.8049C100.2 39.0261 100.064 29.0896 105.645 28.9875ZM100.762 22.3688C101.17 23.713 101.919 26.4523 102.463 28.9535C99.7581 31.2164 101.443 33.037 99.4348 33.3432C99.0605 32.3904 99.0605 31.8459 98.55 32.3904C98.55 33.8026 99.0094 33.4113 97.1038 33.7686C93.8881 34.3471 96.2871 34.0068 94.3305 31.7609C93.6376 30.89 92.7188 30.2262 91.6744 29.842C90.63 29.4577 89.5 29.3678 88.408 29.582C87.3159 29.7962 86.3037 30.3063 85.4818 31.0566C84.6599 31.8069 84.06 32.7686 83.7474 33.8366C82.2672 33.8366 77.6902 33.6665 76.9416 33.5474C75.9207 30.5358 74.0832 19.7997 74.0662 19.6635C86.81 27.5583 97.5122 25.1252 100.762 22.3688ZM94.6367 37.6819C93.5818 40.8466 86.827 41.9866 85.1256 36.9163C82.4203 28.9875 97.8865 27.7795 94.6027 37.6819H94.6367ZM67.0562 43.9943C64.8443 42.8543 64.2828 35.9975 68.1621 35.487C70.6803 35.1808 72.0244 37.9712 73.0283 38.4306C75.6145 39.5875 77.2138 37.9712 77.2138 35.1127H83.5432C83.1859 43.9603 97.1549 43.62 95.6746 35.2659C99.9282 35.0787 98.0056 32.3564 100.081 41.5612C98.7202 42.2248 96.4062 42.5311 96.3041 42.9054C96.7805 43.654 101.408 43.2287 101.408 41.4251C100.881 38.3455 100.49 36.4909 100.217 35.47C100.523 36.422 101.023 37.3004 101.685 38.05C102.346 38.7997 103.156 39.4042 104.063 39.8257C104.165 41.1359 104.182 42.1227 104.216 43.8582C104.743 64.6499 88.9028 56.7552 88.6986 59.1713C88.6986 60.022 90.7234 67.6785 89.2941 69.0227C85.0745 68.0018 71.4629 59.3414 71.0376 58.2185C71.0205 38.6688 70.9865 46.002 67.0562 43.9943ZM86.4868 69.5161C85.2379 72.5977 83.7533 75.5785 82.046 78.4317C70.7313 70.8602 69.4382 66.4195 65.5589 59.6136C74.6957 58.0483 65.5419 59.7668 86.4868 69.5331V69.5161ZM64.3679 60.1241C96.151 114.571 92.9012 105.059 92.2887 113.89C88.1031 111.304 65.5589 97.1137 62.7855 94.8677C63.4491 92.8941 70.1188 86.8029 70.4931 85.6799C70.8674 84.5569 50.2628 64.0714 50.3309 64.0544C54.87 62.3808 59.5354 61.0722 64.2828 60.1411L64.3679 60.1241ZM39.8159 136.689C42.5893 137.353 41.9427 137.812 42.5382 136.843C49.9055 124.932 53.2574 102.609 53.5807 102.337C54.5675 103.545 52.0494 123.707 43.6101 136.366C42.0108 138.765 41.9938 136.366 46.6387 141.828C59.9271 138.578 82.9137 136.179 100.864 134.29C100.864 134.733 100.728 135.447 100.677 135.992C89.0219 138.323 52.8831 144.159 60.3695 151.441C62.7175 153.432 97.291 166.754 98.9754 165.053C116.517 162.807 174.86 147 179.148 145.214C179.607 144.907 179.556 145.622 180.407 136.894C190.48 137.234 194.019 138.595 200.331 133.984C202.163 132.66 203.811 131.098 205.231 129.339C221.99 129.543 241.863 130.207 258.572 132.096C241.795 149.263 251.426 140.024 247.002 139.429C239.566 138.408 209.042 135.601 209.23 135.89C208.753 135.226 186.702 160.612 185.409 162.96C184.116 165.308 233.356 168.575 234.411 167.469C235.466 166.363 240.315 157.056 241.217 155.405C249.86 154.282 261.634 152.649 291.325 137.863C317.017 144.295 308.901 156.256 296.429 160.935C292.073 162.637 250.269 174.717 193.933 178.92C90.9275 186.593 29.0797 165.308 32.4146 165.308C33.2483 165.308 33.6226 164.219 35.0689 161.531C42.3511 167.945 60.8288 173.594 56.2519 167.673C57.1996 167.813 58.1627 167.813 59.1104 167.673C60.9139 167.265 61.033 165.546 59.5868 164.27C58.8552 163.64 58.7531 163.845 59.3996 163.794C62.224 163.589 62.3942 161.395 60.1993 160.152C57.2388 158.451 52.0323 158.638 50.5351 155.916C49.4461 153.942 53.3254 151.951 51.9813 149.791C51.0455 148.293 49.5482 148.906 48.085 149.893C45.1244 151.951 46.1964 152.122 44.0695 150.165C47.9489 147.46 49.1739 148.787 48.5444 146.864C47.8164 144.739 46.5949 142.817 44.98 141.255C43.3651 139.693 41.4029 138.537 39.2544 137.88C25.1154 134.988 20.1131 144.686 19.6707 144.686C18.7179 142.117 27.3272 133.763 39.7308 136.655L39.8159 136.689ZM50.2288 157.379C52.2535 159.914 60.5906 160.391 60.4375 162.228C59.7229 164.168 50.3139 159.438 50.7392 161.939C51.0115 162.688 51.5559 162.296 54.8908 163.453C61.4414 165.75 61.0841 168.132 51.2156 164.797C49.3951 164.185 49.1399 164.797 49.4291 165.461C49.7184 166.125 55.8266 167.435 55.4863 168.864C55.129 169.97 40.8368 165.801 35.4091 160.986C37.3935 156.967 40.2058 153.412 43.6612 150.556C45.0394 151.9 45.6179 152.513 45.9582 152.394C46.2984 152.275 51.1986 147.987 51.3858 150.692C51.4198 152.53 47.4895 154.044 50.1437 157.345L50.2288 157.379ZM23.4139 173.883C38.4037 182.169 38.9312 172.539 30.7131 198.741C26.3407 191.135 23.8116 182.61 23.3288 173.849L23.4139 173.883ZM5.19135 293.104C4.57883 294.295 1.78845 295.197 2.50306 291.403C5.61671 275.307 27.055 218.24 36.9745 179.345C40.7177 180.519 43.2358 181.216 46.996 182.186C44.1886 189.996 5.88895 292.032 5.19135 293.104ZM45.3116 281.959C44.5459 287.064 40.6156 287.353 40.2072 281.857C39.7308 274.558 42.1469 255.451 43.7803 212.557C47.1253 214.58 50.6174 216.349 54.2272 217.849C53.5636 223.038 47.5575 267.038 45.3116 281.959ZM110.613 287.472C104.76 289.718 105.951 291.896 101.681 227.071C102.48 227.071 107.347 227.156 111.668 226.781C111.175 257.901 111.277 283.185 110.613 287.472ZM38.5568 207.725C46.0262 187.308 38.0294 199.405 59.1274 209.631C77.8434 218.699 94.7218 219.839 115.565 219.55C116.551 222.341 117.266 224.433 117.419 224.655C97.4441 228.33 57.545 222.953 38.5568 207.725ZM112.4 277.229C113.404 218.376 109.882 227.36 117.879 225.982C121.06 234.778 122.626 238.947 123.732 241.924C112.74 271.683 113.114 270.202 114.203 270.849C115.752 271.87 115.394 270.441 112.4 277.229ZM133.464 267.531C131.332 270.332 129.061 273.024 126.658 275.596C122.704 273.999 118.876 272.105 115.207 269.93C115.054 269.828 122.489 247.692 124.055 242.707C132.511 265.489 133.651 267.293 133.464 267.531ZM154.596 277.91C153.745 278.165 144.591 280.36 141.171 280.922C98.8053 193.62 137.377 225.369 85.9253 217.015C74.0151 215.058 57.6982 210.073 48.4082 201.277C41.2621 194.471 42.5893 197.023 47.6596 182.39C50.3819 182.935 87.6778 193.093 147.841 193.093C156.536 215.399 155.838 270.594 154.596 277.91ZM156.297 239.661C155.464 227.156 154.715 208.236 149.168 193.076C168.65 193.178 166.336 192.395 167.136 193.399C177.497 206.381 165.706 226.356 156.314 239.661H156.297ZM170.845 199.388C168.446 191.204 164.311 193.178 171.934 192.769C171.743 194.999 171.385 197.212 170.862 199.388H170.845ZM184.269 194.828C180.016 191.748 182.279 192.327 184.099 192.225C184.235 194.947 184.473 194.964 184.286 194.828H184.269ZM213.806 285.005C210.284 285.005 210.965 285.822 210.88 283.831C210.761 281.364 191.534 287.795 185.358 287.795C185.937 282.691 195.567 278.131 200.263 276.072C200.263 276.072 201.335 276.072 204.959 276.464C216.699 277.706 213.823 272.499 213.823 285.005H213.806ZM200.195 263.652C208.192 264.332 214.13 264.009 214.113 264.179C213.823 266.306 214.113 275.154 213.772 275.222C209.389 276.051 204.886 276.011 200.518 275.103C200.263 263.022 200.399 264.366 200.195 263.652ZM21.8656 171.399C19.1433 169.698 16.9144 168.183 18.2075 159.659C40.7007 178.715 173.04 196.632 292.941 163.249C306.553 159.455 308.56 152.479 308.543 153.04C308.101 168.541 303.575 170.923 289.929 174.581C176.17 205.02 49.0038 189.128 21.8656 171.399ZM220.442 285.192C220 282.351 219.864 267.463 219.83 264.128C223.403 264.026 222.331 266.987 224.219 242.69C224.338 242.792 225.921 214.344 226.959 206.619C227.095 205.547 227.537 205.292 227.503 206.619C227.503 207.47 227.503 208.593 227.418 210.022C226.006 249.547 224.015 242.35 227.929 245.753C224.968 287.302 226.329 287.438 220.442 285.192ZM233.101 209.222C232.693 209.222 233.39 209.75 227.758 204.611C231.416 204.118 263.489 203.931 279.772 191.255C281.15 195.117 280.827 194.216 283.294 201.004C268.78 207.113 248.397 209.937 233.101 209.222ZM287.428 283.746C287.173 283.44 278.223 219.244 276.556 204.628C285.642 201.736 282.647 199.252 287.343 212.115C291.784 280.275 294.728 287.404 287.428 283.746ZM318.854 292.389C318.429 291.641 278.836 186.899 276.148 178.902C279.551 178.086 283.889 176.997 286.475 176.316C295.97 215.45 319.467 277.161 321.61 291.437C322.138 294.908 320.113 294.72 318.854 292.389Z" fill="black"/>
</svg>
