<svg width="334" height="278" viewBox="0 0 334 278" fill="none" xmlns="http://www.w3.org/2000/svg">
<path d="M223.157 160.283H223.053H223.157ZM77.1476 211.29C77.8121 211.395 81.4492 211.57 81.4492 210.94C81.4492 210.573 80.7847 210.591 80.7847 210.591C80.8721 207.793 84.4218 207.093 86.9573 208.562C87.6562 208.964 88.3023 209.452 88.8808 210.014C85.2962 210.206 80.5399 212.654 80.8547 216.204C81.0354 217.129 81.4235 218.002 81.9899 218.756C82.5562 219.51 83.286 220.126 84.1246 220.558C85.1727 221.342 86.3666 221.91 87.6365 222.228C88.9065 222.547 90.227 222.609 91.5213 222.411C93.8263 221.824 95.8544 220.451 97.2567 218.529C100.426 218.63 103.527 217.595 106 215.609C106.104 215.526 106.191 215.423 106.254 215.306C106.317 215.189 106.355 215.06 106.367 214.927C106.367 214.315 106.367 214.35 102.87 210.468C102.771 210.358 102.647 210.273 102.508 210.22C102.369 210.168 102.22 210.149 102.073 210.166C101.925 210.183 101.784 210.236 101.661 210.319C101.538 210.402 101.437 210.513 101.366 210.643C101.306 210.719 101.253 210.801 101.209 210.888C100.931 211.41 100.482 211.819 99.9373 212.049C99.3927 212.278 98.7857 212.313 98.2185 212.147C96.4698 211.64 94.2141 207.006 90.1049 204.243C86.5202 201.83 81.7115 201.113 78.3192 203.981C76.8591 205.234 75.8211 206.907 75.3465 208.772C75.1577 209.347 75.1952 209.972 75.4514 210.521C75.9107 210.966 76.5102 211.238 77.1476 211.29ZM83.7224 217.778C83.243 217.435 82.9102 216.925 82.7903 216.348C82.6704 215.771 82.7722 215.17 83.0754 214.665C83.8509 213.593 84.9285 212.777 86.1705 212.322C85.1686 214.02 84.348 215.82 83.7224 217.69V217.778ZM100.194 215.015C100.614 213.756 100.194 214.193 100.894 213.878C101.424 213.614 101.903 213.259 102.31 212.829L103.901 214.717C102.584 215.553 101.127 216.145 99.5999 216.466C99.7747 216.011 100.055 215.312 100.194 214.927V215.015ZM93.8644 210.556C95.5256 212.637 96.907 214.49 99.4425 214.28C99.0807 215.033 98.7881 215.818 98.5682 216.623C97.2917 216.711 97.1168 216.414 96.6097 216.623C95.613 217.008 93.9693 220.593 89.9825 220.575C90.2306 220.021 90.39 219.431 90.4546 218.827C91.5827 218.599 92.6387 218.101 93.5322 217.375C93.9151 217.044 94.1638 216.583 94.2316 216.081C94.2316 215.469 94.0218 214.682 92.7278 213.651C93.2099 212.63 93.5906 211.564 93.8644 210.468V210.556ZM87.989 217.165C86.4502 216.344 89.0732 214.892 90.7693 214.945C91.1591 214.948 91.54 215.061 91.868 215.271C92.196 215.482 92.4578 215.781 92.6229 216.134C92.3893 216.51 92.0813 216.834 91.7179 217.087C91.3545 217.34 90.9433 217.516 90.5095 217.605C90.0756 217.693 89.6283 217.692 89.1949 217.601C88.7615 217.511 88.3512 217.333 87.989 217.078V217.165ZM90.0524 206.464C91.2398 207.473 92.3182 208.605 93.2699 209.839C92.7165 210.848 92.2935 211.923 92.0109 213.039C91.276 212.828 90.5057 212.77 89.7477 212.869C88.9896 212.969 88.2601 213.223 87.6043 213.616C84.4044 215.364 85.1563 219.194 89.5978 218.757C89.3368 219.26 89.1428 219.795 89.0207 220.348C87.2475 219.995 85.5894 219.208 84.1945 218.057C85.4341 216.131 86.3993 214.042 87.0623 211.85C87.7421 211.537 88.4774 211.364 89.2252 211.34C89.9729 211.316 90.7179 211.442 91.4163 211.71L91.7835 210.328L91.3988 210.154C90.577 209.594 90.2098 209.157 89.2655 208.405C89.616 207.766 89.8806 207.084 90.0524 206.376V206.464ZM83.2678 203.666C85.456 203.706 87.5749 204.441 89.318 205.764C89.0049 206.477 88.7704 207.222 88.6185 207.985C87.7803 207.327 86.7916 206.889 85.7414 206.709C84.6912 206.528 83.6128 206.613 82.6033 206.954C82.9722 205.893 83.1958 204.787 83.2678 203.666ZM79.2634 205.03C80.2328 204.276 81.3978 203.815 82.6208 203.701C82.0782 204.877 81.7411 206.136 81.6241 207.426C81.1031 207.738 80.6766 208.186 80.3902 208.722C80.1039 209.258 79.9682 209.861 79.9978 210.468C78.7727 210.536 77.5467 210.351 76.3957 209.926C76.6558 207.984 77.6742 206.224 79.2284 205.03H79.2634ZM53.139 202.11C49.9915 200.746 42.997 204.785 41.7205 206.954C41.5359 207.432 41.5359 207.962 41.7205 208.44C42.8221 212.619 53.104 227.377 55.01 229.668C55.3423 230.088 55.7969 229.511 55.4996 229.021C54.5904 227.517 54.6953 230.542 59.3466 215.487C59.7775 215.318 60.1788 215.082 60.5357 214.787C60.6979 214.607 60.7876 214.374 60.7876 214.132C60.7876 213.889 60.6979 213.656 60.5357 213.476C60.3769 213.28 60.1949 213.104 59.9936 212.951L61.0952 208.877L65.4668 211.29C64.5827 213.5 63.9379 215.798 63.5433 218.145C61.7803 218.78 60.1281 219.689 58.6472 220.838C57.6155 221.974 59.2417 224.073 60.2559 225.332C61.2701 226.591 62.1269 227.447 62.3193 227.64C62.5116 227.832 63.1236 227.64 63.0712 227.325C62.9601 227.072 62.8129 226.836 62.634 226.626C61.6865 225.151 60.8731 223.594 60.2034 221.974C61.5625 221.161 62.9973 220.482 64.4876 219.946C65.0296 219.753 66.7083 219.229 67.163 219.509C69.4063 220.69 71.7463 221.679 74.1574 222.464C74.2548 222.51 74.3667 222.516 74.4683 222.48C74.57 222.444 74.6531 222.369 74.6995 222.271C74.7459 222.174 74.7517 222.062 74.7156 221.961C74.6795 221.859 74.6046 221.776 74.5072 221.729L71.482 219.893C72.1261 218.433 72.539 216.882 72.7061 215.294L80.1727 219.334C80.6273 219.596 80.9771 218.879 80.6448 218.687C80.3126 218.494 57.6505 204.086 53.139 202.11ZM50.4811 203.963C51.0913 203.78 51.7419 203.78 52.3521 203.963C52.7543 204.138 53.7335 204.663 55.0625 205.397C54.6142 206.635 54.3091 207.92 54.1532 209.227C52.9816 208.562 52.2822 208.055 51.3554 208.213C50.8503 208.326 50.3777 208.553 49.974 208.877C50.1489 207.513 50.3062 206.464 50.4811 203.963ZM43.4866 207.81C45.3002 206.081 47.5003 204.81 49.9041 204.103C48.9708 208.228 48.3165 212.411 47.9456 216.623C46.1823 213.831 44.6948 210.873 43.5041 207.793L43.4866 207.81ZM51.4254 222.516C50.4636 220.925 49.4144 219.159 48.4177 217.428C49.0123 214.927 49.2046 213.773 49.5718 211.413C50.5286 213.072 51.6348 214.641 52.8767 216.099C52.1717 218.181 51.691 220.332 51.4428 222.516H51.4254ZM54.4854 227.552C53.8559 226.556 53.0516 225.209 52.0024 223.478C52.6662 221.284 53.1056 219.028 53.3139 216.746C53.6986 217.673 57.1259 216.344 58.0526 215.994C57.3707 218.145 54.9925 225.629 54.5029 227.552H54.4854ZM53.9609 216.204C52.8772 214.328 51.9192 212.383 51.0931 210.381L51.6352 210.084C51.88 210.223 57.8603 213.756 58.2974 214.035C56.9346 214.902 55.4876 215.629 53.9783 216.204H53.9609ZM59.2067 212.357C57.8953 211.482 56.1117 210.416 54.7477 209.629C55.2144 208.391 55.52 207.098 55.657 205.782L60.6231 208.58C60.5357 209.244 59.9411 210.608 59.3116 212.357H59.2067ZM70.7826 219.351L68.0897 217.725C66.8931 217.253 65.5617 217.253 64.3652 217.725C65.0429 215.681 65.5345 213.58 65.834 211.447L72.164 214.945C71.5173 216.371 71.0871 217.886 70.8875 219.439L70.7826 219.351Z" fill="black"/>
<path d="M332.184 225.576C329.351 199.207 304.941 158.657 290.357 136.502C298.5 137.153 306.673 137.357 314.838 137.114C317.164 137.114 323.249 136.694 324.42 136.467C325.102 136.327 325.207 135.68 324.176 135.645C323.144 135.61 315.8 135.26 314.803 135.243H297.019C294.292 135.347 290.025 135.592 289.78 135.592C284.534 127.601 280.88 122.6 280.845 122.583C280.804 122.542 280.756 122.51 280.703 122.49C280.649 122.469 280.592 122.46 280.535 122.464C280.478 122.467 280.422 122.483 280.371 122.509C280.321 122.536 280.276 122.573 280.241 122.618C280.206 122.663 280.181 122.716 280.167 122.771C280.154 122.827 280.153 122.885 280.164 122.941C280.174 122.997 280.197 123.05 280.23 123.097C280.263 123.144 280.306 123.183 280.355 123.212C281.159 123.859 316.499 175.496 327.306 211.063C331.59 225.174 334.125 242.888 320.311 247.784C287.507 259.5 30.582 263.312 6.29364 249.532C2.9188 247.626 2.13192 243.657 2.7964 238.306C3.82809 230.875 7.83243 220.82 12.6586 209.559C18.0968 214.805 63.2113 256.23 70.5205 254.673C77.8297 253.117 118.94 234.022 120.636 230.368C121.621 227.829 122.143 225.134 122.175 222.411C122.382 222.127 122.478 221.776 122.446 221.425C122.414 221.075 122.255 220.748 122 220.505C119.29 217.812 65.5194 175.181 62.0572 175.303C59.6441 175.408 55.2725 177.891 53.1917 179.115C52.517 178.012 51.5125 177.148 50.3202 176.646C49.1279 176.144 47.808 176.029 46.5469 176.318C45.3579 176.798 44.2933 177.542 43.4331 178.493C42.5729 179.444 41.9396 180.577 41.5808 181.808C41.6004 181.903 41.652 181.988 41.7268 182.049C41.8017 182.11 41.8952 182.143 41.9918 182.143C42.0883 182.143 42.1818 182.11 42.2567 182.049C42.3315 181.988 42.3831 181.903 42.4027 181.808C43.4544 180.03 45.1217 178.698 47.089 178.066C47.9069 177.941 48.7438 178.05 49.5022 178.381C50.2605 178.712 50.9093 179.252 51.3731 179.937L31.9284 188.243C30.896 187.182 29.6071 186.405 28.1864 185.988C24.864 185.113 22.6258 187.299 21.2968 190.499C21.2675 190.591 21.2709 190.69 21.3064 190.78C21.3418 190.87 21.4072 190.945 21.4914 190.992C21.5757 191.039 21.6736 191.056 21.7688 191.04C21.8639 191.023 21.9505 190.974 22.0137 190.901C24.252 187.666 26.8399 186.565 29.935 189.153C26.193 190.814 20.9646 193.174 17.2925 194.993C17.5548 194.573 55.29 126.237 55.29 126.062C56.9512 122.985 60.2911 117.477 63.7359 116.76C65.2929 116.42 66.8811 116.244 68.4746 116.235C66.044 120.257 46.3196 152.956 46.2846 157.572C46.2846 162.818 47.1939 161.996 49.9917 162.818C52.7895 163.64 209.344 162.678 209.623 162.678C212.334 162.678 222.93 162.329 223.91 161.612C226.952 159.374 226.27 156.034 224.941 152.519C224.627 151.68 223.035 148.2 220.902 143.549C230.082 140.786 236.989 144.3 237.619 159.286C238.248 172.243 233.142 176.195 223.367 175.636C215.516 175.181 210.095 172.873 208.382 175.933C206.458 179.343 211.774 187.002 214.082 190.184C213.75 190.184 199.114 189.887 195.425 189.73C190.225 189.528 185.019 189.592 179.827 189.922C176.251 190.001 172.696 190.488 169.23 191.373C167.919 192.02 166.223 195.395 165.506 196.812C164.089 199.592 157.637 217.043 155.853 222.079C154.804 224.982 151.254 234.599 153.632 236.295C153.545 238.166 153.842 240.667 155.486 241.541C157.13 242.416 179.722 243.045 181.453 243.08C184.513 243.167 215.446 243.57 235.188 242.695C254.93 241.821 263.551 239.933 263.044 239.985C263.545 239.837 263.996 239.553 264.345 239.164C264.694 238.775 264.927 238.296 265.02 237.782C265.289 236.489 265.205 235.148 264.775 233.9C266.978 229.616 250.314 194.049 245.697 191.548C245.425 191.395 245.118 191.311 244.806 191.303C243.879 191.303 223.14 190.429 215.079 190.167C213.33 187.701 207.647 178.416 209.833 176.44C213.156 173.537 240.906 188.086 239.42 159.129C238.65 146.032 232.618 138.355 220.377 142.797C219.311 140.488 210.358 121.359 207.962 116.27C217.243 116.825 226.553 116.621 235.8 115.658C235.933 117.29 236.402 118.877 237.179 120.318C237.955 121.76 239.022 123.025 240.312 124.034C247.306 129.28 275.144 128.493 280.198 122.075C281.614 120.139 282.593 117.918 283.067 115.566C283.541 113.214 283.498 110.788 282.943 108.454C283.408 108.158 283.769 107.724 283.975 107.212C284.255 106.67 283.975 105.988 282.768 105.743C281.212 105.51 279.638 105.417 278.064 105.464C278.064 104.03 278.152 101.354 278.064 98.3117C278.222 98.2068 279.358 96.8428 279.481 96.6855C280.874 95.057 281.975 93.1993 282.733 91.1948C283.31 89.5686 283.538 87.6976 282.016 86.7883C279.673 85.5118 278.029 87.8549 277.243 90.4779C276.508 86.4385 274.812 80.5107 270.755 81.1052C263.866 82.1544 268.622 98.8538 270.86 105.464C268.894 105.187 266.898 105.187 264.932 105.464C267.118 99.9729 268.237 92.8735 262.624 91.8068C261.773 91.6187 260.886 91.684 260.071 91.9948C259.257 92.3056 258.552 92.8481 258.043 93.5554C257.93 93.1597 257.719 92.7989 257.43 92.5069C257.14 92.2149 256.781 92.0012 256.386 91.8859C255.991 91.7706 255.573 91.7574 255.172 91.8475C254.77 91.9377 254.398 92.1282 254.091 92.4013C251.52 94.2549 252.989 98.504 255.979 99.9029C255.822 101.701 255.822 103.509 255.979 105.306C254.118 105.081 252.234 105.122 250.384 105.429C250.28 101.159 249.812 96.9061 248.985 92.7161C250.047 91.9601 250.941 90.9915 251.609 89.8717C252.278 88.7518 252.706 87.5053 252.867 86.2112C253.112 83.8856 252.29 81.9446 250.349 81.4375C247.918 80.808 246.484 82.5041 246.065 84.9347C243.914 81.9621 239.7 80.8954 237.654 84.3052C231.096 77.4856 227.931 81.2976 229.593 84.3052C230.834 86.6134 234.069 87.9074 236.587 88.6243C236.587 92.5412 238.336 95.8461 240.504 99.221C241.955 101.494 243.582 103.68 244.841 105.289C242.12 105.201 239.397 105.377 236.709 105.813C235.066 106.25 234.803 107.439 236.325 108.296C235.844 110.346 235.667 112.455 235.8 114.556C226.407 114.057 216.989 114.279 207.63 115.221C207.035 113.944 205.269 110.22 205.059 109.783C204.85 109.345 206.528 104.274 208.889 57.1316C219.73 56.2224 268.482 57.3065 272.958 55.5754C273.215 55.4832 273.442 55.3246 273.618 55.1157C273.793 54.9067 273.909 54.655 273.955 54.3863C275.441 49.5077 276.456 7.57571 273.955 3.67629C273.343 2.71455 271.157 2.41728 269.951 2.24242C254.371 -0.0307888 189.357 0.948436 186.017 2.71454C182.677 4.48065 184.093 21.7221 184.723 25.1494C150.957 24.0652 72.9861 26.181 65.6419 28.9264C63.8932 29.5559 63.2462 31.9515 62.8965 33.7526C59.9938 48.7383 68.1424 96.9652 70.8702 111.863C70.6954 111.863 70.8702 111.864 68.7369 115.186C66.9312 115.052 65.1159 115.146 63.3337 115.466C59.3468 116.078 55.6747 121.586 53.6463 125.013C53.5589 125.188 48.4005 133.756 47.6311 135.155C43.242 134.473 22.8356 134.735 20.2476 134.875C17.6597 135.015 15.0018 135.208 12.6586 135.382C12.239 135.382 12.204 136.187 12.6586 136.204C17.5548 136.502 19.3558 136.606 23.1504 136.659C32.4355 136.799 46.1272 137.184 46.5644 137.131C45.6551 138.722 32.1907 162.678 30.3896 166.071C22.5558 180.759 16.4007 194.206 16.0335 195.343C14.0008 196.267 12.0916 197.442 10.3504 198.84C9.78882 200.381 9.4531 201.994 9.35373 203.631C9.2663 206.446 10.2805 207.128 11.8368 208.702C7.66089 217.65 4.22786 226.925 1.57236 236.435C0.705444 240.283 0.669674 244.271 1.46745 248.134C2.18142 251.995 3.51599 255.715 5.41933 259.15C6.27431 260.018 7.38224 260.594 8.58434 260.794C13.1832 262.088 27.4345 263.749 32.2082 264.291C31.8483 266.428 31.7485 268.6 31.9109 270.761C31.9157 272.987 32.2395 275.201 32.8727 277.336C32.8784 277.388 32.8945 277.44 32.92 277.486C32.9455 277.533 32.98 277.574 33.0214 277.607C33.0628 277.64 33.1104 277.665 33.1614 277.68C33.2123 277.695 33.2658 277.7 33.3186 277.694C33.3714 277.688 33.4226 277.672 33.4692 277.647C33.5158 277.621 33.5569 277.587 33.5902 277.545C33.6235 277.504 33.6483 277.456 33.6632 277.405C33.6781 277.354 33.6828 277.301 33.6771 277.248C33.9568 275.068 34.0329 272.867 33.9044 270.673C33.8929 268.561 33.6525 266.456 33.1874 264.396C35.6005 264.606 37.9262 264.78 39.9546 264.85C39.632 266.891 39.544 268.962 39.6923 271.023C39.6982 273.249 40.0221 275.463 40.6541 277.598C40.6541 277.704 40.6964 277.807 40.7719 277.882C40.8473 277.958 40.9496 278 41.0562 278C41.1629 278 41.2652 277.958 41.3406 277.882C41.416 277.807 41.4584 277.704 41.4584 277.598C41.7476 275.419 41.8296 273.217 41.7032 271.023C41.6912 268.981 41.4567 266.946 41.0038 264.955C44.9032 265.043 102.293 270.201 201.405 268.243C227.966 267.718 259.896 266.494 286.195 263.609C285.848 265.718 285.749 267.86 285.898 269.991C285.907 272.213 286.236 274.422 286.877 276.549C286.865 276.607 286.866 276.668 286.88 276.726C286.894 276.784 286.921 276.839 286.958 276.885C286.996 276.932 287.044 276.969 287.098 276.995C287.152 277.021 287.211 277.034 287.271 277.034C287.331 277.034 287.39 277.021 287.444 276.995C287.498 276.969 287.546 276.932 287.583 276.885C287.621 276.839 287.648 276.784 287.662 276.726C287.676 276.668 287.677 276.607 287.664 276.549C287.97 274.371 288.052 272.168 287.909 269.974C287.89 267.814 287.638 265.662 287.157 263.556C289.098 263.347 293.592 262.787 293.977 262.735C293.633 264.832 293.539 266.963 293.697 269.082C293.698 271.309 294.022 273.523 294.659 275.657C294.67 275.764 294.724 275.861 294.807 275.928C294.891 275.996 294.998 276.027 295.105 276.015C295.211 276.004 295.309 275.95 295.376 275.867C295.444 275.783 295.475 275.676 295.463 275.569C295.751 273.396 295.827 271.2 295.69 269.012C295.679 266.857 295.427 264.711 294.939 262.612C302.825 261.546 326.938 258.293 330.226 251.561C334.108 243.884 333.793 233.9 332.184 225.576ZM173.06 197.424C173.252 196.951 179.11 195.675 185.51 197.424C185.568 197.411 185.629 197.412 185.687 197.426C185.746 197.44 185.8 197.467 185.846 197.505C185.893 197.542 185.93 197.59 185.956 197.644C185.982 197.698 185.995 197.757 185.995 197.817C185.995 197.877 185.982 197.936 185.956 197.99C185.93 198.044 185.893 198.092 185.846 198.129C185.8 198.167 185.746 198.194 185.687 198.208C185.629 198.222 185.568 198.223 185.51 198.21C182.323 198.777 179.069 198.859 175.857 198.455C174.354 198.21 172.448 198.193 173.007 197.424H173.06ZM262.956 239.006C246.782 242.083 157.427 241.384 156.081 240.754C154.734 240.125 154.612 238.096 154.577 236.768C164.264 239.915 258.917 237.484 264.18 234.704C264.46 236.243 264.53 238.708 262.904 239.006H262.956ZM229.016 197.616C229.016 197.021 232.863 196.689 233.037 196.672C235.325 196.496 237.622 196.496 239.909 196.672C241.186 196.812 242.952 196.986 242.812 197.528C242.672 198.071 240.032 198.298 239.577 198.368C237.868 198.525 236.152 198.595 234.436 198.578C233.282 198.543 228.893 198.333 228.963 197.616H229.016ZM251.485 203.439C255.86 211.775 259.533 220.46 262.467 229.406C262.84 230.536 263.046 231.714 263.079 232.903C255.192 235.351 164.299 237.869 155.101 235.229C154.664 235.106 154.542 235.229 154.437 234.494C153.772 229.738 161.554 210.835 163.355 206.429C196.439 205.327 251.136 203.631 251.433 203.439H251.485ZM236.762 87.8374C234.849 86.787 233.114 85.4415 231.621 83.8506C230.939 82.8189 231.096 82.102 233.107 83.0812C234.366 83.6582 236.132 84.6899 237.322 85.4069C237.016 86.185 236.827 87.0041 236.762 87.8374ZM278.729 90.9675C280.128 88.4495 281.509 87.7325 281.369 89.2188C280.618 91.8785 279.549 94.4382 278.187 96.8428C278.082 95.0942 277.959 93.9226 277.82 92.7686C277.89 92.5237 278.239 91.7893 278.676 90.9675H278.729ZM271.297 106.18C271.647 107.177 271.874 107.772 271.892 107.807C271.911 107.856 271.94 107.901 271.977 107.94C272.014 107.978 272.058 108.009 272.107 108.03C272.155 108.051 272.208 108.062 272.261 108.063C272.314 108.064 272.367 108.054 272.416 108.034C273.186 107.737 272.049 107.02 270.231 96.4756C269.688 93.3281 268.08 83.6233 271.262 83.1686C273.85 82.7839 275.249 89.2014 275.739 91.7369C276.646 96.6242 277.23 101.566 277.487 106.53C277.486 106.627 277.52 106.721 277.582 106.795C277.645 106.869 277.732 106.918 277.828 106.933C277.923 106.948 278.021 106.928 278.103 106.876C278.185 106.825 278.246 106.745 278.274 106.653C278.28 106.554 278.28 106.454 278.274 106.355C279.855 106.402 281.426 106.619 282.961 107.002C282.765 107.23 282.52 107.41 282.244 107.527C278.571 109.415 267.468 109.048 263.638 108.978C264.163 107.929 264.53 107.125 264.932 106.163C267.022 106.506 269.153 106.512 271.245 106.18H271.297ZM257.658 102.351C258.06 98.8537 258.952 93.2757 262.484 93.9401C266.016 94.6046 265.125 99.7281 264.355 103.155C263.881 105.122 263.297 107.06 262.607 108.961H257.361C257.318 106.755 257.4 104.548 257.605 102.351H257.658ZM255.437 94.1325C255.519 94.055 255.615 93.9954 255.721 93.9575C255.827 93.9196 255.939 93.9043 256.051 93.9126C256.163 93.9208 256.272 93.9524 256.371 94.0053C256.47 94.0583 256.557 94.1314 256.626 94.2199C256.905 94.4988 257.157 94.8032 257.378 95.1292C256.881 96.2443 256.535 97.4203 256.346 98.6264C255.437 97.3674 254.266 95.0767 255.437 94.1325ZM249.929 83.5009C252.202 84.2178 250.419 90.1981 248.897 92.0166C248.477 90.1346 247.849 88.3049 247.026 86.5609C247.533 85.0222 248.39 83.0112 249.929 83.4834V83.5009ZM245.627 106.373C246.484 107.457 247.044 108.121 247.044 108.121C247.113 108.19 247.205 108.231 247.303 108.237C247.4 108.242 247.496 108.213 247.573 108.153C247.65 108.093 247.703 108.007 247.721 107.911C247.74 107.815 247.723 107.716 247.673 107.632C247.673 107.632 244.578 103.225 242.025 98.6614C240.102 95.1642 238.266 91.6669 238.773 87.8025C239.175 84.7599 240.784 83.4659 243.494 85.232C247.411 87.75 249.195 103.278 249.754 107.964C249.76 108.087 249.803 108.205 249.878 108.302C249.953 108.399 250.057 108.47 250.174 108.506C250.646 108.506 250.576 107.999 250.559 107.754C250.541 107.509 250.559 106.285 250.559 106.163C252.416 106.398 254.296 106.398 256.154 106.163C256.259 107.439 256.381 108.436 256.469 108.961C250.261 108.961 242.76 109.38 237.619 107.37C240.261 106.847 242.938 106.514 245.627 106.373ZM237.252 108.943C239.809 109.935 242.505 110.524 245.243 110.692C248.338 110.972 269.409 111.007 271.804 110.884C275.417 110.825 278.993 110.157 282.383 108.908C282.709 111.056 282.586 113.247 282.024 115.344C281.461 117.442 280.47 119.4 279.114 121.096C274.864 126.08 247.988 127.216 241.536 122.67C237.287 119.75 236.517 113.909 237.252 108.926V108.943ZM223.158 160.283C223.525 161.454 56.7938 161.507 56.619 161.489C49.6245 161.489 51.3731 161.489 49.0299 160.912C48.4004 160.772 48.278 160.772 48.1556 160.16C48.0073 159.2 47.9663 158.227 48.0332 157.258C48.0699 157.329 48.1291 157.387 48.2018 157.422C48.2745 157.457 48.3566 157.467 48.4354 157.45C48.4354 157.45 223.105 155.072 224.242 155.037C224.714 157.083 224.784 158.989 223.158 160.283ZM272.346 54.159C272.346 54.159 272.451 53.9841 272.486 54.0366C272.521 54.089 272.346 54.1415 272.259 54.159H272.346ZM185.387 10.0588C185.387 8.92215 185.842 4.62054 186.856 4.09596C189.164 2.94187 262.519 1.96264 272.539 5.09267C274.287 8.76478 273.728 50.0148 272.259 54.159C263.656 55.5054 220.36 55.4005 209.099 56.5546C209.781 42.7929 210.078 31.1996 209.518 28.9439C209.411 28.6497 209.236 28.3845 209.008 28.1691C208.781 27.9537 208.507 27.7939 208.207 27.7023C204.377 26.0412 189.969 25.569 185.772 25.4291C185.228 20.3246 185.099 15.1842 185.387 10.0588ZM64.4703 54.089C64.208 50.4169 62.914 31.8815 66.4112 30.5876C68.1599 29.9756 74.315 29.3635 83.2505 28.8389C100.369 27.7723 127.351 26.9155 151.901 26.7406C157.357 26.7406 203.451 26.3384 207.962 29.4335C209.291 35.4837 205.042 102.701 204.098 109.188C162.778 110.535 113.816 112.563 72.1467 111.549C71.4473 107.544 66.0965 76.6463 64.4703 54.089ZM71.6047 112.72C71.608 112.68 71.608 112.639 71.6047 112.598C101.069 113.507 193.274 110.482 204.5 110.412C205.741 113.297 223.175 151.977 223.91 154.128C223.717 154.128 48.2955 156.506 48.0682 156.681C50.2715 149.301 68.4921 118.106 71.6047 112.72ZM119.674 229.878C118.38 232.396 79.1762 249.917 71.115 252.348C71.2714 251.542 71.3301 250.72 71.2899 249.9C83.198 245.773 109.043 234.879 120.636 227.168C120.415 228.109 120.093 229.024 119.674 229.895V229.878ZM120.881 226.013C117.384 228.077 114.044 229.511 71.2724 248.955C71.2741 248.164 71.1682 247.375 70.9577 246.612C76.5533 243.989 114.498 229.283 121.266 223.426C121.178 224.177 121.056 225.087 120.881 226.031V226.013ZM30.8093 190.132C31.6502 191.122 32.1706 192.345 32.3017 193.637C32.4328 194.93 32.1685 196.232 31.5437 197.371C31.264 197.808 31.9284 198.263 32.2082 197.808C33.2639 196.658 33.8879 195.176 33.974 193.617C34.0601 192.058 33.6029 190.517 32.6803 189.257C41.1786 185.358 49.5371 181.686 51.8277 180.689C52.4008 181.853 52.7076 183.131 52.7257 184.428C52.7439 185.726 52.473 187.011 51.9327 188.191C51.7228 188.75 52.3523 188.96 52.6496 188.593C53.6113 187.371 54.2099 185.903 54.3769 184.357C54.5438 182.811 54.2725 181.249 53.5939 179.85C55.4824 178.783 59.8889 176.353 62.0397 176.353C64.7326 176.353 119.377 220.803 120.391 221.817C115.827 226.521 73.4582 243.29 69.891 245.004C62.3719 243.255 16.4881 203.789 12.1865 199.732C14.8619 197.511 27.8017 191.531 30.8093 190.132ZM10.8575 200.536C16.3132 205.869 61.8299 245.598 69.4538 246.857C69.3009 247.516 69.2304 248.192 69.244 248.868C57.0037 242.888 22.0312 212.602 10.4554 202.862C10.5078 202.862 10.7701 201.148 10.91 200.536H10.8575ZM11.1198 206.534C10.6266 205.783 10.3819 204.896 10.4204 203.998C21.8564 215.539 54.1359 243.919 69.2265 249.83C69.1954 250.765 69.2895 251.7 69.5063 252.61C60.5359 250.599 12.3089 207.968 11.1723 206.534H11.1198ZM329.369 250.984C318.073 273.401 11.5395 267.543 6.57342 258.8C4.46841 255.141 3.04637 251.13 2.37673 246.962C3.05129 248.439 4.17803 249.664 5.59419 250.459C31.3339 265.445 287.419 261.528 320.853 249.515C327.935 246.962 331.502 241.454 332.307 233.777C332.781 239.672 331.759 245.59 329.334 250.984H329.369Z" fill="black"/>
<path d="M67.5301 132.06C191.175 133.809 202.978 132.742 206.441 132.2C207.262 132.078 207.787 131.798 207.752 130.836C207.752 128.301 201.807 116.672 200.233 115.868C199.533 115.501 74.3322 117.267 73.895 117.407C73.8136 117.426 73.7372 117.463 73.6709 117.514C73.6046 117.565 73.5499 117.63 73.5103 117.704C72.3213 119.645 66.5159 129.227 66.7781 131.396C66.8065 131.577 66.8972 131.742 67.0344 131.863C67.1717 131.985 67.347 132.054 67.5301 132.06ZM74.4021 118.613C75.6611 118.456 198.834 117.232 199.586 117.302C200.891 119.18 202.06 121.149 203.083 123.195C200.215 123.195 72.0415 123.877 71.377 123.894C72.1464 122.355 73.1606 120.607 74.4021 118.613ZM70.9049 124.733C71.5869 124.733 201.282 124.069 203.503 124.016C204.654 126.159 205.563 128.423 206.213 130.766C199.988 131.763 143.263 131.273 68.1596 130.766C68.8613 128.648 69.7691 126.604 70.8699 124.663L70.9049 124.733ZM164.036 138.005C163.688 137.233 163.118 136.582 162.399 136.134C161.68 135.686 160.844 135.461 159.997 135.487C155.556 135.487 118.258 134.456 114.9 135.82C112.757 138.417 111.098 141.378 110.004 144.563C109.899 145.332 110.284 145.682 110.756 145.734C121.248 146.871 156.028 147.955 165.051 146.294C166.17 146.084 166.31 144.895 166.082 143.758C165.541 141.794 164.857 139.871 164.036 138.005ZM111.246 144.563C112.25 141.725 113.613 139.028 115.302 136.537C117.96 135.662 152.531 137.481 160.05 137.463C160.497 137.447 160.94 137.561 161.325 137.79C161.709 138.02 162.019 138.356 162.218 138.757C163.068 140.574 163.73 142.472 164.194 144.423C155.328 145.804 117.681 145.017 111.246 144.563ZM285.478 140.244C283.013 136.851 270.65 137.009 266.506 137.131C263.008 137.131 250.296 137.708 250.296 141.135C250.311 141.413 250.391 141.683 250.531 141.923C250.671 142.164 250.866 142.367 251.1 142.517C251.433 142.779 249.142 165.826 252.289 178.189C253.321 182.281 254.65 184.309 258.549 186.005C266.034 189.258 278.449 188.541 283.432 181.599C284.429 179.57 284.219 173.66 284.307 171.859C292.053 173.398 298.401 170.25 300.044 161.909C301.076 156.541 299.747 153.026 297.456 150.893C295.926 149.647 294.117 148.789 292.183 148.394C290.25 147.998 288.25 148.075 286.353 148.62C286.286 148.642 286.216 148.648 286.147 148.638C286.078 148.627 286.012 148.6 285.955 148.559C285.899 148.518 285.853 148.464 285.822 148.401C285.79 148.339 285.775 148.27 285.775 148.2C285.775 147.273 286.108 140.996 285.478 140.244ZM252.254 140.611C256.976 137.848 276.211 137.638 282.418 140.453C282.628 140.558 283.415 140.961 283.415 141.135C283.415 141.31 282.61 141.73 282.418 141.817C277.732 143.933 260.998 144.895 252.202 141.678C251.59 141.345 252.202 140.681 252.202 140.611H252.254ZM286.842 150.403C288.431 149.945 290.108 149.879 291.728 150.211C293.348 150.543 294.864 151.263 296.145 152.309C298.033 154.058 298.978 157.065 298.103 161.524C297.929 163.075 297.392 164.562 296.535 165.865C295.679 167.169 294.526 168.252 293.172 169.026C290.304 170.317 287.075 170.564 284.044 169.725C283.895 169.671 283.737 169.649 283.579 169.658C283.421 169.668 283.266 169.711 283.125 169.783C282.984 169.855 282.859 169.956 282.759 170.078C282.658 170.2 282.584 170.342 282.541 170.495C282.068 171.824 282.733 177.192 281.771 180.584C277.347 186.582 266.034 187.124 259.336 184.309C255.944 182.858 255 181.354 254.09 177.734C251.747 169.148 251.607 151.662 252.132 143.059C257.64 145.664 276.718 146.416 284.219 142.569C284.219 147.99 283.555 148.899 284.919 150.001C285.183 150.2 285.487 150.339 285.81 150.409C286.133 150.478 286.467 150.476 286.79 150.403H286.842ZM116.981 187.456C112.389 183.562 107.449 180.096 102.223 177.105C100.21 175.917 98.0684 174.961 95.8402 174.254C93.9692 173.765 93.1823 174.726 93.567 176.003C94.3553 177.836 95.3972 179.549 96.6621 181.091C100.686 186.185 105.312 190.77 110.441 194.748C118.24 201.271 128.347 209.174 135.726 214.787C136.102 215.062 136.529 215.259 136.982 215.367C137.435 215.474 137.905 215.49 138.365 215.413C138.824 215.337 139.263 215.169 139.657 214.921C140.051 214.672 140.391 214.347 140.657 213.966C141.951 212.549 142.756 210.066 141.304 208.72C139.626 207.216 129.361 197.546 116.981 187.456ZM100.229 183.575L97.8337 179.71C98.6865 179.356 99.4078 178.745 99.897 177.961L103.692 179.5C102.739 179.689 101.879 180.194 101.251 180.934C100.622 181.674 100.262 182.604 100.229 183.575ZM105.598 188.033C104.334 186.97 103.164 185.8 102.1 184.536C102.223 182.42 102.887 181.476 105.003 181.406C106.413 182.08 107.744 182.907 108.972 183.872C108.032 184.101 107.193 184.632 106.583 185.384C105.974 186.135 105.627 187.066 105.598 188.033ZM135.499 213.476C133.558 211.85 107.748 189.957 106.157 188.558C106.291 187.579 106.718 186.664 107.383 185.933C108.048 185.202 108.92 184.691 109.882 184.466C115.914 188.943 124.588 196.357 139.713 208.947C139.124 208.917 138.536 209.016 137.99 209.238C137.444 209.459 136.952 209.798 136.551 210.229C136.149 210.661 135.847 211.175 135.665 211.736C135.483 212.297 135.427 212.891 135.499 213.476ZM274.06 232.851C276.246 234.337 277.767 233.655 279.183 231.592C282.68 226.626 294.921 204.645 294.921 204.471C294.921 204.296 295.061 204.628 294.484 197.563C294.459 197.298 294.363 197.044 294.206 196.828C294.049 196.612 293.837 196.443 293.592 196.337C293.347 196.232 293.078 196.194 292.813 196.228C292.549 196.263 292.298 196.367 292.088 196.532L286.108 200.886C286.108 200.886 272.836 228.322 272.696 228.567C272.456 229.334 272.458 230.157 272.702 230.924C272.946 231.69 273.42 232.363 274.06 232.851ZM292.578 198.665C292.683 199.942 292.822 201.638 292.927 202.809C291.628 202.188 290.269 201.701 288.871 201.358L292.578 198.665ZM287.577 202.547C289.092 203.621 290.843 204.317 292.683 204.575C292.42 205.03 279.061 229.406 278.921 229.651C278.515 228.825 277.847 228.156 277.022 227.748C276.197 227.34 275.26 227.216 274.357 227.395C275.721 224.859 287.087 203.421 287.577 202.547Z" fill="black"/>
<path d="M279.534 167.872C279.346 167.607 279.106 167.383 278.83 167.212C278.554 167.041 278.246 166.926 277.925 166.875C276.891 166.599 275.839 166.388 274.778 166.245C275.372 170.407 275.722 174.989 275.705 175.391C275.678 175.657 275.547 175.902 275.341 176.072C275.135 176.243 274.869 176.324 274.603 176.3C274.335 176.269 274.09 176.135 273.92 175.926C273.75 175.717 273.669 175.449 273.694 175.181C273.694 174.884 273.589 173.677 273.501 166.071C270.004 165.633 253.165 164.322 253.829 167.679C253.829 167.854 252.448 176.422 257.799 180.532C263.15 184.641 273.851 183.837 277.593 179.657C278.655 178.385 279.355 176.851 279.622 175.216C280.034 172.783 280.005 170.295 279.534 167.872ZM283.731 152.047C283.731 152.834 282.682 158.849 281.982 166.927L282.821 167.102C285.898 167.755 289.103 167.406 291.967 166.106C292.965 165.551 293.792 164.732 294.357 163.739C294.921 162.746 295.201 161.617 295.167 160.475C295.285 159.056 295.039 157.63 294.45 156.333C293.861 155.036 292.95 153.911 291.803 153.066C290.657 152.221 289.313 151.684 287.9 151.505C286.487 151.327 285.051 151.513 283.731 152.047ZM284.518 152.641C285.634 152.465 286.775 152.529 287.864 152.831C288.953 153.132 289.964 153.664 290.83 154.39C291.662 155.153 292.306 156.097 292.712 157.149C293.118 158.202 293.276 159.334 293.173 160.458C293.016 164.952 288.4 165.808 283.976 165.354C284.185 162.171 284.36 158.517 284.518 152.641ZM115.269 136.536C115.269 136.536 115.286 136.554 115.269 136.536V136.536ZM265.79 49.9972C265.785 50.3086 265.842 50.6179 265.958 50.9072C266.073 51.1966 266.245 51.4602 266.463 51.6828C266.681 51.9055 266.94 52.0829 267.227 52.2048C267.514 52.3266 267.822 52.3905 268.133 52.3928C268.609 52.4032 269.077 52.2716 269.478 52.0148C269.879 51.758 270.194 51.3876 270.383 50.9509C270.573 50.5141 270.628 50.0309 270.541 49.5628C270.455 49.0947 270.231 48.6629 269.898 48.3226C269.565 47.9823 269.139 47.7489 268.673 47.6521C268.206 47.5554 267.722 47.5997 267.281 47.7793C266.841 47.959 266.463 48.2659 266.198 48.6609C265.932 49.056 265.79 49.5211 265.79 49.9972ZM74.4033 107.684C74.8055 108.471 75.3301 108.558 75.6623 108.314C75.9946 108.069 186.735 107.107 194.971 106.67C196.742 106.697 198.508 106.474 200.217 106.006C204.151 102.508 205.69 37.1273 204.151 34.1022C200.217 26.2509 77.0787 31.3044 69.5072 33.5951C63.4744 35.4137 71.623 102.106 74.4033 107.684ZM69.1749 36.4279C69.1749 36.1131 69.5596 34.8891 69.8569 34.8016C78.2328 32.2836 199.849 28.1394 203.154 34.7142C203.436 36.0298 203.565 37.3734 203.539 38.7186C203.836 46.3425 203.539 62.6747 202.752 77.3106C202.595 80.1084 201.353 103.033 199.535 105.114C192.278 106.652 80.4536 107.002 75.4875 107.195C72.6547 100.62 66.5345 47.9688 69.1749 36.4279ZM268.36 11.4401C268.836 11.4505 269.303 11.3193 269.703 11.0632C270.104 10.8072 270.419 10.4378 270.609 10.0021C270.799 9.56642 270.855 9.08409 270.77 8.61649C270.685 8.14888 270.463 7.71714 270.131 7.37616C269.8 7.03519 269.375 6.80041 268.91 6.70168C268.446 6.60294 267.962 6.64473 267.521 6.82171C267.08 6.99869 266.701 7.30288 266.433 7.69557C266.166 8.08826 266.021 8.55171 266.017 9.02697C266.01 9.33989 266.066 9.65107 266.18 9.94241C266.294 10.2338 266.466 10.4994 266.684 10.724C266.902 10.9485 267.162 11.1275 267.45 11.2504C267.738 11.3734 268.047 11.4378 268.36 11.4401Z" fill="black"/>
<path d="M103.395 80.4932H124.169C126.573 80.4839 128.875 79.5213 130.57 77.8166C132.265 76.1118 133.214 73.8043 133.209 71.4004V54.5437C133.209 52.1346 132.261 49.8224 130.569 48.1075C128.877 46.3926 126.578 45.4131 124.169 45.3809H103.395C102.191 45.3763 100.997 45.6101 99.8834 46.069C98.7696 46.5278 97.7577 47.2025 96.9059 48.0543C96.0541 48.9061 95.3794 49.918 94.9205 51.0318C94.4617 52.1455 94.2279 53.3391 94.2325 54.5437V71.4004C94.2371 72.5991 94.4777 73.7851 94.9407 74.8908C95.4036 75.9965 96.0798 77.0001 96.9307 77.8445C97.7815 78.6888 98.7903 79.3573 99.8995 79.8118C101.009 80.2663 102.197 80.4978 103.395 80.4932ZM95.7188 54.5437C95.7507 52.5225 96.5713 50.5939 98.0055 49.1695C99.4398 47.7451 101.374 46.9377 103.395 46.9197H124.169C125.19 46.9081 126.203 47.0989 127.149 47.4811C128.096 47.8632 128.958 48.4291 129.684 49.1461C130.411 49.8631 130.989 50.717 131.384 51.6584C131.779 52.5999 131.983 53.6102 131.985 54.6311V71.4004C131.981 72.4222 131.775 73.4332 131.38 74.3755C130.984 75.3179 130.407 76.1731 129.681 76.8924C128.956 77.6117 128.095 78.1811 127.149 78.5679C126.204 78.9547 125.191 79.1514 124.169 79.1468H103.395C102.383 79.1422 101.381 78.9382 100.447 78.5464C99.513 78.1546 98.6655 77.5828 97.9527 76.8634C97.2399 76.1441 96.6757 75.2914 96.2924 74.3541C95.9091 73.4167 95.7142 72.4131 95.7188 71.4004V54.5437ZM159.561 92.9784C159.911 94.0101 160.785 93.7827 161.03 93.1357C161.362 92.209 163.303 85.5467 163.548 84.3926C164.894 83.973 161.1 85.2844 172.833 81.0178C172.955 80.9706 173.059 80.8878 173.133 80.7801C173.207 80.6725 173.246 80.545 173.246 80.4145C173.246 80.284 173.207 80.1566 173.133 80.0489C173.059 79.9413 172.955 79.8584 172.833 79.8112L154.857 72.6244C154.747 72.5722 154.625 72.5498 154.503 72.5595C154.381 72.5691 154.264 72.6105 154.163 72.6795C154.062 72.7484 153.981 72.8426 153.928 72.9526C153.875 73.0626 153.852 73.1846 153.86 73.3064C153.86 73.3064 158.599 90.1981 159.561 92.9784ZM155.662 74.4954L170.805 80.4582C168.776 81.2102 165.349 82.5041 163.705 83.1686C162.971 83.4484 162.674 83.5708 162.499 83.7981C162.324 84.0254 162.936 82.6615 160.365 90.5828L155.662 74.4954ZM196.929 23.2259C196.95 23.3308 197.006 23.425 197.09 23.4922C197.173 23.5594 197.277 23.5951 197.384 23.5931C197.751 23.5931 209.064 24.6772 211.373 24.0652C212.859 23.663 213.121 21.0401 213.261 19.5013C213.436 17.1756 213.261 11.4751 212.282 9.53416C210.953 6.91123 201.143 7.78554 198.293 8.29264C197.536 8.39908 196.813 8.67396 196.177 9.09701C195.807 9.52698 195.591 10.0688 195.565 10.6358C195.548 14.8703 196.005 19.0933 196.929 23.2259ZM197.436 10.4434C200.199 9.58662 208.068 9.25438 210.568 10.4434C211.425 12.7167 211.88 20.533 210.848 22.3516C209.222 22.7712 199.29 22.7712 197.628 22.7887C197.576 21.4248 196.772 14.0631 197.436 10.4434ZM220.396 23.1559C220.419 23.2593 220.477 23.3517 220.559 23.4183C220.642 23.4849 220.744 23.5219 220.85 23.5231C221.217 23.5231 232.531 24.6073 234.839 23.9953C236.325 23.5931 236.588 20.9701 236.745 19.4314C236.903 17.1057 236.745 11.4052 235.748 9.46422C234.419 6.8238 224.61 7.7156 221.759 8.2227C221.005 8.33634 220.283 8.61064 219.644 9.02706C219.281 9.46173 219.067 10.0008 219.032 10.5658C219.015 14.8003 219.473 19.0232 220.396 23.1559ZM220.903 10.3735C223.665 9.49919 231.534 9.18444 234.035 10.3735C234.892 12.6467 235.346 20.463 234.315 22.2641C232.688 22.7013 222.756 22.7013 221.095 22.7188C221.043 21.3548 220.238 13.9931 220.903 10.3735ZM244.946 23.9253C244.967 24.0302 245.024 24.1245 245.107 24.1917C245.19 24.2588 245.294 24.2945 245.401 24.2925C245.768 24.2925 257.082 25.3767 259.39 24.7647C260.876 24.3625 261.138 21.7395 261.278 20.2008C261.453 17.8751 261.278 12.1746 260.299 10.2336C258.97 7.61068 249.16 8.48499 246.31 8.99209C245.555 9.10304 244.833 9.37755 244.194 9.79645C243.824 10.2264 243.608 10.7683 243.582 11.3352C243.565 15.5697 244.022 19.7928 244.946 23.9253ZM245.453 11.1429C248.216 10.2861 256.085 9.95383 258.585 11.1429C259.442 13.4161 259.897 21.2324 258.865 23.051C257.239 23.4707 247.307 23.4707 245.646 23.4882C245.593 22.1242 244.789 14.7625 245.453 11.1429ZM220.553 50.0497C220.675 50.3994 220.955 50.4344 221.008 50.4169C221.392 50.4169 232.688 51.5011 234.997 50.8891C236.483 50.4869 236.745 47.8639 236.903 46.3252C237.06 43.9995 236.903 38.299 235.923 36.3755C234.577 33.7351 224.767 34.6269 221.934 35.1165C221.173 35.225 220.445 35.4996 219.801 35.9209C219.435 36.3603 219.22 36.906 219.189 37.4771C219.173 41.7058 219.63 45.923 220.553 50.0497ZM221.077 37.2673C223.84 36.4105 231.692 36.0782 234.192 37.2673C235.049 39.5405 235.504 47.3568 234.472 49.1754C232.846 49.5951 222.931 49.5951 221.27 49.6126C221.2 48.2486 220.396 40.8869 221.077 37.2673ZM261.436 35.6586C264.233 31.5318 266.682 27.8073 266.769 27.6324C266.856 27.4575 265.58 25.8838 264.828 27.0029C259.477 35.2389 260.212 34.452 259.827 34.3121C256.749 33.193 246.817 33.5777 245.261 35.0291C244.212 36.0083 244.614 39.558 244.736 41.0793C243.617 40.4498 242.76 39.9951 242.446 39.8727C241.641 39.558 241.694 40.3449 242.131 40.6247L244.859 42.3733C245.08 44.6713 245.436 46.9543 245.925 49.2104C245.943 49.3169 245.998 49.4133 246.082 49.4811C246.166 49.5489 246.272 49.5833 246.38 49.5776C246.747 49.5776 258.061 50.6617 260.369 50.0497C263.377 49.2104 262.45 38.1766 261.436 35.6586ZM246.432 36.3755C250.546 35.4395 254.808 35.3621 258.953 36.1482L252.885 45.7131C252.273 45.3634 249.003 43.4399 246.275 41.9011C246.16 40.0758 246.213 38.2437 246.432 36.428V36.3755ZM259.844 48.2661C258.201 48.7033 248.286 48.7033 246.625 48.7208C246.625 48.0213 246.363 45.7306 246.24 43.1951L252.885 47.3219C253.053 47.3402 253.223 47.3105 253.374 47.2363C253.526 47.162 253.653 47.0461 253.742 46.9022C254.301 46.1853 257.117 42.0935 259.984 37.8793C260.526 41.0268 260.701 46.7623 259.879 48.2661H259.844ZM190.319 10.8631C190.794 10.87 191.26 10.7359 191.658 10.4776C192.056 10.2194 192.368 9.84879 192.555 9.41273C192.743 8.97667 192.796 8.49484 192.709 8.02835C192.622 7.56186 192.398 7.13174 192.067 6.79252C191.735 6.4533 191.31 6.22028 190.845 6.12301C190.381 6.02574 189.898 6.0686 189.458 6.24616C189.018 6.42372 188.64 6.72797 188.373 7.12034C188.106 7.5127 187.962 7.97549 187.959 8.45002C187.958 9.08102 188.205 9.68699 188.647 10.1381C189.088 10.5891 189.688 10.8494 190.319 10.8631Z" fill="black"/>
</svg>
