<svg width="380" height="271" viewBox="0 0 380 271" fill="none" xmlns="http://www.w3.org/2000/svg">
<path d="M156.346 62.4483C153.106 62.0283 124.346 62.0283 119.186 62.4483C119.098 62.4676 119.02 62.5194 118.968 62.5936C118.916 62.6677 118.894 62.7586 118.906 62.8483C118.925 62.9152 118.96 62.9763 119.009 63.0254C119.058 63.0745 119.119 63.1099 119.186 63.1283C123.826 63.5283 153.046 63.7083 156.246 63.2883C156.706 63.2483 156.846 62.5083 156.346 62.4483ZM291.446 112.488C291.046 112.488 285.906 114.308 287.266 115.048L288.706 116.248C288.386 116.968 291.526 120.248 289.366 127.968C288.466 127.348 288.446 127.968 288.566 128.168C291.906 131.608 315.766 150.708 321.086 154.168C321.566 154.868 324.606 153.368 325.086 153.208C335.653 148.703 345.968 143.629 355.986 138.008C359.646 136.008 359.606 128.828 355.166 126.008C350.496 122.902 345.633 120.097 340.606 117.608L346.806 112.748C347.246 112.408 347.006 111.148 345.326 112.508C341.709 106.663 340.244 99.7379 341.186 92.9283C341.426 92.7883 344.106 91.1883 342.926 90.6683C336.926 88.1683 317.046 80.8683 310.926 80.4883C308.926 80.3483 292.926 93.1483 291.426 95.7283C288.226 101.068 289.206 107.168 291.546 112.548L291.446 112.488ZM289.846 128.268C291.846 126.088 291.226 120.108 290.266 117.468C293.006 119.668 315.026 136.268 322.026 140.708C325.806 148.708 321.586 152.588 321.726 153.188C310.006 145.048 300.466 135.748 289.846 128.268ZM355.026 127.368C358.366 129.088 357.606 136.248 355.206 137.088C344.326 142.908 333.566 148.148 322.326 153.088C323.802 151.097 324.608 148.687 324.626 146.208L340.026 139.888C340.306 139.748 340.026 139.368 339.806 139.428C334.636 141.157 329.573 143.194 324.646 145.528C324.607 143.584 324.003 141.694 322.906 140.088C327.606 138.228 351.626 125.768 355.026 127.368ZM321.686 107.048C327.571 102.176 333.727 97.6419 340.126 93.4683C339.659 95.9001 339.572 98.3896 339.866 100.848C338.886 101.168 326.766 110.048 326.146 110.528C325.886 110.728 326.146 111.148 326.466 110.988L340.006 101.788C340.426 104.608 342.126 111.028 344.746 112.768C342.086 114.928 328.926 125.348 325.726 125.348C323.327 123.034 321.667 120.061 320.955 116.804C320.243 113.547 320.511 110.153 321.726 107.048H321.686ZM319.066 89.7883C320.466 90.9883 314.666 94.3683 314.446 94.4283C313.786 94.6283 313.346 93.9483 314.766 92.5883C315.486 91.9683 318.126 89.0483 319.066 89.8083V89.7883ZM308.166 93.1283C309.166 91.1283 313.326 87.8083 315.086 86.6083C315.173 86.5479 315.271 86.5051 315.374 86.4825C315.477 86.4598 315.584 86.4577 315.688 86.4763C315.792 86.4949 315.891 86.5338 315.98 86.5907C316.069 86.6477 316.146 86.7216 316.206 86.8083C316.267 86.8949 316.309 86.9927 316.332 87.0959C316.355 87.1991 316.357 87.3057 316.338 87.4097C316.32 87.5137 316.281 87.613 316.224 87.702C316.167 87.791 316.093 87.8679 316.006 87.9283C314.446 89.1283 310.206 93.1083 309.026 93.9283C308.937 93.9773 308.838 94.003 308.736 94.003C308.635 94.003 308.535 93.9773 308.446 93.9283C308.376 93.8961 308.313 93.8502 308.261 93.7933C308.209 93.7365 308.168 93.6698 308.142 93.5971C308.116 93.5245 308.105 93.4474 308.109 93.3703C308.113 93.2932 308.133 93.2177 308.166 93.1483V93.1283ZM293.486 96.5883C302.066 98.9164 310.495 101.768 318.726 105.128C319.246 105.388 319.066 106.268 318.446 106.148C309.872 103.759 301.45 100.854 293.226 97.4483C293.135 97.3971 293.064 97.3162 293.024 97.219C292.985 97.1218 292.98 97.0141 293.011 96.9138C293.041 96.8135 293.105 96.7265 293.191 96.6673C293.278 96.6081 293.382 96.5802 293.486 96.5883ZM292.006 113.448C301.546 118.828 319.306 125.668 326.006 126.668C327.346 126.868 338.226 119.228 340.006 117.928C341.166 119.068 350.826 124.528 353.286 126.048C349.726 126.228 323.886 138.268 322.026 139.448C310.926 131.148 299.406 122.728 288.026 114.828L292.026 113.448H292.006ZM156.346 62.4483H156.366H156.346ZM188.826 24.3283C188.705 24.2783 188.568 24.2783 188.446 24.3283C187.266 25.0483 180.446 34.3283 179.066 36.0683C177.746 34.2683 176.406 32.4883 175.066 30.7483C174.806 30.4283 174.266 30.7483 174.466 31.1683C175.806 33.3083 177.246 35.3683 178.706 37.4283C178.946 37.7483 179.406 37.5883 179.606 37.3283C180.866 35.7283 188.886 26.0483 189.226 24.9483C189.241 24.8813 189.242 24.8121 189.23 24.7446C189.218 24.6771 189.192 24.6127 189.155 24.555C189.118 24.4974 189.07 24.4477 189.013 24.4088C188.957 24.3699 188.893 24.3425 188.826 24.3283ZM150.686 66.3283C138.686 66.5683 125.386 66.3283 120.226 66.7683C120.12 66.7683 120.018 66.8104 119.943 66.8854C119.868 66.9605 119.826 67.0622 119.826 67.1683C119.826 67.2744 119.868 67.3761 119.943 67.4511C120.018 67.5261 120.12 67.5683 120.226 67.5683C126.426 67.5683 145.726 68.2083 150.686 67.1483C151.106 67.0483 151.026 66.4483 150.686 66.3283ZM151.126 46.2283C151.526 46.2283 151.646 45.5483 151.126 45.4883C147.126 44.8883 123.126 46.0683 117.306 46.9683C117.2 46.9683 117.098 47.0104 117.023 47.0854C116.948 47.1604 116.906 47.2622 116.906 47.3683C116.906 47.4744 116.948 47.5761 117.023 47.6511C117.098 47.7261 117.2 47.7683 117.306 47.7683C125.146 47.7683 142.966 46.5483 151.026 46.2683L151.126 46.2283ZM143.166 50.2283C143.506 50.2283 143.686 49.5483 143.166 49.4283C141.166 48.9283 121.166 49.4283 118.146 49.7683C118.099 49.7755 118.053 49.7922 118.012 49.8174C117.971 49.8426 117.936 49.8758 117.908 49.9149C117.88 49.9541 117.86 49.9984 117.849 50.0454C117.839 50.0923 117.838 50.1409 117.846 50.1883C117.857 50.2661 117.892 50.3386 117.945 50.3959C117.999 50.4532 118.069 50.4925 118.146 50.5083C122.006 50.7283 140.806 50.8683 143.166 50.2283ZM185.806 61.2283C186.906 59.6283 174.846 60.2083 174.326 60.7483C173.806 61.2883 174.326 69.5083 174.326 70.2683C174.326 71.4483 185.506 71.4283 185.946 71.0883C186.445 67.834 186.445 64.5226 185.946 61.2683L185.806 61.2283ZM184.946 70.1883C183.886 70.1883 176.026 70.3283 175.386 69.8283C175.386 67.0083 175.206 64.2083 175.106 61.4083H185.106C184.746 64.3213 184.693 67.2641 184.946 70.1883Z" fill="black"/>
<path d="M326.806 116.808C329.606 115.148 332.466 113.528 335.166 111.728C335.546 111.468 335.166 110.788 334.726 111.028L326.506 116.348C326.46 116.394 326.431 116.454 326.424 116.518C326.417 116.582 326.432 116.647 326.468 116.701C326.503 116.756 326.556 116.796 326.618 116.815C326.68 116.835 326.746 116.832 326.806 116.808ZM306.646 138.768C306.406 138.608 306.086 138.988 306.326 139.188C308.326 140.928 318.166 147.808 320.326 149.328C320.606 149.528 320.846 149.068 320.586 148.868C316.386 145.668 311.106 141.448 306.646 138.768ZM177.086 54.2683C178.126 54.2683 186.266 55.2083 186.186 53.8683C186.106 52.5283 185.986 44.8283 185.466 44.5883C185.326 43.2483 175.186 44.2283 174.246 44.4083C173.666 44.4083 173.906 52.2083 173.946 53.1483C174.006 54.5083 176.186 54.2283 177.086 54.2683ZM184.946 45.0483V53.4683C181.578 53.1217 178.186 53.0548 174.806 53.2683C174.939 50.5278 174.885 47.7815 174.646 45.0483C176.306 45.0483 183.886 45.3083 184.946 45.0483ZM319.886 145.488C319.937 145.531 320 145.554 320.066 145.554C320.132 145.554 320.196 145.531 320.246 145.488C320.286 145.444 320.307 145.387 320.307 145.328C320.307 145.269 320.286 145.212 320.246 145.168C311.086 138.668 301.986 130.848 292.986 124.748C292.726 124.548 292.326 124.928 292.586 125.188C297.626 129.988 313.366 141.188 319.966 145.588L319.886 145.488ZM345.506 134.008H345.546H345.506ZM186.146 31.4283C186.118 31.339 186.057 31.264 185.975 31.2192C185.893 31.1744 185.796 31.1633 185.706 31.1883C185.646 31.2025 185.59 31.2321 185.545 31.2742C185.499 31.3162 185.465 31.3693 185.446 31.4283V38.4283H174.366C174.172 35.2052 173.812 31.9942 173.286 28.8083C176.415 28.9536 179.549 28.8734 182.666 28.5683C182.736 28.5457 182.797 28.4995 182.837 28.4375C182.877 28.3756 182.894 28.3017 182.886 28.2283C182.875 28.1858 182.855 28.146 182.827 28.1116C182.8 28.0772 182.765 28.0488 182.726 28.0283C181.986 27.7883 172.726 26.9883 173.006 28.5883C172.086 28.5883 173.426 38.5883 173.426 38.5883C173.906 39.8083 175.926 39.3883 176.986 39.3883C178.046 39.3883 185.406 39.5683 186.006 39.3883C186.966 39.0083 186.426 32.6083 186.206 31.3883L186.146 31.4283Z" fill="black"/>
<path d="M379.407 212.868C353.927 214.428 328.44 215.762 302.947 216.868C302.614 213.221 301.944 209.612 300.947 206.088C326.28 205.422 351.613 204.642 376.947 203.748C377.076 203.733 377.197 203.675 377.29 203.585C377.384 203.495 377.446 203.377 377.467 203.248C377.484 203.092 377.439 202.935 377.342 202.812C377.244 202.689 377.103 202.608 376.947 202.588C351.507 203.535 326.073 204.315 300.647 204.928C294.647 184.008 281.987 164.108 267.227 148.348C266.767 143.028 266.747 140.348 264.467 135.008C260.067 124.908 255.207 122.808 255.327 125.208C255.325 125.84 255.427 126.469 255.627 127.068C254.827 126.068 248.947 119.948 247.747 123.248C246.862 122.692 245.863 122.341 244.824 122.224C243.786 122.106 242.734 122.224 241.747 122.568C238.007 116.568 231.747 116.568 227.747 114.568C220.107 110.568 223.627 97.8083 229.247 93.0483C229.247 93.0483 253.387 92.5883 253.407 92.2883C253.847 86.6283 258.667 0.488271 258.667 0.488271C199.187 -0.691729 135.187 0.488268 76.1467 1.68827C75.7467 1.68827 75.4067 1.94827 75.4467 2.30827C79.0067 32.6083 87.7467 94.6283 87.7467 94.6283C89.1867 95.2083 219.927 93.1683 227.747 93.0483C224.402 96.696 222.572 101.48 222.627 106.428C223.027 119.028 233.047 113.668 241.247 122.888C235.927 125.168 235.247 131.908 237.247 136.728C237.61 137.652 238.102 138.521 238.707 139.308C238.791 141.188 239.326 143.019 240.267 144.648C242.827 149.508 247.387 151.188 247.627 151.908C247.627 163.228 250.007 177.028 252.267 188.068C244.647 184.068 222.047 174.528 198.807 173.848C200.127 162.388 210.027 160.948 208.667 153.288C212.807 153.128 216.947 152.968 221.087 152.768C222.127 152.768 220.987 149.568 220.867 149.028C219.187 141.628 217.5 134.242 215.807 126.868C215.547 125.868 214.387 119.148 213.407 119.148L200.507 119.388C197.667 116.688 191.007 115.688 188.287 118.828C184.287 111.128 171.927 112.248 171.527 119.728C168.147 117.428 163.127 116.968 160.067 120.088C159.747 120.228 99.2467 121.048 90.2467 121.408H90.0867C89.9895 121.47 89.9204 121.567 89.8942 121.68C89.868 121.792 89.8869 121.91 89.9467 122.008C90.1068 123.048 84.8867 147.728 84.2667 153.668C84.2667 154.508 93.3267 154.388 94.2667 154.388C81.3467 169.528 69.7267 186.608 66.2667 206.588C44.4667 206.248 22.6667 205.708 0.866747 205.788C0.76066 205.788 0.658919 205.83 0.583904 205.905C0.50889 205.98 0.466747 206.082 0.466747 206.188C0.466747 206.294 0.50889 206.396 0.583904 206.471C0.658919 206.546 0.76066 206.588 0.866747 206.588C22.5667 207.528 44.3267 207.628 66.0467 207.788C65.3997 211.754 65.1318 215.772 65.2467 219.788C43.6467 219.348 22.0467 218.668 0.466747 218.308C-0.0132529 218.308 -0.0932529 219.068 0.466747 219.068C22.0667 220.168 43.7067 220.568 65.3467 220.888C65.9067 231.748 70.1867 245.068 80.8267 249.948C85.2067 258.548 94.4867 266.288 104.827 264.068C104.527 265.628 104.247 267.228 103.947 268.828C103.827 269.548 104.907 269.848 105.027 269.128C107.967 253.288 111.027 237.368 116.167 222.088C116.327 221.608 115.607 221.428 115.427 221.888C110.427 235.168 107.607 249.128 105.007 263.028C94.4267 264.568 85.9867 257.828 81.6067 248.708C79.2503 243.889 77.8872 238.645 77.5986 233.289C77.31 227.932 78.1017 222.573 79.9267 217.528C85.3867 203.528 99.9267 193.528 114.207 186.688C128.726 179.807 144.32 175.471 160.307 173.868C161.447 184.548 173.727 188.168 183.087 187.608C192.447 187.048 197.987 184.188 198.787 174.748C198.907 174.748 232.567 175.488 261.627 194.908C270.167 200.608 277.927 207.928 282.467 217.228C286.907 226.208 288.467 237.228 284.467 246.588C278.747 260.228 268.307 262.208 261.387 263.428C258.94 248.784 254.216 234.612 247.387 221.428C247.207 221.088 246.647 221.308 246.827 221.668C253.949 237.026 258.806 253.336 261.247 270.088C261.247 270.608 262.287 270.748 262.287 270.088C262.206 268.257 261.965 266.437 261.567 264.648C269.109 263.999 276.093 260.407 281.007 254.648C297.007 250.648 303.987 233.348 303.007 218.108C328.553 217.068 354.073 215.735 379.567 214.108C380.267 213.848 380.007 212.868 379.407 212.868ZM87.8267 81.9883C83.8267 56.5483 80.6467 31.2283 77.0267 5.76827C137.027 4.72827 198.587 5.16827 257.767 4.16827L253.147 79.1883C228.167 79.9483 91.0467 80.7283 87.8267 81.9883ZM208.427 152.168C208.061 151.102 207.359 150.183 206.427 149.548C207.464 147.899 208.024 145.996 208.047 144.048H209.127L210.627 152.048L208.427 152.168ZM206.747 137.508C207.089 137.233 207.404 136.924 207.687 136.588C208.167 138.728 208.567 140.868 208.967 143.008H208.007C208.105 141.094 207.669 139.189 206.747 137.508ZM220.427 151.648L211.227 152.048C210.987 149.348 210.467 146.688 209.987 144.048C212.862 144.144 215.74 144.07 218.607 143.828C219.207 146.408 219.827 149.048 220.427 151.648ZM218.427 142.908H209.827L208.387 135.408L216.687 135.168L218.427 142.908ZM216.427 134.308L208.607 134.548C208.757 133.6 208.689 132.63 208.409 131.711C208.128 130.793 207.642 129.951 206.987 129.248C206.867 128.648 206.747 128.028 206.587 127.408L214.827 127.228L216.427 134.308ZM213.367 120.028C213.807 122.028 214.207 124.168 214.607 126.248L206.387 126.388C205.967 124.285 205.426 122.209 204.767 120.168L213.367 120.028ZM205.807 128.508C204.833 128.066 203.733 127.988 202.707 128.288C202.798 128.041 202.872 127.787 202.927 127.528H205.567L205.807 128.508ZM203.807 120.188C204.182 122.288 204.676 124.365 205.287 126.408H203.067C203.296 124.192 202.682 121.972 201.347 120.188H203.807ZM155.387 121.048H159.247C158.432 122.308 158.144 123.838 158.447 125.308L155.047 126.288C155.207 124.568 155.387 122.648 155.387 121.048ZM154.307 121.048V126.628C153.968 126.83 153.641 127.05 153.327 127.288L143.867 127.448C143.954 125.373 143.894 123.295 143.687 121.228L154.307 121.048ZM150.107 135.548H143.807V128.548L152.007 128.408C151.139 129.358 150.514 130.503 150.183 131.746C149.852 132.989 149.826 134.293 150.107 135.548ZM143.847 144.808H149.307C149.384 146.553 150.03 148.225 151.147 149.568C150.487 150.025 149.956 150.644 149.606 151.366C149.255 152.087 149.097 152.887 149.147 153.688H143.747C143.807 150.688 143.847 147.748 143.847 144.808ZM149.847 142.388C149.671 142.806 149.544 143.242 149.467 143.688H143.947V136.468H150.407C150.841 137.662 151.621 138.699 152.647 139.448C151.397 140.095 150.388 141.126 149.767 142.388H149.847ZM143.147 153.668H118.367C118.627 150.228 118.367 148.068 120.587 145.108L142.927 144.848C142.907 147.788 142.967 150.728 143.067 153.668H143.147ZM121.407 144.008C123.488 141.904 125.061 139.353 126.007 136.548H131.007V143.888L121.407 144.008ZM132.287 121.448L142.767 121.268C142.654 123.34 142.654 125.416 142.767 127.488L132.227 127.668C132.227 125.608 132.247 123.528 132.287 121.448ZM132.147 128.768L142.727 128.588V135.588H132.007C132.007 133.308 132.007 131.048 132.147 128.768ZM132.007 136.528H142.827V143.748L131.567 143.888C131.727 141.428 131.847 139.048 132.007 136.528ZM122.007 121.628L131.587 121.468L131.367 127.688L121.607 127.848C121.844 125.784 121.918 123.704 121.827 121.628H122.007ZM121.527 128.928L131.347 128.768L131.167 135.568H126.267C126.507 134.468 126.947 132.668 125.647 132.068C124.347 131.468 123.107 134.468 120.707 135.548C120.927 133.348 121.127 131.148 121.347 128.948L121.527 128.928ZM112.967 121.788L121.227 121.648C120.941 123.711 120.761 125.787 120.687 127.868H120.007C120.867 125.768 116.227 124.408 112.227 127.868C112.287 126.848 112.847 122.468 112.787 121.788H112.967ZM120.427 129.048C120.287 131.228 120.167 133.388 120.027 135.568H116.907C116.307 133.808 116.907 129.668 118.507 129.048H120.387H120.427ZM111.767 121.848L111.447 128.048H107.707C106.227 124.968 107.167 122.628 105.707 121.888L111.767 121.848ZM110.967 129.168C110.506 129.746 110.116 130.377 109.807 131.048L108.327 129.228L110.967 129.168ZM98.1867 122.108L104.607 121.988C102.607 122.948 102.307 126.348 102.307 128.208H99.2867C98.2667 127.328 97.8267 128.208 97.0667 128.208L98.1467 121.988L98.1867 122.108ZM102.627 132.268C101.517 131.528 100.615 130.516 100.007 129.328H102.267C102.291 130.314 102.384 131.296 102.547 132.268H102.627ZM96.0067 135.268L96.9667 129.388C96.7663 131.418 97.019 133.468 97.7067 135.388L96.0067 135.268ZM98.0067 136.248C98.8267 138.988 100.007 141.488 100.567 144.248L94.5667 144.368L95.7667 136.228L98.0067 136.248ZM90.7467 122.128H97.3067C96.9268 124.128 96.5667 126.288 96.2067 128.388C94.0267 128.388 91.8267 128.508 89.6467 128.608C90.1177 126.471 90.4584 124.307 90.6667 122.128H90.7467ZM89.5067 129.428H96.0067C95.7067 131.428 95.3867 133.428 95.0667 135.288H88.3667C88.7067 133.288 89.0667 131.348 89.4267 129.428H89.5067ZM88.2867 135.988C90.4867 136.108 92.6867 136.168 94.8867 136.208C94.5067 138.908 94.0667 141.648 93.7067 144.368C91.3667 144.368 89.0267 144.528 86.6867 144.628C87.2267 141.748 87.7467 138.868 88.2867 135.988ZM92.7867 153.328H85.0667C85.5667 150.648 86.0867 147.988 86.6267 145.328L93.5667 145.508C93.1448 148.098 92.8578 150.708 92.7067 153.328H92.7867ZM93.3467 153.328L94.5267 145.328H100.747C100.807 145.86 100.807 146.397 100.747 146.928L95.1267 153.348L93.3467 153.328ZM79.7267 214.788C77.3875 220.118 76.2181 225.888 76.2974 231.708C76.3768 237.528 77.703 243.264 80.1867 248.528C60.8267 235.448 64.9467 206.528 73.1867 188.048C79.9267 172.908 90.6067 160.048 101.547 147.708C103.147 145.888 97.9667 133.708 97.7867 130.728C97.6667 128.508 98.5867 128.048 99.4067 129.628C100.227 131.208 101.407 133.008 103.027 133.388C103.667 135.268 104.167 134.668 104.087 134.368C103.407 131.068 102.227 126.368 104.427 123.328C106.027 121.208 105.967 125.108 106.127 125.868C106.507 127.688 108.127 131.208 109.587 131.868C109.087 133.288 109.927 132.788 109.987 132.608C112.827 125.148 121.507 126.208 118.707 128.048C117.968 128.489 117.341 129.093 116.873 129.814C116.405 130.536 116.109 131.355 116.007 132.208C114.987 139.268 120.547 138.208 124.587 133.288C126.267 131.288 126.347 135.588 123.687 139.928C121.427 143.608 118.367 144.928 118.007 149.748C117.007 161.528 114.587 175.588 112.967 185.948C99.6867 192.368 86.1067 201.048 79.6467 214.808L79.7267 214.788ZM114.007 185.408C115.96 175.239 117.355 164.97 118.187 154.648H149.207C150.367 161.348 158.687 162.248 160.027 172.648C144.064 174.209 128.494 178.526 114.007 185.408ZM198.447 169.268C197.949 170.841 197.627 172.464 197.487 174.108C196.687 182.588 193.087 185.408 183.667 186.108C173.667 186.928 162.827 183.768 161.307 172.988C159.967 163.388 156.887 164.228 151.947 157.508C150.467 155.508 149.147 151.788 151.947 150.228C153.322 151.739 155.045 152.893 156.967 153.588C161.287 163.288 162.747 174.468 175.307 175.708C199.587 177.968 194.147 164.748 201.847 153.208C203.344 152.516 204.7 151.553 205.847 150.368C206.72 151.098 207.323 152.1 207.558 153.214C207.794 154.327 207.649 155.487 207.147 156.508C205.187 161.248 200.467 163.048 198.447 169.268ZM248.007 124.408C248.687 125.928 249.387 127.428 250.007 128.948C249.027 127.688 244.227 122.448 242.627 125.248C241.807 126.708 243.527 128.888 244.227 130.188C241.542 130.664 239.143 132.153 237.527 134.348C234.967 125.048 244.007 120.408 248.007 124.408ZM238.967 138.028C238.587 137.088 238.187 136.128 237.787 135.188C239.542 133.133 241.9 131.685 244.527 131.048C245.652 133.371 246.382 135.865 246.687 138.428C247.227 143.548 243.307 139.888 241.407 138.128C240.667 137.368 239.427 137.048 238.867 138.028H238.967ZM282.267 252.848C288.887 243.568 289.167 231.588 285.327 221.108C279.887 206.288 266.947 195.908 253.327 188.648C250.708 176.554 249.01 164.279 248.247 151.928C248.247 150.048 241.887 148.768 239.907 141.388C239.547 140.048 238.807 136.528 241.227 139.048C243.647 141.568 247.767 143.888 247.587 138.368C247.347 131.828 242.907 127.468 243.307 125.988C243.807 124.128 247.507 127.628 248.107 128.228C249.67 129.948 251.088 131.794 252.347 133.748C252.567 134.068 253.107 133.748 252.907 133.448C252.44 132.648 251.96 131.848 251.467 131.048C251.787 130.368 248.187 124.008 248.827 123.408C249.467 122.808 252.347 124.888 252.987 125.408C256.327 128.308 256.487 130.248 257.627 131.748C257.678 131.767 257.735 131.767 257.787 131.748C257.858 131.754 257.929 131.732 257.984 131.688C258.04 131.643 258.077 131.579 258.087 131.508C257.967 130.228 257.227 129.508 256.867 128.628C256.507 127.748 255.767 125.768 256.267 125.068C256.507 124.868 257.887 125.888 258.047 126.048C259.366 127.312 260.468 128.785 261.307 130.408C267.427 140.868 265.587 147.608 266.627 148.628C281.807 165.728 298.027 190.768 301.307 213.368C303.527 229.048 298.587 247.328 282.167 252.848H282.267Z" fill="black"/>
<path d="M137.207 35.0483C137.667 34.9083 137.487 34.2483 137.067 34.1883C129.787 34.3283 122.047 34.1883 114.867 34.3883C114.307 34.3883 114.387 35.2483 114.867 35.3283C118.547 35.9283 134.007 36.0283 137.207 35.0483ZM328.147 142.008C330.867 140.828 344.147 135.468 345.727 134.568C345.757 134.542 345.78 134.51 345.797 134.474C345.813 134.437 345.822 134.398 345.822 134.358C345.822 134.319 345.813 134.279 345.797 134.243C345.78 134.207 345.757 134.175 345.727 134.148C345.694 134.1 345.649 134.061 345.596 134.037C345.543 134.012 345.485 134.002 345.427 134.008C342.067 134.708 331.187 139.888 327.807 141.568C327.627 141.708 327.867 142.128 328.147 142.008ZM194.007 95.0483L151.607 95.6883C153.427 116.248 194.547 116.568 194.007 95.0483ZM194.007 51.0483C194.007 51.1351 194.04 51.2187 194.099 51.2819C194.159 51.3451 194.24 51.3832 194.327 51.3883C201.107 51.5483 215.447 51.9683 220.867 51.2283C221.307 51.2283 221.167 50.4883 220.867 50.4883C213.207 50.4883 202.147 50.4883 194.427 50.7083C194.376 50.696 194.323 50.6956 194.272 50.707C194.221 50.7185 194.173 50.7416 194.133 50.7745C194.092 50.8074 194.06 50.8492 194.038 50.8967C194.016 50.9442 194.005 50.9961 194.007 51.0483ZM136.007 21.0483C136.567 21.0483 136.327 20.2483 135.867 20.1683C122.087 20.5683 107.087 20.8683 93.6468 21.1683C93.6018 21.1755 93.5588 21.1917 93.5202 21.2159C93.4816 21.2401 93.4482 21.2717 93.4221 21.309C93.396 21.3464 93.3776 21.3885 93.3681 21.4331C93.3586 21.4776 93.3582 21.5236 93.3668 21.5683C93.3784 21.6384 93.4116 21.7031 93.4618 21.7533C93.512 21.8035 93.5767 21.8367 93.6468 21.8483C103.427 22.5483 123.307 21.4883 136.007 21.0483ZM143.707 16.4683C144.167 16.4683 144.307 15.6683 143.707 15.6083C139.227 15.0683 95.0468 15.7883 91.9668 16.4683C91.6668 16.4683 91.6868 17.0683 91.9668 17.0683C103.307 17.0483 130.487 16.2683 143.707 16.4683ZM56.7668 159.328V159.308V159.328ZM57.6068 159.668C59.1476 156.818 60.3299 153.789 61.1268 150.648C61.4992 149.569 61.5843 148.412 61.3739 147.289C61.1635 146.167 60.6648 145.119 59.9268 144.248C60.6527 142.422 61.026 140.474 61.0268 138.508C60.6268 135.248 57.1668 135.448 55.3068 137.948C47.8068 147.948 39.5268 163.948 39.7668 176.248C39.6268 176.828 39.9268 177.488 40.4468 177.008C49.3261 168.211 55.8941 157.356 59.5668 145.408C62.0668 149.128 58.2068 155.548 56.7668 159.308C56.5868 159.808 57.3468 160.108 57.6068 159.668ZM40.5268 175.428C40.6735 173.209 40.9809 171.003 41.4468 168.828L44.5268 171.048C43.2268 172.488 41.8868 173.988 40.5268 175.428ZM59.1068 143.428C57.7524 142.292 56.1259 141.527 54.3868 141.208C55.055 139.988 55.8602 138.847 56.7868 137.808C57.6868 136.968 59.4068 136.628 59.9268 138.048C60.1033 139.869 59.8214 141.705 59.1068 143.388V143.428ZM110.007 41.5483C109.127 41.9083 104.007 49.5483 103.067 50.8883C101.903 49.342 100.56 47.9389 99.0668 46.7083C98.9834 46.6696 98.8888 46.6625 98.8005 46.6882C98.7122 46.714 98.6363 46.7709 98.5868 46.8483C98.5576 46.9257 98.5576 47.011 98.5868 47.0883C99.7272 48.9557 101.069 50.6927 102.587 52.2683C102.641 52.3284 102.708 52.3764 102.782 52.4093C102.856 52.4421 102.936 52.4591 103.017 52.4591C103.098 52.4591 103.178 52.4421 103.252 52.4093C103.326 52.3764 103.392 52.3284 103.447 52.2683V52.1683L110.007 43.2083C110.927 41.9083 110.667 41.2083 110.007 41.5483ZM230.007 31.0483C230.427 31.0483 230.507 30.2483 230.007 30.1883C217.528 29.5677 205.022 29.7481 192.567 30.7283C192.147 30.7283 192.187 31.4683 192.567 31.4483C202.007 31.3683 219.707 31.6683 230.007 31.0483Z" fill="black"/>
<path d="M110.007 53.6683C110.807 53.3483 109.207 47.3883 108.987 46.4483C108.98 46.4062 108.965 46.3659 108.943 46.3296C108.921 46.2933 108.892 46.2617 108.857 46.2366C108.823 46.2116 108.784 46.1935 108.743 46.1835C108.701 46.1735 108.659 46.1717 108.617 46.1783C108.575 46.1848 108.534 46.1996 108.498 46.2217C108.462 46.2439 108.43 46.273 108.405 46.3073C108.38 46.3417 108.362 46.3807 108.352 46.422C108.342 46.4633 108.34 46.5062 108.347 46.5483C108.587 48.6883 108.827 50.8483 109.227 52.9483C105.887 53.2083 102.867 53.1883 99.6065 53.3283C99.0065 50.7283 98.4865 47.3283 97.6065 44.7483C100.122 44.9597 102.651 44.9597 105.167 44.7483C106.827 44.7483 106.707 43.7083 105.287 43.7283C104.447 43.7283 97.2865 43.5883 97.2865 44.4483C96.3465 44.4483 98.3265 52.8283 98.4465 53.3883C98.4672 53.4879 98.519 53.5785 98.5945 53.6468C98.67 53.7151 98.7653 53.7576 98.8665 53.7683C99.1065 54.8083 109.627 54.6483 110.007 53.6683ZM231.127 46.6483C231.109 46.5705 231.066 46.5009 231.004 46.4502C230.943 46.3995 230.866 46.3707 230.787 46.3683C218.667 46.0483 205.707 46.6283 193.427 46.6083C193.067 46.6083 193.047 47.2083 193.427 47.2483C204.187 47.9683 220.827 48.4083 230.867 47.0883C230.957 47.0604 231.033 46.9998 231.082 46.9185C231.13 46.8371 231.146 46.7408 231.127 46.6483ZM99.1465 39.2083C101.952 39.2865 104.76 39.1595 107.547 38.8283C109.287 39.2683 106.627 28.3483 106.307 27.8483C106.264 27.754 106.193 27.6759 106.103 27.6255C106.013 27.575 105.909 27.555 105.807 27.5683C104.007 27.5683 95.6465 27.5683 94.4665 27.8283C93.0265 26.6683 95.1265 36.5283 95.4265 37.7083C96.0065 39.6883 97.2865 39.2083 99.1465 39.2083ZM94.7065 28.5083C98.3968 28.9589 102.125 29.0126 105.827 28.6683L107.107 37.9083L96.6265 38.4483C96.7066 37.7683 94.9465 29.8283 94.7065 28.5083ZM221.647 35.2483C221.753 35.2483 221.854 35.2061 221.929 35.1311C222.004 35.0561 222.047 34.9543 222.047 34.8483C222.047 34.7422 222.004 34.6404 221.929 34.5654C221.854 34.4904 221.753 34.4483 221.647 34.4483C219.167 33.9483 197.847 34.7083 193.427 35.0883C193.087 35.0883 193.087 35.6683 193.427 35.6883C195.827 35.7883 219.267 35.8483 221.647 35.2483ZM53.7065 98.6883C54.0865 98.6883 56.9065 97.0883 57.5665 99.6883C58.4865 103.248 62.0865 101.108 62.6665 98.3883C63.4065 95.0283 60.2065 92.3883 56.4265 92.3883C48.7465 92.3883 50.5065 99.0483 53.7065 98.6883ZM56.4265 93.1683C60.7465 93.3083 63.4065 97.3883 60.7865 99.7883C58.5465 101.788 58.7865 98.9083 57.7065 97.7883C55.5465 95.7883 53.8265 98.2083 52.6065 97.1883C50.1065 95.1883 54.8865 93.0482 56.4265 93.1683ZM103.267 60.5883C100.127 60.5883 100.007 60.0683 100.407 63.1283C100.527 63.9883 101.147 70.0683 102.187 70.1283C102.407 71.0883 111.387 70.7483 112.527 70.4083C114.067 70.4083 112.527 65.6683 112.527 65.1283C111.207 58.1683 112.847 60.3283 103.267 60.5883ZM102.687 69.6683C102.187 67.1483 101.807 63.8083 101.087 61.4083C104.361 61.7283 107.664 61.6072 110.907 61.0483C111.11 63.8329 111.545 66.5957 112.207 69.3083C109.087 69.4482 105.847 69.6082 102.687 69.6683ZM234.267 15.2883C230.587 14.9483 177.587 15.2883 170.867 15.8083C170.78 15.823 170.702 15.8709 170.65 15.9417C170.598 16.0126 170.575 16.101 170.587 16.1883C170.601 16.2572 170.635 16.3204 170.685 16.3702C170.734 16.42 170.798 16.4541 170.867 16.4683C176.567 16.7683 230.187 16.6283 234.267 16.1683C234.383 16.1683 234.495 16.1219 234.578 16.0394C234.66 15.9569 234.707 15.845 234.707 15.7283C234.707 15.6116 234.66 15.4996 234.578 15.4171C234.495 15.3346 234.383 15.2883 234.267 15.2883ZM144.007 29.9883C144.467 29.8883 144.307 29.2683 143.907 29.1883L113.527 29.9483C113.482 29.953 113.44 29.9668 113.401 29.9889C113.363 30.011 113.329 30.0409 113.303 30.0766C113.277 30.1124 113.258 30.1532 113.248 30.1965C113.239 30.2398 113.238 30.2847 113.247 30.3283C113.258 30.3983 113.291 30.463 113.342 30.5132C113.392 30.5634 113.456 30.5967 113.527 30.6083C121.147 31.1683 137.387 31.3283 144.007 29.9883ZM264.467 86.2083C264.607 87.7283 266.127 102.888 266.687 103.988C270.687 111.788 285.407 111.988 285.727 100.448C286.287 95.6482 288.227 81.8682 287.467 78.4482C287.687 77.3283 288.847 72.4483 289.067 69.8683C289.067 69.4483 289.867 58.0283 288.267 59.7683C286.131 62.6114 284.238 65.6287 282.607 68.7883C282.327 70.0083 282.047 71.2083 281.747 72.4083C280.862 72.0746 279.943 71.8398 279.007 71.7083C279.007 70.8883 278.407 66.8883 278.127 65.2883C276.747 62.6083 275.327 60.2083 274.127 57.4283C272.427 53.2483 272.387 53.1683 271.907 57.7683C271.105 62.4542 271.105 67.2423 271.907 71.9283C262.847 73.8083 263.787 79.1483 264.447 86.2083H264.467ZM286.347 64.2083C286.591 64.4449 286.884 64.6263 287.205 64.7402C287.526 64.854 287.867 64.8977 288.207 64.8683V69.9083C287.364 69.99 286.513 69.9011 285.706 69.6468C284.898 69.3925 284.15 68.9781 283.507 68.4283C284.487 67.0483 285.507 65.6283 286.347 64.2083ZM283.467 69.4683C284.791 70.4101 286.381 70.9073 288.007 70.8883C287.347 74.6083 286.687 78.3083 286.167 82.0483C285.487 84.4883 282.167 85.3682 280.007 85.6683C281.327 80.3883 282.327 74.7083 283.467 69.4083V69.4683ZM279.467 84.2282C279.369 84.7304 279.302 85.238 279.267 85.7483L274.387 85.8683L272.387 67.0283C273.291 67.3013 274.248 67.3493 275.176 67.168C276.103 66.9868 276.972 66.5818 277.707 65.9883C277.707 65.9883 279.007 83.9283 279.467 84.1683V84.2282ZM272.627 60.6283C272.933 60.7083 273.253 60.7247 273.566 60.6766C273.879 60.6284 274.178 60.5167 274.447 60.3483L277.187 65.2683C276.468 65.8034 275.636 66.165 274.755 66.3246C273.873 66.4843 272.967 66.4376 272.107 66.1883C272.072 64.3015 272.246 62.4167 272.627 60.5683V60.6283ZM286.487 83.6683C286.127 88.7083 285.487 99.3483 284.187 104.108C281.887 110.288 271.867 110.388 267.447 104.108C266.607 97.1683 265.767 90.1083 264.947 83.2683C268.687 88.6883 283.227 88.0283 286.487 83.6083V83.6683Z" fill="black"/>
<path d="M17.6259 105.708C20.67 107.298 23.8836 108.539 27.2059 109.408C20.8259 118.188 39.0859 130.708 55.7859 124.028C63.4459 120.968 71.1059 111.248 63.6059 104.508C71.6059 98.0482 74.4259 88.7282 74.0859 78.5082C73.5659 62.7482 66.6059 51.1482 50.6659 47.4082C42.8129 45.5705 34.5836 46.2062 27.1059 49.2282L24.0059 43.8682C24.9859 43.3482 26.0059 42.8482 27.0059 42.4082C29.6459 41.5082 28.8459 39.5682 27.2859 40.1482C-3.35406 51.3282 -10.4341 91.6282 17.6259 105.708ZM27.4459 108.008C26.8859 106.008 28.3859 104.008 27.6859 101.828C26.0859 96.6482 19.3859 99.6482 17.6859 96.1482C15.8259 92.3282 20.7859 91.6682 21.7859 88.9282C21.9628 88.4486 22.0078 87.9302 21.9164 87.4272C21.8249 86.9242 21.6003 86.455 21.2659 86.0682C18.3859 82.4682 11.7259 86.2682 13.6259 77.8682C15.0659 71.5282 21.1859 68.5282 25.6259 71.3282C30.0659 74.1282 32.7259 76.0082 38.3459 72.7282C47.7059 67.2282 46.5459 78.7282 43.6859 82.2082C42.1659 84.0882 39.4059 83.9882 37.2859 84.7882C30.3659 87.3882 30.4059 92.0482 35.8859 93.1882C38.0059 93.6282 40.7259 93.4282 42.3859 95.0282C46.8859 99.4082 37.5859 108.768 34.6459 110.308C33.0659 109.988 28.2459 109.048 27.4459 108.008ZM52.8259 49.1682C64.6059 52.8282 70.8259 61.3482 72.5059 73.5282C73.3045 78.7847 73.1077 84.1444 71.9259 89.3282C71.4459 89.9882 64.6859 91.8482 62.5059 89.0482C61.6643 87.9165 61.1023 86.6018 60.866 85.2114C60.6296 83.821 60.7255 82.3945 61.1459 81.0482C62.4459 77.6882 66.8659 74.7282 65.5059 71.2882C63.6259 66.5282 58.1259 73.0282 55.8059 71.6882C52.3259 69.6882 58.8459 65.8482 51.4059 64.4682C48.6659 63.9682 46.4259 65.0882 44.4059 62.0682C39.7859 55.1482 51.8059 49.1482 52.8259 49.1082V49.1682ZM30.0059 58.0282C30.0922 58.1646 30.223 58.2669 30.376 58.3179C30.5291 58.3689 30.6951 58.3655 30.8459 58.3082C31.0192 58.237 31.1579 58.1011 31.2325 57.9294C31.3072 57.7576 31.312 57.5635 31.2459 57.3882L27.6059 50.2882C35.0241 47.3137 43.1913 46.7538 50.9459 48.6882C40.9459 51.9882 39.7659 63.2682 46.9459 65.2082C48.4659 65.6282 55.2659 65.0282 54.0859 67.9282C53.8464 68.3987 53.7121 68.9156 53.6923 69.4432C53.6725 69.9707 53.7677 70.4963 53.9713 70.9834C54.1749 71.4705 54.482 71.9074 54.8713 72.264C55.2607 72.6205 55.7229 72.8881 56.2259 73.0482C59.0259 73.5482 62.0259 69.3282 64.0859 71.0482C67.6859 74.0482 58.2859 78.6882 59.8859 85.3682C61.0859 90.4882 63.2059 92.1082 68.4059 91.3682C69.545 91.2702 70.6498 90.9292 71.6459 90.3682C67.3459 105.428 51.2659 112.368 36.5659 110.548C39.5259 107.828 44.1259 102.428 44.5659 98.5482C45.2459 91.6682 37.3459 93.0482 34.4459 91.5282C30.4459 89.5282 36.1659 86.0482 39.8259 85.2482C41.0253 85.0508 42.1861 84.6661 43.2659 84.1082C49.2659 80.4282 47.6059 65.6282 38.9059 71.0882C31.4659 75.7482 29.1659 71.7882 25.7059 70.0082C20.1659 67.1882 12.5659 71.6282 12.1859 80.0082C11.9659 85.7082 16.6659 84.4882 19.4059 86.0082C19.897 86.1924 20.307 86.5445 20.5633 87.0021C20.8195 87.4597 20.9055 87.9933 20.8059 88.5082C20.1659 90.5082 17.2659 90.9082 16.4659 93.3282C16.1496 94.2721 16.1612 95.2951 16.4987 96.2316C16.8363 97.1681 17.4801 97.9633 18.3259 98.4882C20.9459 100.008 25.5859 98.6882 26.6859 102.308C27.2259 104.068 26.1659 105.868 26.2859 107.648C21.1832 105.814 16.69 102.599 13.307 98.3617C9.924 94.1242 7.78416 89.0305 7.12594 83.6482C5.32594 70.0482 13.6259 56.8282 25.8259 51.0482C27.0859 53.3682 28.6659 55.7682 30.0059 58.0282ZM12.0059 52.6882C15.0083 49.5749 18.4681 46.9379 22.2659 44.8682C23.3807 46.5785 24.4022 48.3477 25.3259 50.1682C19.049 53.0844 13.825 57.8667 10.3672 63.8623C6.9094 69.858 5.38634 76.7747 6.00594 83.6682C6.42287 87.6193 7.6613 91.4396 9.64175 94.8839C11.6222 98.3281 14.3009 101.32 17.5059 103.668C-1.61406 93.0482 -2.41406 68.0082 12.0059 52.6882ZM225.466 66.7882C223.746 66.4082 198.026 66.2882 194.386 66.7882C194.296 66.7882 194.209 66.8241 194.146 66.8878C194.082 66.9516 194.046 67.0381 194.046 67.1282C194.046 67.2184 194.082 67.3049 194.146 67.3686C194.209 67.4324 194.296 67.4682 194.386 67.4682C195.766 67.6682 222.646 68.1282 225.466 67.4682C225.559 67.4475 225.643 67.3956 225.702 67.321C225.762 67.2465 225.795 67.1538 225.795 67.0582C225.795 66.9627 225.762 66.87 225.702 66.7954C225.643 66.7209 225.559 66.669 225.466 66.6482V66.7882ZM234.006 20.7882C214.706 21.0082 189.766 20.3482 172.366 20.7882C171.886 20.7882 171.926 21.4682 172.366 21.5082C179.666 22.3082 228.126 22.2482 234.006 21.5082C234.063 21.5034 234.119 21.4869 234.169 21.4597C234.22 21.4326 234.264 21.3954 234.3 21.3504C234.335 21.3054 234.361 21.2537 234.376 21.1982C234.391 21.1428 234.394 21.085 234.386 21.0282C234.354 20.9548 234.301 20.8926 234.233 20.8498C234.165 20.807 234.086 20.7856 234.006 20.7882ZM231.866 62.4482C220.166 62.1882 205.546 62.9082 193.086 62.5882C192.726 62.5882 192.646 63.1082 193.086 63.1482C200.746 63.9082 224.726 64.6682 231.946 63.2682C232.326 63.1682 232.366 62.4482 231.866 62.4482Z" fill="black"/>
</svg>
