<svg width="25" height="25" viewBox="0 0 25 25" fill="none" xmlns="http://www.w3.org/2000/svg">
<path d="M24.2388 6.34888L18.6525 0.762626C18.49 0.600105 18.2971 0.471185 18.0847 0.383228C17.8724 0.295271 17.6448 0.25 17.415 0.25C17.1852 0.25 16.9576 0.295271 16.7453 0.383228C16.5329 0.471185 16.34 0.600105 16.1775 0.762626L0.762503 16.1764C0.599671 16.3386 0.470557 16.5315 0.382599 16.7439C0.294641 16.9563 0.249576 17.184 0.250003 17.4139V23.0001C0.250003 23.4643 0.434378 23.9094 0.762566 24.2376C1.09075 24.5658 1.53587 24.7501 2 24.7501H23C23.1989 24.7501 23.3897 24.6711 23.5303 24.5305C23.671 24.3898 23.75 24.199 23.75 24.0001C23.75 23.8012 23.671 23.6104 23.5303 23.4698C23.3897 23.3291 23.1989 23.2501 23 23.2501H9.81125L24.2388 8.82388C24.4013 8.66137 24.5302 8.46844 24.6182 8.25611C24.7061 8.04378 24.7514 7.8162 24.7514 7.58638C24.7514 7.35655 24.7061 7.12897 24.6182 6.91664C24.5302 6.70431 24.4013 6.51138 24.2388 6.34888ZM7.69 23.2501H2C1.9337 23.2501 1.87011 23.2238 1.82323 23.1769C1.77634 23.13 1.75 23.0664 1.75 23.0001V17.4139C1.75028 17.3477 1.7768 17.2843 1.82375 17.2376L13 6.06138L18.94 12.0001L7.69 23.2501ZM23.1775 7.76263L20 10.9401L14.0613 5.00013L17.2375 1.82388C17.2607 1.80063 17.2883 1.78219 17.3186 1.76961C17.349 1.75703 17.3815 1.75055 17.4144 1.75055C17.4472 1.75055 17.4798 1.75703 17.5101 1.76961C17.5405 1.78219 17.568 1.80063 17.5913 1.82388L23.1775 7.40888C23.2007 7.43209 23.2192 7.45967 23.2318 7.49002C23.2444 7.52037 23.2508 7.5529 23.2508 7.58575C23.2508 7.6186 23.2444 7.65114 23.2318 7.68149C23.2192 7.71184 23.2007 7.73941 23.1775 7.76263Z" fill="#004737"/>
</svg>
