<svg width="26" height="22" viewBox="0 0 26 22" fill="none" xmlns="http://www.w3.org/2000/svg">
<path d="M25.53 7.52985L19.53 13.5298C19.3878 13.6623 19.1998 13.7344 19.0055 13.731C18.8112 13.7276 18.6258 13.6489 18.4884 13.5115C18.351 13.3741 18.2723 13.1887 18.2688 12.9944C18.2654 12.8001 18.3375 12.612 18.47 12.4698L23.1887 7.74985H17.625C15.13 7.74778 12.7052 8.57574 10.7325 10.1033C8.75978 11.6309 7.35125 13.7712 6.72875 16.1873C6.67902 16.38 6.55481 16.5449 6.38345 16.646C6.21209 16.747 6.00761 16.7758 5.815 16.7261C5.62239 16.6764 5.45742 16.5522 5.35638 16.3808C5.25535 16.2094 5.22652 16.005 5.27625 15.8123C5.98189 13.0742 7.57821 10.6486 9.81385 8.91741C12.0495 7.1862 14.7974 6.24775 17.625 6.24985H23.1912L18.47 1.52985C18.3375 1.38767 18.2654 1.19963 18.2688 1.00532C18.2723 0.811023 18.351 0.625638 18.4884 0.488225C18.6258 0.350812 18.8112 0.2721 19.0055 0.268672C19.1998 0.265243 19.3878 0.337366 19.53 0.469846L25.53 6.46985C25.6705 6.61047 25.7493 6.8011 25.7493 6.99985C25.7493 7.1986 25.6705 7.38922 25.53 7.52985ZM21 20.2498H2C1.9337 20.2498 1.87011 20.2235 1.82322 20.1766C1.77634 20.1297 1.75 20.0662 1.75 19.9998V4.99985C1.75 4.80093 1.67098 4.61017 1.53033 4.46952C1.38968 4.32886 1.19891 4.24985 1 4.24985C0.801088 4.24985 0.610322 4.32886 0.46967 4.46952C0.329018 4.61017 0.25 4.80093 0.25 4.99985V19.9998C0.25 20.464 0.434375 20.9091 0.762563 21.2373C1.09075 21.5655 1.53587 21.7498 2 21.7498H21C21.1989 21.7498 21.3897 21.6708 21.5303 21.5302C21.671 21.3895 21.75 21.1988 21.75 20.9998C21.75 20.8009 21.671 20.6102 21.5303 20.4695C21.3897 20.3289 21.1989 20.2498 21 20.2498Z" fill="white"/>
</svg>
