<svg width="26" height="26" viewBox="0 0 26 26" fill="none" xmlns="http://www.w3.org/2000/svg">
<path d="M25.5303 24.4703L19.1078 18.0478C20.9393 15.9416 21.8815 13.2066 21.7357 10.4193C21.5899 7.63198 20.3677 5.01014 18.3265 3.10644C16.2854 1.20275 13.5848 0.165921 10.7941 0.214525C8.00342 0.26313 5.34061 1.39337 3.36699 3.36699C1.39337 5.34061 0.26313 8.00342 0.214525 10.7941C0.165921 13.5848 1.20275 16.2854 3.10644 18.3265C5.01014 20.3677 7.63198 21.5899 10.4193 21.7357C13.2066 21.8815 15.9416 20.9393 18.0478 19.1078L24.4703 25.5303C24.6125 25.6628 24.8006 25.7349 24.9949 25.7315C25.1892 25.7281 25.3745 25.6494 25.512 25.512C25.6494 25.3745 25.7281 25.1892 25.7315 24.9949C25.7349 24.8006 25.6628 24.6125 25.5303 24.4703ZM1.75033 11.0003C1.75033 9.17085 2.29283 7.38246 3.30924 5.86131C4.32564 4.34015 5.77029 3.15456 7.46051 2.45445C9.15073 1.75434 11.0106 1.57115 12.8049 1.92807C14.5992 2.28498 16.2474 3.16596 17.5411 4.45959C18.8347 5.75323 19.7157 7.40142 20.0726 9.19575C20.4295 10.9901 20.2463 12.8499 19.5462 14.5402C18.8461 16.2304 17.6605 17.675 16.1394 18.6914C14.6182 19.7078 12.8298 20.2503 11.0003 20.2503C8.54799 20.2474 6.19695 19.2718 4.46288 17.5378C2.72882 15.8037 1.75331 13.4527 1.75033 11.0003Z" fill="white"/>
</svg>
