<svg width="32" height="32" viewBox="0 0 32 32" fill="none" xmlns="http://www.w3.org/2000/svg">
<path d="M28.6508 20.6248C28.7503 20.7975 28.777 21.0027 28.7252 21.1951C28.6734 21.3876 28.5473 21.5516 28.3745 21.6511C28.2018 21.7505 27.9967 21.7773 27.8042 21.7255C27.6118 21.6737 27.4478 21.5475 27.3483 21.3748L24.8483 16.9898C23.37 18.0262 21.7193 18.7918 19.9733 19.251L20.7445 23.876C20.7608 23.9732 20.7578 24.0727 20.7357 24.1687C20.7135 24.2647 20.6726 24.3554 20.6154 24.4356C20.5582 24.5158 20.4857 24.584 20.4021 24.6362C20.3185 24.6884 20.2255 24.7236 20.1283 24.7398C20.0869 24.7462 20.0452 24.7495 20.0033 24.7498C19.8262 24.7496 19.6549 24.6868 19.5196 24.5724C19.3844 24.458 19.2941 24.2994 19.2645 24.1248L18.4995 19.5548C16.843 19.8151 15.1561 19.8151 13.4995 19.5548L12.7395 24.1248C12.71 24.2996 12.6194 24.4584 12.484 24.5728C12.3485 24.6872 12.1769 24.7499 11.9995 24.7498C11.9577 24.7495 11.9159 24.7462 11.8745 24.7398C11.7773 24.7234 11.6843 24.6881 11.6008 24.6357C11.5173 24.5834 11.4449 24.5151 11.3877 24.4348C11.3306 24.3544 11.2899 24.2636 11.2679 24.1676C11.2459 24.0715 11.2431 23.972 11.2595 23.8748L12.0308 19.2498C10.2848 18.7906 8.63413 18.0249 7.1558 16.9886L4.6508 21.3748C4.55134 21.5475 4.38735 21.6737 4.19489 21.7255C4.00243 21.7773 3.79727 21.7505 3.62455 21.6511C3.45183 21.5516 3.32569 21.3876 3.27388 21.1951C3.22207 21.0027 3.24884 20.7975 3.3483 20.6248L5.95455 16.0648C5.02735 15.2824 4.17722 14.413 3.4158 13.4686C3.29082 13.3137 3.23245 13.1156 3.25355 12.9178C3.27465 12.7199 3.37348 12.5385 3.5283 12.4135C3.68312 12.2886 3.88125 12.2302 4.0791 12.2513C4.27695 12.2724 4.45831 12.3712 4.5833 12.5261C6.69205 15.1386 10.3833 18.2498 15.9995 18.2498C21.6158 18.2498 25.307 15.1386 27.4158 12.5286C27.5408 12.3737 27.7221 12.2749 27.92 12.2538C28.1178 12.2327 28.316 12.2911 28.4708 12.4161C28.6256 12.541 28.7244 12.7224 28.7455 12.9203C28.7666 13.1181 28.7083 13.3162 28.5833 13.471C27.8219 14.4155 26.9717 15.2849 26.0445 16.0673L28.6508 20.6248Z" fill="#0A1A2D"/>
</svg>
