<svg width="32" height="32" viewBox="0 0 32 32" fill="none" xmlns="http://www.w3.org/2000/svg">
<path d="M30.6848 15.6962C30.6423 15.5988 29.6023 13.2925 27.2798 10.97C25.1248 8.8175 21.4223 6.25 15.9998 6.25C10.5773 6.25 6.87482 8.8175 4.71982 10.97C2.39732 13.2925 1.35732 15.595 1.31482 15.6962C1.27208 15.7923 1.25 15.8962 1.25 16.0012C1.25 16.1063 1.27208 16.2102 1.31482 16.3062C1.35732 16.4025 2.39732 18.7087 4.71982 21.0312C6.87482 23.1838 10.5773 25.75 15.9998 25.75C21.4223 25.75 25.1248 23.1838 27.2798 21.0312C29.6023 18.7087 30.6423 16.4062 30.6848 16.3062C30.7276 16.2102 30.7496 16.1063 30.7496 16.0012C30.7496 15.8962 30.7276 15.7923 30.6848 15.6962ZM15.9998 24.25C12.0773 24.25 8.65232 22.8225 5.81857 20.0088C4.63066 18.8282 3.62544 17.4771 2.83607 16C3.62522 14.5232 4.63047 13.1724 5.81857 11.9925C8.65232 9.1775 12.0773 7.75 15.9998 7.75C19.9223 7.75 23.3473 9.1775 26.1811 11.9925C27.3692 13.1724 28.3744 14.5232 29.1636 16C28.3673 17.5262 24.3748 24.25 15.9998 24.25ZM15.9998 10.25C14.8626 10.25 13.7509 10.5872 12.8053 11.219C11.8597 11.8509 11.1227 12.7489 10.6875 13.7996C10.2523 14.8502 10.1384 16.0064 10.3603 17.1218C10.5822 18.2372 11.1298 19.2617 11.934 20.0659C12.7381 20.87 13.7627 21.4177 14.878 21.6395C15.9934 21.8614 17.1496 21.7475 18.2002 21.3123C19.2509 20.8771 20.1489 20.1401 20.7808 19.1945C21.4126 18.2489 21.7498 17.1372 21.7498 16C21.7478 14.4756 21.1414 13.0142 20.0635 11.9363C18.9856 10.8584 17.5242 10.252 15.9998 10.25ZM15.9998 20.25C15.1592 20.25 14.3376 20.0007 13.6386 19.5337C12.9397 19.0668 12.395 18.403 12.0733 17.6264C11.7517 16.8498 11.6675 15.9953 11.8315 15.1709C11.9955 14.3464 12.4002 13.5892 12.9946 12.9948C13.589 12.4004 14.3463 11.9956 15.1707 11.8317C15.9951 11.6677 16.8496 11.7518 17.6262 12.0735C18.4028 12.3952 19.0666 12.9399 19.5336 13.6388C20.0006 14.3377 20.2498 15.1594 20.2498 16C20.2498 17.1272 19.802 18.2082 19.005 19.0052C18.208 19.8022 17.127 20.25 15.9998 20.25Z" fill="#0A1A2D"/>
</svg>
