<svg width="381" height="271" viewBox="0 0 381 271" fill="none" xmlns="http://www.w3.org/2000/svg">
<path d="M379.913 212.868C354.433 214.428 328.946 215.762 303.453 216.868C303.12 213.221 302.45 209.612 301.453 206.088C326.786 205.422 352.119 204.642 377.453 203.748C377.582 203.733 377.702 203.675 377.796 203.585C377.89 203.495 377.952 203.377 377.973 203.248C377.99 203.092 377.945 202.935 377.847 202.812C377.75 202.689 377.608 202.608 377.453 202.588C352.013 203.535 326.579 204.315 301.153 204.928C295.153 184.008 282.493 164.108 267.733 148.348C267.273 143.028 267.253 140.348 264.973 135.008C260.573 124.908 255.713 122.808 255.833 125.208C255.831 125.84 255.933 126.469 256.133 127.068C255.333 126.068 249.453 119.948 248.253 123.248C247.368 122.692 246.369 122.341 245.33 122.224C244.291 122.106 243.24 122.224 242.253 122.568C238.513 116.568 232.253 116.568 228.253 114.568C220.613 110.568 224.133 97.8083 229.753 93.0483C229.753 93.0483 253.893 92.5883 253.913 92.2883C254.353 86.6283 259.173 0.488271 259.173 0.488271C199.693 -0.691729 135.693 0.488268 76.6526 1.68827C76.2526 1.68827 75.9126 1.94827 75.9526 2.30827C79.5126 32.6083 88.2526 94.6283 88.2526 94.6283C89.6926 95.2083 220.433 93.1683 228.253 93.0483C224.908 96.696 223.078 101.48 223.133 106.428C223.533 119.028 233.553 113.668 241.753 122.888C236.433 125.168 235.753 131.908 237.753 136.728C238.116 137.652 238.607 138.521 239.213 139.308C239.296 141.188 239.832 143.019 240.773 144.648C243.333 149.508 247.893 151.188 248.133 151.908C248.133 163.228 250.513 177.028 252.773 188.068C245.153 184.068 222.553 174.528 199.313 173.848C200.633 162.388 210.533 160.948 209.173 153.288C213.313 153.128 217.453 152.968 221.593 152.768C222.633 152.768 221.493 149.568 221.373 149.028C219.693 141.628 218.006 134.242 216.313 126.868C216.053 125.868 214.893 119.148 213.913 119.148L201.013 119.388C198.173 116.688 191.513 115.688 188.793 118.828C184.793 111.128 172.433 112.248 172.033 119.728C168.653 117.428 163.633 116.968 160.573 120.088C160.253 120.228 99.7526 121.048 90.7526 121.408H90.5926C90.4954 121.47 90.4262 121.567 90.4001 121.68C90.3739 121.792 90.3928 121.91 90.4526 122.008C90.6126 123.048 85.3926 147.728 84.7726 153.668C84.7726 154.508 93.8326 154.388 94.7726 154.388C81.8526 169.528 70.2326 186.608 66.7726 206.588C44.9726 206.248 23.1726 205.708 1.37261 205.788C1.26652 205.788 1.16478 205.83 1.08976 205.905C1.01475 205.98 0.972606 206.082 0.972606 206.188C0.972606 206.294 1.01475 206.396 1.08976 206.471C1.16478 206.546 1.26652 206.588 1.37261 206.588C23.0726 207.528 44.8326 207.628 66.5526 207.788C65.9056 211.754 65.6377 215.772 65.7526 219.788C44.1526 219.348 22.5526 218.668 0.972606 218.308C0.492606 218.308 0.412606 219.068 0.972606 219.068C22.5726 220.168 44.2126 220.568 65.8526 220.888C66.4126 231.748 70.6926 245.068 81.3326 249.948C85.7126 258.548 94.9926 266.288 105.333 264.068C105.033 265.628 104.753 267.228 104.453 268.828C104.333 269.548 105.413 269.848 105.533 269.128C108.473 253.288 111.533 237.368 116.673 222.088C116.833 221.608 116.113 221.428 115.933 221.888C110.933 235.168 108.113 249.128 105.513 263.028C94.9326 264.568 86.4926 257.828 82.1126 248.708C79.7561 243.889 78.3931 238.645 78.1044 233.289C77.8158 227.932 78.6076 222.573 80.4326 217.528C85.8926 203.528 100.433 193.528 114.713 186.688C129.232 179.807 144.825 175.471 160.813 173.868C161.953 184.548 174.233 188.168 183.593 187.608C192.953 187.048 198.493 184.188 199.293 174.748C199.413 174.748 233.073 175.488 262.133 194.908C270.673 200.608 278.433 207.928 282.973 217.228C287.413 226.208 288.973 237.228 284.973 246.588C279.253 260.228 268.813 262.208 261.893 263.428C259.446 248.784 254.722 234.612 247.893 221.428C247.713 221.088 247.153 221.308 247.333 221.668C254.455 237.026 259.312 253.336 261.753 270.088C261.753 270.608 262.793 270.748 262.793 270.088C262.712 268.257 262.471 266.437 262.073 264.648C269.615 263.999 276.599 260.407 281.513 254.648C297.513 250.648 304.493 233.348 303.513 218.108C329.059 217.068 354.579 215.735 380.073 214.108C380.773 213.848 380.513 212.868 379.913 212.868V212.868ZM88.3326 81.9883C84.3326 56.5483 81.1526 31.2283 77.5326 5.76827C137.533 4.72827 199.093 5.16827 258.273 4.16827L253.653 79.1883C228.673 79.9483 91.5526 80.7283 88.3326 81.9883ZM208.933 152.168C208.566 151.102 207.865 150.183 206.933 149.548C207.97 147.899 208.53 145.996 208.553 144.048H209.633L211.133 152.048L208.933 152.168ZM207.253 137.508C207.595 137.233 207.91 136.924 208.193 136.588C208.673 138.728 209.073 140.868 209.473 143.008H208.513C208.611 141.094 208.174 139.189 207.253 137.508V137.508ZM220.933 151.648L211.733 152.048C211.493 149.348 210.973 146.688 210.493 144.048C213.368 144.144 216.246 144.07 219.113 143.828C219.713 146.408 220.333 149.048 220.933 151.648ZM218.933 142.908H210.333L208.893 135.408L217.193 135.168L218.933 142.908ZM216.933 134.308L209.113 134.548C209.263 133.6 209.195 132.63 208.915 131.711C208.634 130.793 208.148 129.951 207.493 129.248C207.373 128.648 207.253 128.028 207.093 127.408L215.333 127.228L216.933 134.308ZM213.873 120.028C214.313 122.028 214.713 124.168 215.113 126.248L206.893 126.388C206.473 124.285 205.932 122.209 205.273 120.168L213.873 120.028ZM206.313 128.508C205.339 128.066 204.239 127.988 203.213 128.288C203.304 128.041 203.378 127.787 203.433 127.528H206.073L206.313 128.508ZM204.313 120.188C204.688 122.288 205.182 124.365 205.793 126.408H203.573C203.802 124.192 203.187 121.972 201.853 120.188H204.313ZM155.893 121.048H159.753C158.937 122.308 158.65 123.838 158.953 125.308L155.553 126.288C155.713 124.568 155.893 122.648 155.893 121.048V121.048ZM154.813 121.048V126.628C154.474 126.83 154.147 127.05 153.833 127.288L144.373 127.448C144.46 125.373 144.4 123.295 144.193 121.228L154.813 121.048ZM150.613 135.548H144.313V128.548L152.513 128.408C151.645 129.358 151.02 130.503 150.689 131.746C150.358 132.989 150.332 134.293 150.613 135.548V135.548ZM144.353 144.808H149.813C149.89 146.553 150.536 148.225 151.653 149.568C150.993 150.025 150.462 150.644 150.112 151.366C149.761 152.087 149.603 152.887 149.653 153.688H144.253C144.313 150.688 144.353 147.748 144.353 144.808ZM150.353 142.388C150.177 142.806 150.05 143.242 149.973 143.688H144.453V136.468H150.913C151.347 137.662 152.127 138.699 153.153 139.448C151.903 140.095 150.894 141.126 150.273 142.388H150.353ZM143.653 153.668H118.873C119.133 150.228 118.873 148.068 121.093 145.108L143.433 144.848C143.413 147.788 143.473 150.728 143.573 153.668H143.653ZM121.913 144.008C123.994 141.904 125.567 139.353 126.513 136.548H131.513V143.888L121.913 144.008ZM132.793 121.448L143.273 121.268C143.16 123.34 143.16 125.416 143.273 127.488L132.733 127.668C132.733 125.608 132.753 123.528 132.793 121.448ZM132.653 128.768L143.233 128.588V135.588H132.513C132.513 133.308 132.513 131.048 132.653 128.768V128.768ZM132.513 136.528H143.333V143.748L132.073 143.888C132.233 141.428 132.353 139.048 132.513 136.528V136.528ZM122.513 121.628L132.093 121.468L131.873 127.688L122.113 127.848C122.35 125.784 122.424 123.704 122.333 121.628H122.513ZM122.033 128.928L131.853 128.768L131.673 135.568H126.773C127.013 134.468 127.453 132.668 126.153 132.068C124.853 131.468 123.613 134.468 121.213 135.548C121.433 133.348 121.633 131.148 121.853 128.948L122.033 128.928ZM113.473 121.788L121.733 121.648C121.447 123.711 121.267 125.787 121.193 127.868H120.513C121.373 125.768 116.733 124.408 112.733 127.868C112.793 126.848 113.353 122.468 113.293 121.788H113.473ZM120.933 129.048C120.793 131.228 120.673 133.388 120.533 135.568H117.413C116.813 133.808 117.413 129.668 119.013 129.048H120.893H120.933ZM112.273 121.848L111.953 128.048H108.213C106.733 124.968 107.673 122.628 106.213 121.888L112.273 121.848ZM111.473 129.168C111.012 129.746 110.622 130.377 110.313 131.048L108.833 129.228L111.473 129.168ZM98.6926 122.108L105.113 121.988C103.113 122.948 102.813 126.348 102.813 128.208H99.7926C98.7726 127.328 98.3326 128.208 97.5726 128.208L98.6526 121.988L98.6926 122.108ZM103.133 132.268C102.023 131.528 101.121 130.516 100.513 129.328H102.773C102.796 130.314 102.89 131.296 103.053 132.268H103.133ZM96.5126 135.268L97.4726 129.388C97.2721 131.418 97.5249 133.468 98.2126 135.388L96.5126 135.268ZM98.5126 136.248C99.3326 138.988 100.513 141.488 101.073 144.248L95.0726 144.368L96.2726 136.228L98.5126 136.248ZM91.2526 122.128H97.8126C97.4326 124.128 97.0726 126.288 96.7126 128.388C94.5326 128.388 92.3326 128.508 90.1526 128.608C90.6236 126.471 90.9642 124.307 91.1726 122.128H91.2526ZM90.0126 129.428H96.5126C96.2126 131.428 95.8926 133.428 95.5726 135.288H88.8726C89.2126 133.288 89.5726 131.348 89.9326 129.428H90.0126ZM88.7926 135.988C90.9926 136.108 93.1926 136.168 95.3926 136.208C95.0126 138.908 94.5726 141.648 94.2126 144.368C91.8726 144.368 89.5326 144.528 87.1926 144.628C87.7326 141.748 88.2526 138.868 88.7926 135.988V135.988ZM93.2926 153.328H85.5726C86.0726 150.648 86.5926 147.988 87.1326 145.328L94.0726 145.508C93.6507 148.098 93.3636 150.708 93.2126 153.328H93.2926ZM93.8526 153.328L95.0326 145.328H101.253C101.313 145.86 101.313 146.397 101.253 146.928L95.6326 153.348L93.8526 153.328ZM80.2326 214.788C77.8933 220.118 76.7239 225.888 76.8033 231.708C76.8826 237.528 78.2089 243.264 80.6926 248.528C61.3326 235.448 65.4526 206.528 73.6926 188.048C80.4326 172.908 91.1126 160.048 102.053 147.708C103.653 145.888 98.4726 133.708 98.2926 130.728C98.1726 128.508 99.0926 128.048 99.9126 129.628C100.733 131.208 101.913 133.008 103.533 133.388C104.173 135.268 104.673 134.668 104.593 134.368C103.913 131.068 102.733 126.368 104.933 123.328C106.533 121.208 106.473 125.108 106.633 125.868C107.013 127.688 108.633 131.208 110.093 131.868C109.593 133.288 110.433 132.788 110.493 132.608C113.333 125.148 122.013 126.208 119.213 128.048C118.474 128.489 117.847 129.093 117.379 129.814C116.911 130.536 116.614 131.355 116.513 132.208C115.493 139.268 121.053 138.208 125.093 133.288C126.773 131.288 126.853 135.588 124.193 139.928C121.933 143.608 118.873 144.928 118.513 149.748C117.513 161.528 115.093 175.588 113.473 185.948C100.193 192.368 86.6126 201.048 80.1526 214.808L80.2326 214.788ZM114.513 185.408C116.465 175.239 117.861 164.97 118.693 154.648H149.713C150.873 161.348 159.193 162.248 160.533 172.648C144.57 174.209 128.999 178.526 114.513 185.408V185.408ZM198.953 169.268C198.455 170.841 198.133 172.464 197.993 174.108C197.193 182.588 193.593 185.408 184.173 186.108C174.173 186.928 163.333 183.768 161.813 172.988C160.473 163.388 157.393 164.228 152.453 157.508C150.973 155.508 149.653 151.788 152.453 150.228C153.828 151.739 155.551 152.893 157.473 153.588C161.793 163.288 163.253 174.468 175.813 175.708C200.093 177.968 194.653 164.748 202.353 153.208C203.85 152.516 205.206 151.553 206.353 150.368C207.226 151.098 207.828 152.1 208.064 153.214C208.3 154.327 208.155 155.487 207.653 156.508C205.693 161.248 200.973 163.048 198.953 169.268V169.268ZM248.513 124.408C249.193 125.928 249.893 127.428 250.513 128.948C249.533 127.688 244.733 122.448 243.133 125.248C242.313 126.708 244.033 128.888 244.733 130.188C242.048 130.664 239.649 132.153 238.033 134.348C235.473 125.048 244.513 120.408 248.513 124.408ZM239.473 138.028C239.093 137.088 238.693 136.128 238.293 135.188C240.048 133.133 242.406 131.685 245.033 131.048C246.158 133.371 246.888 135.865 247.193 138.428C247.733 143.548 243.813 139.888 241.913 138.128C241.173 137.368 239.933 137.048 239.373 138.028H239.473ZM282.773 252.848C289.393 243.568 289.673 231.588 285.833 221.108C280.393 206.288 267.453 195.908 253.833 188.648C251.214 176.554 249.516 164.279 248.753 151.928C248.753 150.048 242.393 148.768 240.413 141.388C240.053 140.048 239.313 136.528 241.733 139.048C244.153 141.568 248.273 143.888 248.093 138.368C247.853 131.828 243.413 127.468 243.813 125.988C244.313 124.128 248.013 127.628 248.613 128.228C250.176 129.948 251.594 131.794 252.853 133.748C253.073 134.068 253.613 133.748 253.413 133.448C252.946 132.648 252.466 131.848 251.973 131.048C252.293 130.368 248.693 124.008 249.333 123.408C249.973 122.808 252.853 124.888 253.493 125.408C256.833 128.308 256.993 130.248 258.133 131.748C258.184 131.767 258.241 131.767 258.293 131.748C258.364 131.754 258.434 131.732 258.49 131.688C258.546 131.643 258.583 131.579 258.593 131.508C258.473 130.228 257.733 129.508 257.373 128.628C257.013 127.748 256.273 125.768 256.773 125.068C257.013 124.868 258.393 125.888 258.553 126.048C259.872 127.312 260.974 128.785 261.813 130.408C267.933 140.868 266.093 147.608 267.133 148.628C282.313 165.728 298.533 190.768 301.813 213.368C304.033 229.048 299.093 247.328 282.673 252.848H282.773Z" fill="white"/>
</svg>
