<svg fill-opacity="0.8" fill="#3498DB" stroke="#000000" stroke-width="1"  xmlns="http://www.w3.org/2000/svg" version="1.1" width="487.307" height="773.918" viewbox="0 0 487.307 773.918">
 <g>
  <g>
   <path d="M219.00817 256.37588664901 L222.96761 252.62181684724 L231.4751 247.12219815555 L231.025 252.06759843714 L230.44261 258.47451286885 L225.66357 258.15682506416 L223.56396 261.57267757191 L219.00817 256.37588664901"/>
  </g>
 </g>
 <g>
  <g>
   <path d="M111.9408 194.74064739991 L107.8749 189.43394910839 L102.81732 178.88642308785 L100.44899 166.50236313646 L106.85222 157.94002734675 L119.78218 155.96854069339 L129.15577 157.45004205268 L137.40746 161.49266430333 L141.93173 154.37956142004 L150.79527 158.1801796017 L153.11348 165.04959006437 L151.88203 177.34515161089 L135.07324 185.21167115978 L139.4647 191.38873176967 L128.96715 192.12713594745 L120.31135 196.22591079851 L111.9408 194.74064739991"/>
  </g>
 </g>
 <g>
  <g>
   <path d="M87.72316 239.51145649879 L88.51019 244.67409907397 L95.11082 243.47381735732 L98.37987 239.34277566003 L100.67947 240.28253813422 L106.58505 246.35101561871 L110.78015 253.07355270583 L111.35375 259.82853495563 L110.28922 264.38848174415 L111.26229 267.83340507731 L111.99248 273.76053199871 L115.51474 276.51914192497 L119.44732 285.36815282007 L119.25611 288.75018884056 L112.16507 289.41749014965 L102.70415 282.00675095469 L90.87438 274.06293684939 L89.7034 268.9610753793 L83.92235 262.25929801407 L82.54208 253.95386450954 L78.93506 248.48055260849 L80.0306 241.16393323437 L77.82557 236.89928523838 L79.56396 235.1041943094 L87.72316 239.51145649879"/>
  </g>
  <g>
   <path d="M263.15121 256.8540821148 L255.78835 260.27024848521 L247.12014 258.58023202871 L235.62317 258.57556886389 L232.15878 269.97321322297 L228.30837 273.4555362449 L223.18155 287.37339960578 L215.0265 289.50536013223 L205.56609 286.70216038666 L200.77052 287.57913282347 L194.94348 292.63698094924 L188.55938 291.91651384868 L182.10861 293.9502219593 L175.27027 288.29918994487 L173.6006 281.61299423859 L180.92935 285.0416778655 L188.65653 283.17217788876 L190.66881 274.69876800634 L194.93728 272.81058642384 L206.92415 270.64264562252 L214.09735 262.71667606818 L219.00817 256.37588664901 L223.56396 261.57267757191 L225.66357 258.15682506416 L230.44261 258.47451286885 L231.025 252.06759843714 L231.4751 247.12219815555 L239.17541 240.13181472127 L244.21903 232.26485301512 L248.26426 232.2317917291 L253.40193 237.32520564204 L253.85875 241.69759035473 L260.44491 244.50011882809 L268.78704 247.52293498193 L268.07494 251.45628547669 L261.36527 251.95426388382 L263.15121 256.8540821148"/>
  </g>
 </g>
 <g>
  <g>
   <path d="M284.12409 404.62703677232 L279.91814 404.82081886802 L266.64608 397.70786848481 L275.9711 395.71447039637 L281.22556 398.80275955815 L284.72302 401.88544938838 L284.12409 404.62703677232"/>
  </g>
  <g>
   <path d="M321.3275 403.61527831996 L312.76782 405.85081736138 L311.56789 404.63124377987 L312.46809 401.17825466239 L316.76809 394.99178879263 L326.65482 390.96887259045 L327.6682 392.96537697503 L327.8532 396.03711188603 L321.3275 403.61527831996"/>
  </g>
  <g>
   <path d="M255.96818 382.90930789266 L259.57416 385.60407618502 L265.7526 384.77838277249 L268.23307 389.07695427859 L256.67202 391.10905024046 L249.74531 392.46824732425 L244.36941 392.38766710969 L247.80537 386.56212783688 L253.28824 386.4827151119 L255.96818 382.90930789266"/>
  </g>
  <g>
   <path d="M306.00337 382.89469226333 L304.53783 388.51029738079 L289.51291 391.38262907271 L276.21191 390.13522392087 L276.17729 386.43778773793 L284.11892 384.33662137597 L290.38469 387.36677998063 L297.04165 386.59712858676 L306.00337 382.89469226333"/>
  </g>
  <g>
   <path d="M163.20279 369.61713038201 L182.36027 370.62109006056 L184.56376 366.47126254399 L203.11611 371.31289761005 L206.75568 377.84723570202 L221.75735 379.68691161156 L234.02327 385.68922236738 L222.61311 389.54226365627 L211.61534 385.46827466167 L202.56472 385.74354141894 L192.18861 384.99510811047 L182.8295 383.18126717237 L171.24467 379.32495815862 L163.90455 378.32532525885 L159.74563 379.587286556 L141.50902 375.43359453403 L139.77424 371.09997964184 L130.62286 370.35979706381 L137.48446 360.74528671267 L149.61809 361.3391195548 L157.68891 365.26952016309 L161.83646 366.0365061058 L163.20279 369.61713038201"/>
  </g>
  <g>
   <path d="M424.21424 363.94797935994 L419.06934 370.80118928928 L418.09576 363.22443664576 L419.87136 359.61078942039 L421.96425 356.21433312049 L424.23802 359.15372142345 L424.21424 363.94797935994"/>
  </g>
  <g>
   <path d="M349.46015 336.2934483489 L345.71723 339.61928733478 L338.80602 337.77938318012 L336.85834 333.47079334349 L346.97451 332.99051615863 L349.46015 336.2934483489"/>
  </g>
  <g>
   <path d="M381.68144 332.63445122668 L385.31636 340.29568386267 L376.87347 336.16557624468 L368.52049 335.3274570563 L362.87484 335.98903861901 L355.95691 335.63598312753 L358.32679 330.12994811159 L370.67798 329.71448394982 L381.68144 332.63445122668"/>
  </g>
  <g>
   <path d="M418.40168 313.20121257563 L421.19427 329.38440389762 L431.54403 335.37870542541 L439.90114 324.75842316255 L451.37538 318.71940694774 L460.26527 318.71113329289 L468.81721 322.19911015607 L476.23484 325.77938782574 L486.9701 327.69220600097 L487.13857 360.37436683961 L487.30652 393.24799716466 L478.40215 384.94497302944 L468.24567 382.91296433337 L465.78277 385.79159429048 L453.11274 386.10240565081 L457.35899 377.88425051958 L463.65421 375.08398152217 L461.04714 364.13355306768 L456.2464 355.69525300458 L436.8605 347.19499604136 L428.61398 346.3562750253 L413.5968 337.09281851383 L410.64505 341.96309859143 L406.80756 342.84692641516 L404.53741 339.17131863624 L404.50589 334.81809327049 L396.86604 329.8986756366 L407.63645 326.29351196353 L414.76831 326.48799267134 L413.93012 323.83270250276 L399.29173 323.81252744855 L395.33022 317.85553417479 L386.3964 316.00847929813 L382.16358 311.05938523972 L395.64338 308.63654736907 L400.76916 305.37717220911 L416.82348 309.48410772258 L418.40168 313.20121257563"/>
  </g>
  <g>
   <path d="M329.37301 287.48195319022 L321.33835 297.40291681664 L313.82305 299.3258299499 L304.19883 297.37035590176 L287.53525 297.86956846164 L278.79883 299.30928980909 L277.3767 306.87841783553 L286.32705 315.77224667655 L291.72621 311.24183015204 L310.37365 307.83861507456 L309.55199 312.44452949078 L305.19515 310.99168623842 L300.8533 316.85211879543 L292.05074 320.73010454983 L301.51372 333.55877896674 L299.68696 336.99911029999 L308.67763 348.57094764591 L308.59133 355.16530972831 L303.25315 358.11871871586 L299.33194 354.58611245923 L304.16369 346.36872277879 L294.35034 350.25314842078 L291.86263 347.47597566394 L293.15971 343.60390194933 L285.94982 337.72656868821 L286.69189 327.96741234545 L280.02253 331.01060640596 L280.86847 342.69253026369 L281.27517 357.05015248654 L274.93343 358.50870601318 L270.63706 355.55977472008 L273.50406 346.32102823711 L271.95635 336.64757011522 L267.75144 336.57353275189 L264.64569 329.71293209437 L268.77774 323.15783366223 L270.20194 315.21449464188 L275.22799 300.13922472531 L277.32502 296.01690429741 L285.82579 288.58839712357 L293.63617 291.54179731616 L306.24367 292.92950622849 L317.74322 292.51035495129 L327.62789 285.24692333105 L329.37301 287.48195319022"/>
  </g>
  <g>
   <path d="M363.85049 290.35716931398 L363.32752 299.09689782042 L358.1697 298.11761360249 L356.64834 304.20254472089 L360.76799 309.48204753163 L357.96816 310.68209671681 L353.93275 304.34775620878 L350.9629 291.56402078833 L352.97312 283.57184188274 L356.29178 279.93058388157 L357.00956 285.39426338337 L362.91359 286.27179908318 L363.85049 290.35716931398"/>
  </g>
  <g>
   <path d="M255.72427 283.40225641057 L266.93547 292.65920371113 L255.08658 293.83910169702 L251.75139 300.65701604241 L252.18444 309.71926018792 L242.56848 316.5600484053 L242.30597 326.52471711463 L238.44884 341.84187050851 L236.97658 338.27699275628 L225.61603 342.78682184494 L221.65452 336.66051419042 L214.52472 336.09413731989 L209.53794 332.88493925912 L197.64926 336.48707307623 L194.00091 331.63982764169 L187.4504 332.19043332068 L179.20646 331.03491824926 L177.67736 317.61255884544 L172.68748 314.83199096075 L167.88674 306.27688584789 L166.49458 297.52798020309 L167.65936 288.26119955497 L173.6006 281.61299423859 L175.27027 288.29918994487 L182.10861 293.9502219593 L188.55938 291.91651384868 L194.94348 292.63698094924 L200.77052 287.57913282347 L205.56609 286.70216038666 L215.0265 289.50536013223 L223.18155 287.37339960578 L228.30837 273.4555362449 L232.15878 269.97321322297 L235.62317 258.57556886389 L247.12014 258.58023202871 L255.78835 260.27024848521 L250.10032 269.32029396616 L257.4513 278.79878568481 L255.72427 283.40225641057"/>
  </g>
  <g>
   <path d="M135.14455 360.3073571843 L124.07184 360.51774767286 L115.65013 352.11993571241 L102.81061 343.92256952285 L98.52973 337.84721783753 L90.95913 329.69068551817 L85.99303 322.1887635291 L78.38781 308.18538624323 L69.6054 299.85034347008 L66.66811 291.25237069154 L62.98151 283.44361740374 L53.96398 277.14242776829 L48.73742 268.57544997991 L41.20817 262.96373267943 L30.77676 251.91147308611 L29.89826 246.79982347306 L36.33663 247.20474041894 L51.81682 249.14509173163 L60.65969 258.95853058407 L68.39359 265.75474641854 L73.90798 269.92222511599 L83.38234 280.68325739802 L93.54812 280.84020195589 L101.95071 287.69337714196 L107.7364 296.06806677545 L115.35196 300.63634600868 L111.34445 308.80140980391 L117.07589 312.27448996647 L120.66791 312.53084483958 L122.3629 319.5083620242 L125.84693 325.0925279064 L133.18911 325.97748434519 L138.05393 332.31411916803 L135.54246 344.77759504345 L135.14455 360.3073571843"/>
  </g>
 </g>
 <g>
  <g>
   <path d="M129.15577 157.45004205268 L132.41138 152.79454948301 L132.85839 144.0260048453 L124.76121 134.95890728975 L124.13747 124.64139315054 L116.53277 116.11038629994 L108.96992 115.38712554798 L106.95506 119.04838549661 L101.09805 119.352303968 L98.10392 117.49814456332 L87.56348 123.76456563677 L87.32731 114.34091330089 L89.78815 103.20131874698 L83.03094 102.71592856487 L82.45681 96.329033539781 L78.12788 93.039305875877 L80.25901 89.104966259181 L88.76805 82.132429734338 L89.66826 84.654207096344 L94.9992 84.946839187266 L93.48818 72.631855623277 L98.67236 71.046806704541 L104.51696 79.567388049591 L109.00661 89.314170336286 L121.318 89.397897854191 L125.19374 98.697821581875 L118.80188 101.48139838195 L115.93332 105.29372342227 L127.91398 111.61922091523 L136.22562 124.04957511098 L142.52808 133.26475719074 L150.09506 140.51202351359 L152.61325 147.84429289982 L150.79527 158.1801796017 L141.93173 154.37956142004 L137.40746 161.49266430333 L129.15577 157.45004205268"/>
  </g>
 </g>
 <g>
  <g>
   <path d="M72.40109 95.505008498625 L66.56476 100.11859339182 L59.50524 100.59430205989 L54.94583 112.04027353776 L50.72696 113.95608148475 L55.55923 123.18303783689 L61.90561 130.82612199718 L66.00148 137.71003344785 L62.34176 146.74221874805 L58.88874 148.6572969832 L61.27619 153.84796432753 L67.94555 162.04460139222 L69.08812 167.78649939361 L68.93154 172.55488084155 L72.84086 181.89083347037 L67.34921 191.40162702764 L62.50351 201.85084196446 L61.53974 194.30604565108 L64.61346 186.50080108164 L61.25139 180.45746331726 L62.06374 169.29550436852 L58.00404 163.97008481395 L54.74532 151.62223720234 L52.93872 138.51428989105 L48.6134 129.87619861974 L42.02569 135.11137665002 L30.66152 142.52985217526 L25.05205 141.60442811702 L18.85604 139.1660766452 L22.30286 126.22988374229 L20.21617 116.39928208715 L12.37788 104.22017260889 L13.60055 100.395028036 L7.7507800000001 99.032731835269 L0.65354000000013 90.337115929578 L0.00033999999971002 81.714335169662 L3.4905700000002 83.340841477654 L3.6952100000002 75.622774433214 L8.6292800000001 73.06136392948 L7.57094 68.46526661063 L9.8312700000002 64.769149588613 L10.21988 53.478742473661 L18.03542 55.9718060181 L22.49458 46.927875714777 L23.00049 41.55510869567 L28.51953 32.25519981736 L28.21568 25.872431072906 L41.16166 18.122463948415 L48.30799 20.154957095446 L47.48789 13.225118019416 L50.99361 11.151123738085 L50.23914 6.8552625396504 L56.08788 6.0107076601145 L59.43031 12.681041136814 L63.7949 15.371960707801 L64.08894 23.970620391577 L63.68638 33.173941071715 L54.21409 42.426084919439 L53.0152 55.461503045304 L63.57062 53.645985730988 L65.95549 63.692212423707 L72.28792 65.797025268905 L69.37699 74.791024989412 L76.80289 78.837629305027 L81.13338 80.818351986517 L88.46833 77.684737438113 L88.76805 82.132429734338 L80.25901 89.104966259181 L78.12788 93.039305875877 L72.40109 95.505008498625"/>
  </g>
 </g>
 <g>
  <g>
   <path d="M340.73614 217.23056867264 L341.75313 223.94078280803 L342.34224 229.59855137633 L338.93573 238.81304917393 L335.28221 228.5468221675 L330.60652 233.65767190033 L333.79961 241.07247465975 L330.93312 245.78327147685 L319.16588 239.9491225197 L316.3552 232.66409877198 L319.40462 227.87236457021 L313.07012 223.10130173728 L309.92871 227.28482455633 L305.22306 226.89656745865 L297.82299 232.52017873635 L296.16728 229.57095432337 L300.09159 221.06748117718 L306.39198 218.2258483879 L311.84488 214.41622036926 L315.37954 218.99297153136 L322.9827 216.22509636448 L324.61412 211.71018007352 L331.68191 211.44100538226 L331.08918 203.60290226501 L339.19514 208.41179953193 L340.03437 213.51094364712 L340.73614 217.23056867264"/>
  </g>
  <g>
   <path d="M316.79238 198.33814766698 L313.19983 201.67692043827 L310.06721 208.08555933544 L306.92683 211.08469412424 L300.76855 204.0795078266 L302.82889 201.36263852659 L305.33881 198.51723692418 L306.44211 192.20291957979 L311.9565 191.6045418267 L310.34574 198.45395416891 L317.74736 188.62796784461 L316.79238 198.33814766698"/>
  </g>
  <g>
   <path d="M262.01381 208.1046714858 L248.71075 217.70773676861 L253.61277 210.63206633644 L260.83714 204.37230286229 L266.84142 197.34695929331 L272.08296 187.23147019174 L273.86477 195.53685770844 L267.26258 201.13307627978 L262.01381 208.1046714858"/>
  </g>
  <g>
   <path d="M295.80348 181.90113456445 L301.80621 185.06292616813 L308.17017 185.04788995775 L307.97638 189.30885370435 L303.34514 193.63392119105 L296.9941 196.68888003075 L296.64167 191.96031770701 L297.3517 186.76045945911 L295.80348 181.90113456445"/>
  </g>
  <g>
   <path d="M331.99352 179.13092203844 L334.80265 190.52984007948 L327.08684 187.82519222812 L327.29561 191.24608575427 L329.74249 197.52557543715 L324.98619 199.80231886794 L324.56968 192.6496502189 L321.55901 192.12082225653 L319.99322 185.9489940952 L325.87813 186.76309152953 L325.7479 182.8980043225 L319.63562 175.08650840977 L329.23916 175.31230052703 L331.99352 179.13092203844"/>
  </g>
  <g>
   <path d="M292.24194 169.83748017655 L289.5899 178.69239391828 L285.30696 173.58276451179 L280.20236 165.76041302117 L288.76928 166.13792393772 L292.24194 169.83748017655"/>
  </g>
  <g>
   <path d="M290.18108 113.33795532646 L296.34401 116.34624406624 L299.42806 113.60277794142 L300.33757 116.27959168912 L298.71079 120.63940052374 L302.12454 128.15309888039 L299.49111 136.82875457007 L293.59586 140.27825782248 L292.0187 148.64578835003 L294.25629 156.88076133325 L299.55725 158.01759468871 L303.98076 156.79648839259 L316.47095 162.51181730034 L315.51907 168.11035525833 L318.78089 170.57716590761 L317.74219 175.30250704119 L309.94835 170.26926938617 L306.25452 164.87072574657 L303.68155 168.64382524727 L297.3145 162.48761022709 L288.23185 164.00890957618 L283.25437 161.73405202384 L283.76184 157.47270141505 L286.88619 154.84644070695 L283.90136 152.45603875729 L282.60945 156.17982453746 L277.67229 150.23990202992 L276.17729 145.72748498479 L275.80573 135.77367833718 L279.83288 139.20048560247 L280.86847 122.85642784028 L284.12667 113.32570179334 L290.18108 113.33795532646"/>
  </g>
 </g>
 <g>
  <g>
   <path d="M102.81732 178.88642308785 L93.83958 174.18500109063 L85.2861 174.37618188597 L86.75267 166.31243996696 L77.94597 166.37274408211 L77.15533 177.65432391851 L71.75721 192.56440857318 L68.50572 201.54523716632 L69.19199 208.88617501661 L75.70632 209.20421716491 L79.76447 218.43892323842 L81.56074 227.17695020442 L87.14128 232.94881359213 L93.19879 234.11951605946 L98.37987 239.34277566003 L95.11082 243.47381735732 L88.51019 244.67409907397 L87.72316 239.51145649879 L79.56396 235.1041943094 L77.82557 236.89928523838 L73.87491 233.03599638138 L72.16442 228.04534671896 L66.85053 222.34955988136 L62.00586 217.55809097951 L60.36462 223.49510839625 L58.46809 217.88454496031 L59.5595 211.57336793124 L62.50351 201.85084196446 L67.34921 191.40162702764 L72.84086 181.89083347037 L68.93154 172.55488084155 L69.08812 167.78649939361 L67.94555 162.04460139222 L61.27619 153.84796432753 L58.88874 148.6572969832 L62.34176 146.74221874805 L66.00148 137.71003344785 L61.90561 130.82612199718 L55.55923 123.18303783689 L50.72696 113.95608148475 L54.94583 112.04027353776 L59.50524 100.59430205989 L66.56476 100.11859339182 L72.40109 95.505008498625 L78.12788 93.039305875877 L82.45681 96.329033539781 L83.03094 102.71592856487 L89.78815 103.20131874698 L87.32731 114.34091330089 L87.56348 123.76456563677 L98.10392 117.49814456332 L101.09805 119.352303968 L106.95506 119.04838549661 L108.96992 115.38712554798 L116.53277 116.11038629994 L124.13747 124.64139315054 L124.76121 134.95890728975 L132.85839 144.0260048453 L132.41138 152.79454948301 L129.15577 157.45004205268 L119.78218 155.96854069339 L106.85222 157.94002734675 L100.44899 166.50236313646 L102.81732 178.88642308785"/>
  </g>
 </g>
 <g>
  <g>
   <path d="M326.65482 390.96887259045 L327.83046 388.58190248163 L336.43872 386.3087507846 L343.41504 385.96658691246 L346.54043 384.70423037305 L350.32728 385.95718611701 L346.64792 388.69690436731 L336.22685 393.1276180765 L327.8532 396.03711188603 L327.6682 392.96537697503 L326.65482 390.96887259045"/>
  </g>
 </g>
 <g>
  <g>
   <path d="M157.4698 80.887799013342 L144.11868 90.059544660625 L135.78482 100.12848542755 L133.58806 107.48530699091 L141.23617 118.60233533563 L150.58754 132.29224836059 L159.66295 138.73104071798 L165.73907 147.07195418386 L170.3207 166.17564511918 L168.96936 184.19847541919 L160.6293 190.91496079461 L149.17729 197.46700020546 L141.01913 205.93076277001 L128.55064 215.35944017229 L124.91985 208.86811061283 L127.73002 201.99773058916 L120.31135 196.22591079851 L128.96715 192.12713594745 L139.4647 191.38873176967 L135.07324 185.21167115978 L151.88203 177.34515161089 L153.11348 165.04959006437 L150.79527 158.1801796017 L152.61325 147.84429289982 L150.09506 140.51202351359 L142.52808 133.26475719074 L136.22562 124.04957511098 L127.91398 111.61922091523 L115.93332 105.29372342227 L118.80188 101.48139838195 L125.19374 98.697821581875 L121.318 89.397897854191 L109.00661 89.314170336286 L104.51696 79.567388049591 L98.67236 71.046806704541 L104.03792 68.40365130013 L112.01315 68.458264014153 L121.73658 67.206880574793 L130.26009 61.413815936256 L135.08047 65.494524242784 L144.22203 67.476803775331 L142.64073 73.712381211297 L147.4022 78.09501009282 L157.4698 80.887799013342"/>
  </g>
 </g>
</svg>
