<svg width="62" height="63" viewBox="0 0 62 63" fill="none" xmlns="http://www.w3.org/2000/svg">
<path d="M57.6416 25.3642C57.6424 24.9188 57.5551 24.4776 57.3847 24.0661C57.2143 23.6546 56.9641 23.2809 56.6486 22.9665L40.0127 6.33306C39.6979 6.01817 39.3241 5.76839 38.9127 5.59797C38.5013 5.42756 38.0604 5.33984 37.6151 5.33984C37.1698 5.33984 36.7289 5.42756 36.3175 5.59797C35.9061 5.76839 35.5323 6.01817 35.2174 6.33306L28.2594 13.2911L14.1011 18.6023C13.5439 18.8108 13.0514 19.1623 12.6731 19.6214C12.2948 20.0806 12.0439 20.6311 11.9456 21.2179L6.3172 54.9885C6.28197 55.197 6.29264 55.4106 6.34847 55.6145C6.4043 55.8184 6.50395 56.0076 6.64046 56.1691C6.77698 56.3305 6.94707 56.4602 7.13886 56.5491C7.33066 56.638 7.53955 56.684 7.75095 56.6838C7.83205 56.6835 7.91302 56.677 7.99314 56.6645L41.7638 51.036C42.351 50.9382 42.902 50.6875 43.3616 50.3091C43.8212 49.9307 44.173 49.438 44.3818 48.8806L49.6906 34.7223L56.651 27.7618C56.9663 27.4474 57.2161 27.0736 57.3862 26.6621C57.5562 26.2505 57.643 25.8094 57.6416 25.3642ZM41.6572 47.8609C41.6274 47.9404 41.5773 48.0106 41.5118 48.0646C41.4464 48.1186 41.3679 48.1544 41.2842 48.1685L11.9868 53.051L24.7913 40.2441C26.1049 41.0544 27.6704 41.354 29.1904 41.0859C30.7104 40.8179 32.079 40.001 33.0363 38.7903C33.9936 37.5796 34.4729 36.0594 34.3831 34.5186C34.2934 32.9778 33.6409 31.5236 32.5495 30.4322C31.4581 29.3408 30.0039 28.6883 28.4631 28.5985C26.9222 28.5088 25.4021 28.9881 24.1914 29.9454C22.9807 30.9026 22.1637 32.2713 21.8957 33.7913C21.6277 35.3112 21.9273 36.8767 22.7375 38.1904L9.93064 50.9997L14.8156 21.695C14.8298 21.6121 14.8655 21.5343 14.919 21.4693C14.9725 21.4043 15.042 21.3544 15.1207 21.3245L28.6977 16.2385L46.7431 34.2839L41.6572 47.8609ZM24.7041 34.887C24.7041 34.2164 24.9029 33.5608 25.2755 33.0032C25.6481 32.4456 26.1776 32.0111 26.7972 31.7544C27.4167 31.4978 28.0985 31.4307 28.7562 31.5615C29.4139 31.6923 30.018 32.0152 30.4922 32.4894C30.9664 32.9636 31.2893 33.5678 31.4202 34.2255C31.551 34.8832 31.4839 35.5649 31.2272 36.1845C30.9706 36.8041 30.536 37.3336 29.9784 37.7062C29.4208 38.0787 28.7653 38.2776 28.0947 38.2776C27.1955 38.2776 26.333 37.9204 25.6972 37.2845C25.0613 36.6486 24.7041 35.7862 24.7041 34.887ZM54.5924 25.7081L48.4384 31.862L31.1172 14.5432L37.2736 8.38681C37.3186 8.34177 37.372 8.30604 37.4308 8.28167C37.4896 8.25729 37.5526 8.24475 37.6163 8.24475C37.68 8.24475 37.743 8.25729 37.8018 8.28167C37.8606 8.30604 37.914 8.34177 37.959 8.38681L54.5924 25.0227C54.6375 25.0677 54.6732 25.1211 54.6976 25.1799C54.7219 25.2387 54.7345 25.3017 54.7345 25.3654C54.7345 25.429 54.7219 25.492 54.6976 25.5508C54.6732 25.6097 54.6375 25.6631 54.5924 25.7081Z" fill="#56F09F"/>
</svg>
