<svg width="62" height="63" viewBox="0 0 62 63" fill="none" xmlns="http://www.w3.org/2000/svg">
<path d="M58.9969 37.0177C58.8442 37.1322 58.6705 37.2155 58.4856 37.2629C58.3008 37.3102 58.1084 37.3207 57.9195 37.2937C57.7306 37.2667 57.5488 37.2028 57.3846 37.1056C57.2204 37.0083 57.077 36.8797 56.9625 36.7271C55.7499 35.0969 54.1714 33.7743 52.3541 32.8657C50.5369 31.9571 48.5317 31.4879 46.5 31.4958C46.1146 31.4958 45.745 31.3427 45.4725 31.0702C45.2 30.7977 45.0469 30.4281 45.0469 30.0427C45.0469 29.6573 45.2 29.2877 45.4725 29.0152C45.745 28.7427 46.1146 28.5896 46.5 28.5896C47.6777 28.5893 48.8317 28.2588 49.8309 27.6356C50.8302 27.0124 51.6346 26.1214 52.1529 25.0639C52.6712 24.0064 52.8826 22.8248 52.763 21.6532C52.6434 20.4816 52.1976 19.3671 51.4763 18.4361C50.7551 17.5052 49.7872 16.7952 48.6826 16.3867C47.578 15.9782 46.3811 15.8877 45.2276 16.1254C44.0742 16.3631 43.0106 16.9195 42.1575 17.7314C41.3044 18.5433 40.6961 19.5782 40.4017 20.7185C40.3054 21.0917 40.0647 21.4113 39.7327 21.6071C39.4007 21.8028 39.0045 21.8587 38.6313 21.7623C38.2581 21.666 37.9385 21.4253 37.7428 21.0933C37.547 20.7613 37.4912 20.3651 37.5875 19.9919C37.9528 18.5713 38.6523 17.2586 39.6278 16.1632C40.6033 15.0678 41.8265 14.2214 43.1954 13.6946C44.5643 13.1678 46.0394 12.9758 47.4975 13.1347C48.9557 13.2936 50.3548 13.7987 51.5782 14.6079C52.8015 15.4172 53.8137 16.5071 54.5304 17.7869C55.2471 19.0667 55.6476 20.4993 55.6983 21.9652C55.7491 23.4311 55.4487 24.8879 54.8223 26.2142C54.1958 27.5405 53.2614 28.6979 52.097 29.5898C54.9624 30.6591 57.4589 32.5317 59.2875 34.9833C59.402 35.136 59.4853 35.3097 59.5327 35.4946C59.58 35.6794 59.5905 35.8718 59.5635 36.0607C59.5365 36.2496 59.4726 36.4314 59.3754 36.5956C59.2782 36.7598 59.1495 36.9032 58.9969 37.0177ZM45.8195 52.5661C45.9151 52.7313 45.9772 52.9138 46.0023 53.103C46.0274 53.2922 46.015 53.4846 45.9657 53.669C45.9165 53.8534 45.8313 54.0263 45.7152 54.1778C45.5991 54.3294 45.4543 54.4565 45.2891 54.5521C45.0688 54.6812 44.8179 54.7489 44.5625 54.7482C44.3073 54.7484 44.0565 54.6813 43.8354 54.5538C43.6143 54.4262 43.4307 54.2427 43.3031 54.0217C42.04 51.8816 40.2407 50.108 38.0826 48.8758C35.9246 47.6437 33.4826 46.9956 30.9976 46.9956C28.5126 46.9956 26.0705 47.6437 23.9125 48.8758C21.7545 50.108 19.9551 51.8816 18.692 54.0217C18.6012 54.1953 18.4762 54.3488 18.3245 54.4729C18.1728 54.597 17.9975 54.6891 17.8093 54.7437C17.6211 54.7983 17.4238 54.8143 17.2292 54.7906C17.0347 54.767 16.8469 54.7043 16.6772 54.6062C16.5076 54.5081 16.3595 54.3767 16.2419 54.2199C16.1243 54.0631 16.0397 53.8842 15.993 53.6938C15.9464 53.5035 15.9388 53.3057 15.9706 53.1123C16.0024 52.9189 16.073 52.7339 16.1781 52.5686C18.1574 49.1679 21.2564 46.5603 24.9453 45.1915C22.9302 43.8831 21.3921 41.9584 20.5603 39.7043C19.7286 37.4503 19.6478 34.9877 20.3301 32.684C21.0124 30.3803 22.4211 28.3589 24.3462 26.9214C26.2713 25.4838 28.6095 24.7071 31.0121 24.7071C33.4147 24.7071 35.7529 25.4838 37.678 26.9214C39.6031 28.3589 41.0118 30.3803 41.6941 32.684C42.3764 34.9877 42.2956 37.4503 41.4639 39.7043C40.6322 41.9584 39.094 43.8831 37.0789 45.1915C40.7576 46.565 43.8464 49.1711 45.8195 52.5661ZM31 44.0896C32.6286 44.0896 34.2206 43.6066 35.5748 42.7018C36.9289 41.797 37.9843 40.511 38.6076 39.0064C39.2308 37.5017 39.3939 35.8461 39.0762 34.2488C38.7584 32.6514 37.9742 31.1842 36.8226 30.0326C35.671 28.881 34.2038 28.0968 32.6064 27.779C31.0091 27.4613 29.3535 27.6244 27.8488 28.2476C26.3442 28.8709 25.0582 29.9263 24.1534 31.2804C23.2486 32.6346 22.7656 34.2266 22.7656 35.8552C22.7656 38.0391 23.6332 40.1335 25.1774 41.6778C26.7217 43.222 28.8161 44.0896 31 44.0896ZM16.9531 30.0427C16.9531 29.6573 16.8 29.2877 16.5275 29.0152C16.255 28.7427 15.8854 28.5896 15.5 28.5896C14.3225 28.5892 13.1686 28.2587 12.1695 27.6355C11.1704 27.0123 10.366 26.1214 9.84777 25.0641C9.32952 24.0067 9.11813 22.8252 9.23761 21.6538C9.35709 20.4823 9.80266 19.3678 10.5237 18.4369C11.2448 17.5059 12.2124 16.7958 13.3168 16.3872C14.4211 15.9785 15.6179 15.8877 16.7713 16.1251C17.9247 16.3625 18.9884 16.9185 19.8416 17.73C20.6948 18.5415 21.3034 19.576 21.5983 20.7161C21.646 20.9008 21.7296 21.0744 21.8444 21.2269C21.9592 21.3793 22.1029 21.5077 22.2673 21.6046C22.4317 21.7016 22.6136 21.7652 22.8025 21.7918C22.9915 21.8184 23.1839 21.8076 23.3687 21.7599C23.5535 21.7122 23.727 21.6285 23.8795 21.5138C24.032 21.399 24.1603 21.2553 24.2572 21.0909C24.3542 20.9265 24.4178 20.7446 24.4444 20.5556C24.471 20.3667 24.4602 20.1743 24.4125 19.9895C24.0472 18.5689 23.3477 17.2562 22.3722 16.1608C21.3967 15.0654 20.1735 14.219 18.8046 13.6922C17.4357 13.1654 15.9606 12.9734 14.5025 13.1323C13.0443 13.2911 11.6452 13.7963 10.4218 14.6055C9.19847 15.4148 8.18625 16.5047 7.46955 17.7845C6.75286 19.0643 6.35244 20.4968 6.30167 21.9628C6.25091 23.4287 6.55128 24.8855 7.17773 26.2118C7.80419 27.5381 8.73859 28.6955 9.90305 29.5874C7.03729 30.6573 4.54075 32.5308 2.7125 34.9833C2.598 35.136 2.5147 35.3097 2.46734 35.4946C2.41998 35.6794 2.40949 35.8718 2.43648 36.0607C2.46347 36.2496 2.5274 36.4314 2.62462 36.5956C2.72185 36.7598 2.85046 36.9032 3.00313 37.0177C3.15579 37.1322 3.32951 37.2155 3.51436 37.2629C3.69922 37.3102 3.89159 37.3207 4.0805 37.2937C4.26941 37.2667 4.45116 37.2028 4.61536 37.1056C4.77956 37.0083 4.923 36.8797 5.0375 36.7271C6.25015 35.0969 7.82864 33.7743 9.64587 32.8657C11.4631 31.9571 13.4683 31.4879 15.5 31.4958C15.8854 31.4958 16.255 31.3427 16.5275 31.0702C16.8 30.7977 16.9531 30.4281 16.9531 30.0427Z" fill="#56F09F"/>
</svg>
