<svg width="62" height="63" viewBox="0 0 62 63" fill="none" xmlns="http://www.w3.org/2000/svg">
<path d="M54.25 13.0898H38.75C37.2053 13.091 35.6857 13.4809 34.3313 14.2237C32.9769 14.9665 31.8313 16.0383 31 17.3402C30.1687 16.0383 29.0231 14.9665 27.6687 14.2237C26.3143 13.4809 24.7947 13.091 23.25 13.0898H7.75C6.85075 13.0898 5.98833 13.4471 5.35247 14.0829C4.7166 14.7188 4.35938 15.5812 4.35938 16.4805V47.4805C4.35938 48.3797 4.7166 49.2421 5.35247 49.878C5.98833 50.5139 6.85075 50.8711 7.75 50.8711H23.25C24.92 50.8711 26.5217 51.5345 27.7026 52.7154C28.8835 53.8963 29.5469 55.4979 29.5469 57.168C29.5469 57.5534 29.7 57.923 29.9725 58.1955C30.245 58.468 30.6146 58.6211 31 58.6211C31.3854 58.6211 31.755 58.468 32.0275 58.1955C32.3 57.923 32.4531 57.5534 32.4531 57.168C32.4531 55.4979 33.1165 53.8963 34.2974 52.7154C35.4783 51.5345 37.08 50.8711 38.75 50.8711H54.25C55.1492 50.8711 56.0117 50.5139 56.6475 49.878C57.2834 49.2421 57.6406 48.3797 57.6406 47.4805V16.4805C57.6406 15.5812 57.2834 14.7188 56.6475 14.0829C56.0117 13.4471 55.1492 13.0898 54.25 13.0898ZM23.25 47.9648H7.75C7.62154 47.9648 7.49833 47.9138 7.4075 47.823C7.31666 47.7321 7.26562 47.6089 7.26562 47.4805V16.4805C7.26562 16.352 7.31666 16.2288 7.4075 16.138C7.49833 16.0471 7.62154 15.9961 7.75 15.9961H23.25C24.92 15.9961 26.5217 16.6595 27.7026 17.8404C28.8835 19.0213 29.5469 20.6229 29.5469 22.293V50.4618C27.8436 48.8563 25.5907 47.9629 23.25 47.9648ZM54.7344 47.4805C54.7344 47.6089 54.6833 47.7321 54.5925 47.823C54.5017 47.9138 54.3785 47.9648 54.25 47.9648H38.75C36.409 47.9638 34.1562 48.858 32.4531 50.4642V22.293C32.4531 20.6229 33.1165 19.0213 34.2974 17.8404C35.4783 16.6595 37.08 15.9961 38.75 15.9961H54.25C54.3785 15.9961 54.5017 16.0471 54.5925 16.138C54.6833 16.2288 54.7344 16.352 54.7344 16.4805V47.4805ZM49.8906 24.2305C49.8906 24.6159 49.7375 24.9855 49.465 25.258C49.1925 25.5305 48.8229 25.6836 48.4375 25.6836H38.75C38.3646 25.6836 37.995 25.5305 37.7225 25.258C37.45 24.9855 37.2969 24.6159 37.2969 24.2305C37.2969 23.8451 37.45 23.4755 37.7225 23.203C37.995 22.9304 38.3646 22.7773 38.75 22.7773H48.4375C48.8229 22.7773 49.1925 22.9304 49.465 23.203C49.7375 23.4755 49.8906 23.8451 49.8906 24.2305ZM49.8906 31.9805C49.8906 32.3659 49.7375 32.7355 49.465 33.008C49.1925 33.2805 48.8229 33.4336 48.4375 33.4336H38.75C38.3646 33.4336 37.995 33.2805 37.7225 33.008C37.45 32.7355 37.2969 32.3659 37.2969 31.9805C37.2969 31.5951 37.45 31.2255 37.7225 30.953C37.995 30.6804 38.3646 30.5273 38.75 30.5273H48.4375C48.8229 30.5273 49.1925 30.6804 49.465 30.953C49.7375 31.2255 49.8906 31.5951 49.8906 31.9805ZM49.8906 39.7305C49.8906 40.1159 49.7375 40.4855 49.465 40.758C49.1925 41.0305 48.8229 41.1836 48.4375 41.1836H38.75C38.3646 41.1836 37.995 41.0305 37.7225 40.758C37.45 40.4855 37.2969 40.1159 37.2969 39.7305C37.2969 39.3451 37.45 38.9755 37.7225 38.703C37.995 38.4304 38.3646 38.2773 38.75 38.2773H48.4375C48.8229 38.2773 49.1925 38.4304 49.465 38.703C49.7375 38.9755 49.8906 39.3451 49.8906 39.7305Z" fill="#56F09F"/>
</svg>
