<svg width="24" height="25" viewBox="0 0 24 25" fill="none" xmlns="http://www.w3.org/2000/svg">
<g clip-path="url(#clip0_200_953)">
<path d="M22.2234 0.980469H1.77187C0.792187 0.980469 0 1.75391 0 2.71016V23.2461C0 24.2023 0.792187 24.9805 1.77187 24.9805H22.2234C23.2031 24.9805 24 24.2023 24 23.2508V2.71016C24 1.75391 23.2031 0.980469 22.2234 0.980469ZM7.12031 21.432H3.55781V9.97578H7.12031V21.432ZM5.33906 8.41484C4.19531 8.41484 3.27188 7.49141 3.27188 6.35234C3.27188 5.21328 4.19531 4.28984 5.33906 4.28984C6.47813 4.28984 7.40156 5.21328 7.40156 6.35234C7.40156 7.48672 6.47813 8.41484 5.33906 8.41484ZM20.4516 21.432H16.8937V15.8633C16.8937 14.5367 16.8703 12.8258 15.0422 12.8258C13.1906 12.8258 12.9094 14.2742 12.9094 15.7695V21.432H9.35625V9.97578H12.7687V11.5414H12.8156C13.2891 10.6414 14.4516 9.68984 16.1813 9.68984C19.7859 9.68984 20.4516 12.0617 20.4516 15.1461V21.432V21.432Z" fill="#56F09F"/>
</g>
<defs>
<clipPath id="clip0_200_953">
<rect width="24" height="24" fill="white" transform="translate(0 0.980469)"/>
</clipPath>
</defs>
</svg>
