<svg width="78" height="77" viewBox="0 0 78 77" fill="none" xmlns="http://www.w3.org/2000/svg">
<path d="M6.20347 61.3854C6.78987 66.6347 10.9863 70.8291 16.2334 71.4361C22.1626 72.1219 28.2893 72.7983 34.5579 72.7983C40.8265 72.7983 46.9532 72.1219 52.8824 71.4361C58.1296 70.8291 62.3262 66.6347 62.9124 61.3854C63.5714 55.4842 64.2079 49.3869 64.2079 43.1487C64.2079 36.9106 63.5714 30.8134 62.9124 24.9123C62.3262 19.6628 58.1296 15.4684 52.8824 14.8615C46.9532 14.1756 40.8265 13.499 34.5579 13.499C28.2893 13.499 22.1626 14.1756 16.2334 14.8615C10.9863 15.4684 6.78987 19.6628 6.20347 24.9123C5.54428 30.8134 4.9082 36.9106 4.9082 43.1487C4.9082 49.3869 5.54428 55.4842 6.20347 61.3854Z" fill="#F2FFE3"/>
<path d="M30.1967 13.6001C25.4429 13.8142 20.7801 14.3347 16.2335 14.8606C10.9863 15.4676 6.78987 19.6619 6.20347 24.9115C5.54428 30.8125 4.9082 36.9097 4.9082 43.1479C4.9082 49.3861 5.54428 55.4832 6.20347 61.3844C6.78987 66.6337 10.9863 70.8281 16.2334 71.4351C22.1626 72.1209 28.2893 72.7979 34.5579 72.7979C40.8265 72.7979 46.9532 72.1209 52.8824 71.4351C58.1296 70.8281 62.3262 66.6342 62.9124 61.3844C63.3865 57.1397 63.8486 52.7933 64.0707 48.366" stroke="#004737" stroke-width="5.4686" stroke-linecap="round"/>
<path d="M55.9995 7.54136L35.8482 30.4064L33.0875 43.3907C32.6433 45.4799 34.8211 47.4567 36.8605 46.8156L49.7818 42.7535L70.5957 20.8522C74.053 17.2147 73.4498 11.1306 69.2652 7.42942C65.1785 3.81489 59.2396 3.86502 55.9995 7.54136Z" fill="#D3FFE7"/>
<path d="M55.9995 7.54136L35.8482 30.4064L33.0875 43.3907C32.6433 45.4799 34.8211 47.4567 36.8605 46.8156L49.7818 42.7535L70.5957 20.8522C74.053 17.2147 73.4498 11.1306 69.2652 7.42942C65.1785 3.81489 59.2396 3.86502 55.9995 7.54136Z" stroke="#004737" stroke-width="5.4686" stroke-linecap="round" stroke-linejoin="round"/>
</svg>
