<svg width="77" height="77" viewBox="0 0 77 77" fill="none" xmlns="http://www.w3.org/2000/svg">
<path fill-rule="evenodd" clip-rule="evenodd" d="M48.9262 24.7484L49.6068 26.9553L51.8134 27.6358C55.6874 28.8305 59.9043 27.7845 62.7704 24.918L67.1977 20.4903C69.7221 25.346 71.0323 31.3179 71.0323 38.3091C71.0323 59.2895 59.2305 71.0907 38.2505 71.0907C17.2702 71.0907 5.46875 59.2895 5.46875 38.3091C5.46875 17.3288 17.2702 5.52734 38.2505 5.52734C45.2431 5.52734 51.216 6.83828 56.0724 9.36307L51.6438 13.7917C48.7774 16.6581 47.7316 20.8748 48.9262 24.7484Z" fill="#F2FFE3"/>
<path d="M71.0323 38.3091C71.0323 59.2895 59.2305 71.0907 38.2505 71.0907C17.2702 71.0907 5.46875 59.2895 5.46875 38.3091C5.46875 17.3288 17.2702 5.52734 38.2505 5.52734" stroke="#004737" stroke-width="5.4686" stroke-linecap="round" stroke-linejoin="round"/>
<path d="M33.0045 21.8047C25.3934 23.5321 21.2031 29.288 21.2031 38.3031C21.2031 49.2128 27.3399 55.3497 38.2496 55.3497C47.7073 55.3497 53.5779 50.7377 54.9733 42.4025" stroke="#004737" stroke-width="5.4686" stroke-linecap="round" stroke-linejoin="round"/>
<path d="M38.25 38.3091L49.611 26.9482" stroke="#004737" stroke-width="5.4686" stroke-linecap="round" stroke-linejoin="round"/>
<path d="M49.606 26.9542L48.9254 24.7473C47.7308 20.8736 48.7767 16.657 51.643 13.7905L59.9643 5.46875L62.587 13.9728L71.0907 16.5953L62.7697 24.9168C59.9031 27.7834 55.6862 28.8293 51.8127 27.6347L49.606 26.9542Z" fill="#D3FFE7"/>
<path d="M49.606 26.9542L48.9254 24.7473C47.7308 20.8736 48.7767 16.657 51.643 13.7905L59.9643 5.46875L62.587 13.9728L71.0907 16.5953L62.7697 24.9168C59.9031 27.7834 55.6862 28.8293 51.8127 27.6347L49.606 26.9542Z" stroke="#004737" stroke-width="5.4686" stroke-linecap="round" stroke-linejoin="round"/>
</svg>
