<svg width="32" height="32" viewBox="0 0 32 32" fill="none" xmlns="http://www.w3.org/2000/svg">
<path d="M28.53 7.47032L24.53 3.47032C24.3894 3.32987 24.1988 3.25098 24 3.25098C23.8012 3.25098 23.6106 3.32987 23.47 3.47032L11.47 15.4703C11.3293 15.6108 11.2502 15.8015 11.25 16.0003V20.0003C11.25 20.1992 11.329 20.39 11.4697 20.5306C11.6103 20.6713 11.8011 20.7503 12 20.7503H16C16.1988 20.7501 16.3895 20.671 16.53 20.5303L28.53 8.53032C28.6705 8.38969 28.7493 8.19907 28.7493 8.00032C28.7493 7.80157 28.6705 7.61094 28.53 7.47032ZM15.6888 19.2503H12.75V16.3116L21 8.06157L23.9387 11.0003L15.6888 19.2503ZM25 9.93907L22.0613 7.00032L24 5.06157L26.9387 8.00032L25 9.93907ZM27.75 15.0003V26.0003C27.75 26.4644 27.5656 26.9096 27.2374 27.2378C26.9092 27.5659 26.4641 27.7503 26 27.7503H6C5.53587 27.7503 5.09075 27.5659 4.76256 27.2378C4.43437 26.9096 4.25 26.4644 4.25 26.0003V6.00032C4.25 5.53619 4.43437 5.09107 4.76256 4.76288C5.09075 4.43469 5.53587 4.25032 6 4.25032H17C17.1989 4.25032 17.3897 4.32933 17.5303 4.46999C17.671 4.61064 17.75 4.8014 17.75 5.00032C17.75 5.19923 17.671 5.38999 17.5303 5.53065C17.3897 5.6713 17.1989 5.75032 17 5.75032H6C5.9337 5.75032 5.87011 5.77666 5.82322 5.82354C5.77634 5.87042 5.75 5.93401 5.75 6.00032V26.0003C5.75 26.0666 5.77634 26.1302 5.82322 26.1771C5.87011 26.224 5.9337 26.2503 6 26.2503H26C26.0663 26.2503 26.1299 26.224 26.1768 26.1771C26.2237 26.1302 26.25 26.0666 26.25 26.0003V15.0003C26.25 14.8014 26.329 14.6106 26.4697 14.47C26.6103 14.3293 26.8011 14.2503 27 14.2503C27.1989 14.2503 27.3897 14.3293 27.5303 14.47C27.671 14.6106 27.75 14.8014 27.75 15.0003Z" fill="#0A1A2D"/>
</svg>
