<svg width="32" height="32" viewBox="0 0 32 32" fill="none" xmlns="http://www.w3.org/2000/svg">
<path d="M24.6107 16.3675L18.1544 13.9925C18.1219 13.9801 18.0923 13.961 18.0675 13.9364C18.0427 13.9119 18.0234 13.8825 18.0107 13.85L15.6357 7.3925C15.5126 7.05867 15.2901 6.77062 14.9982 6.56716C14.7063 6.3637 14.359 6.25462 14.0032 6.25462C13.6474 6.25462 13.3001 6.3637 13.0082 6.56716C12.7163 6.77062 12.4938 7.05867 12.3707 7.3925L9.9957 13.8488C9.98328 13.8813 9.96419 13.9109 9.93965 13.9357C9.9151 13.9604 9.88566 13.9798 9.8532 13.9925L3.3957 16.3675C3.06187 16.4906 2.77381 16.7131 2.57035 17.005C2.36689 17.2969 2.25781 17.6442 2.25781 18C2.25781 18.3558 2.36689 18.7031 2.57035 18.995C2.77381 19.2869 3.06187 19.5094 3.3957 19.6325L9.85195 22.0075C9.88452 22.0199 9.91413 22.039 9.93889 22.0636C9.96364 22.0881 9.98299 22.1175 9.9957 22.15L12.3707 28.6075C12.4938 28.9413 12.7163 29.2294 13.0082 29.4328C13.3001 29.6363 13.6474 29.7454 14.0032 29.7454C14.359 29.7454 14.7063 29.6363 14.9982 29.4328C15.2901 29.2294 15.5126 28.9413 15.6357 28.6075L18.0107 22.1513C18.0231 22.1187 18.0422 22.0891 18.0667 22.0643C18.0913 22.0396 18.1207 22.0202 18.1532 22.0075L24.6107 19.6325C24.9445 19.5094 25.2326 19.2869 25.436 18.995C25.6395 18.7031 25.7486 18.3558 25.7486 18C25.7486 17.6442 25.6395 17.2969 25.436 17.005C25.2326 16.7131 24.9445 16.4906 24.6107 16.3675ZM24.0919 18.225L17.6344 20.6C17.3981 20.6873 17.1836 20.8248 17.0055 21.0031C16.8275 21.1813 16.6902 21.3961 16.6032 21.6325L14.2282 28.0888C14.2111 28.1347 14.1805 28.1743 14.1402 28.2023C14.1 28.2302 14.0522 28.2452 14.0032 28.2452C13.9542 28.2452 13.9064 28.2302 13.8662 28.2023C13.8259 28.1743 13.7952 28.1347 13.7782 28.0888L11.4032 21.6313C11.3156 21.3953 11.1781 21.181 11.0001 21.0031C10.8221 20.8251 10.6079 20.6876 10.3719 20.6L3.9157 18.225C3.86977 18.208 3.83015 18.1773 3.80218 18.137C3.77421 18.0968 3.75921 18.049 3.75921 18C3.75921 17.951 3.77421 17.9032 3.80218 17.863C3.83015 17.8227 3.86977 17.792 3.9157 17.775L10.3732 15.4C10.6095 15.3127 10.8241 15.1752 11.0021 14.9969C11.1801 14.8187 11.3174 14.6039 11.4044 14.3675L13.7794 7.91125C13.7965 7.86532 13.8272 7.82571 13.8674 7.79773C13.9076 7.76976 13.9555 7.75477 14.0044 7.75477C14.0534 7.75477 14.1013 7.76976 14.1415 7.79773C14.1817 7.82571 14.2124 7.86532 14.2294 7.91125L16.6044 14.3687C16.6918 14.6051 16.8293 14.8196 17.0075 14.9977C17.1858 15.1757 17.4005 15.313 17.6369 15.4L24.0932 17.775C24.1391 17.792 24.1787 17.8227 24.2067 17.863C24.2347 17.9032 24.2497 17.951 24.2497 18C24.2497 18.049 24.2347 18.0968 24.2067 18.137C24.1787 18.1773 24.1391 18.208 24.0932 18.225H24.0919ZM18.2494 5C18.2494 4.80109 18.3285 4.61032 18.4691 4.46967C18.6098 4.32902 18.8005 4.25 18.9994 4.25H21.2494V2C21.2494 1.80109 21.3285 1.61032 21.4691 1.46967C21.6098 1.32902 21.8005 1.25 21.9994 1.25C22.1984 1.25 22.3891 1.32902 22.5298 1.46967C22.6704 1.61032 22.7494 1.80109 22.7494 2V4.25H24.9994C25.1984 4.25 25.3891 4.32902 25.5298 4.46967C25.6704 4.61032 25.7494 4.80109 25.7494 5C25.7494 5.19891 25.6704 5.38968 25.5298 5.53033C25.3891 5.67098 25.1984 5.75 24.9994 5.75H22.7494V8C22.7494 8.19891 22.6704 8.38968 22.5298 8.53033C22.3891 8.67098 22.1984 8.75 21.9994 8.75C21.8005 8.75 21.6098 8.67098 21.4691 8.53033C21.3285 8.38968 21.2494 8.19891 21.2494 8V5.75H18.9994C18.8005 5.75 18.6098 5.67098 18.4691 5.53033C18.3285 5.38968 18.2494 5.19891 18.2494 5ZM30.7494 11C30.7494 11.1989 30.6704 11.3897 30.5298 11.5303C30.3891 11.671 30.1984 11.75 29.9994 11.75H28.7494V13C28.7494 13.1989 28.6704 13.3897 28.5298 13.5303C28.3891 13.671 28.1984 13.75 27.9994 13.75C27.8005 13.75 27.6098 13.671 27.4691 13.5303C27.3285 13.3897 27.2494 13.1989 27.2494 13V11.75H25.9994C25.8005 11.75 25.6098 11.671 25.4691 11.5303C25.3285 11.3897 25.2494 11.1989 25.2494 11C25.2494 10.8011 25.3285 10.6103 25.4691 10.4697C25.6098 10.329 25.8005 10.25 25.9994 10.25H27.2494V9C27.2494 8.80109 27.3285 8.61032 27.4691 8.46967C27.6098 8.32902 27.8005 8.25 27.9994 8.25C28.1984 8.25 28.3891 8.32902 28.5298 8.46967C28.6704 8.61032 28.7494 8.80109 28.7494 9V10.25H29.9994C30.1984 10.25 30.3891 10.329 30.5298 10.4697C30.6704 10.6103 30.7494 10.8011 30.7494 11Z" fill="#091E42"/>
</svg>
