<svg width="32" height="32" viewBox="0 0 32 32" fill="none" xmlns="http://www.w3.org/2000/svg">
<path d="M26 6.25022C24.438 6.24923 22.8947 6.59057 21.4788 7.25022C19.645 4.01272 16.4787 2.40147 16.335 2.32897C16.231 2.27704 16.1163 2.25 16 2.25C15.8837 2.25 15.769 2.27704 15.665 2.32897C15.5225 2.40147 12.355 4.01272 10.5212 7.25022C9.10533 6.59057 7.56204 6.24923 6 6.25022C5.80109 6.25022 5.61032 6.32924 5.46967 6.46989C5.32902 6.61055 5.25 6.80131 5.25 7.00022V12.0002C5.25359 14.7202 6.2869 17.3379 8.14213 19.3269C9.99735 21.316 12.5369 22.5288 15.25 22.7215V27.7865L10.335 25.329C10.157 25.2401 9.95094 25.2256 9.76224 25.2887C9.57353 25.3518 9.4176 25.4872 9.32875 25.6652C9.2399 25.8433 9.22541 26.0493 9.28847 26.238C9.35153 26.4267 9.48697 26.5826 9.665 26.6715L15.665 29.6715C15.769 29.7234 15.8837 29.7505 16 29.7505C16.1163 29.7505 16.231 29.7234 16.335 29.6715L22.335 26.6715C22.4231 26.6275 22.5018 26.5666 22.5664 26.4922C22.631 26.4178 22.6803 26.3314 22.7115 26.238C22.7428 26.1446 22.7553 26.0459 22.7484 25.9476C22.7414 25.8493 22.7152 25.7534 22.6712 25.6652C22.6273 25.5771 22.5663 25.4985 22.492 25.4338C22.4176 25.3692 22.3312 25.3199 22.2378 25.2887C22.1443 25.2575 22.0457 25.245 21.9474 25.2519C21.8491 25.2588 21.7532 25.285 21.665 25.329L16.75 27.7865V22.7215C19.4631 22.5288 22.0026 21.316 23.8579 19.3269C25.7131 17.3379 26.7464 14.7202 26.75 12.0002V7.00022C26.75 6.80131 26.671 6.61055 26.5303 6.46989C26.3897 6.32924 26.1989 6.25022 26 6.25022ZM16 3.86022C16.8075 4.34022 18.8837 5.73522 20.1663 7.97772C18.2834 9.19925 16.8273 10.9764 16 13.0627C15.1727 10.9764 13.7166 9.19925 11.8337 7.97772C13.1163 5.72897 15.1925 4.33897 16 3.86022ZM6.75 12.0002V7.78022C9.06467 7.97171 11.223 9.02568 12.7973 10.7333C14.3715 12.441 15.2469 14.6776 15.25 17.0002V21.2202C12.9352 21.029 10.7768 19.9751 9.20241 18.2674C7.62807 16.5597 6.75277 14.3229 6.75 12.0002ZM25.25 12.0002C25.2472 14.3229 24.3719 16.5597 22.7976 18.2674C21.2232 19.9751 19.0648 21.029 16.75 21.2202V17.0002C16.7531 14.6776 17.6285 12.441 19.2027 10.7333C20.777 9.02568 22.9353 7.97171 25.25 7.78022V12.0002Z" fill="#091E42"/>
</svg>
