<svg width="32" height="32" viewBox="0 0 32 32" fill="none" xmlns="http://www.w3.org/2000/svg">
<path d="M14.075 19.8034C15.4678 19.014 16.5601 17.7858 17.1815 16.3104C17.8029 14.835 17.9186 13.1955 17.5104 11.6475C17.1022 10.0995 16.1931 8.73015 14.925 7.75306C13.6568 6.77597 12.1009 6.24609 10.5 6.24609C8.89911 6.24609 7.34323 6.77597 6.07508 7.75306C4.80694 8.73015 3.89786 10.0995 3.48966 11.6475C3.08146 13.1955 3.1971 14.835 3.81854 16.3104C4.43999 17.7858 5.53228 19.014 6.92502 19.8034C4.34374 20.6263 2.12695 22.3175 0.651269 24.5896C0.54253 24.7562 0.504422 24.9592 0.545329 25.1539C0.586235 25.3486 0.702805 25.519 0.869394 25.6278C1.03598 25.7365 1.23895 25.7746 1.43363 25.7337C1.62832 25.6928 1.79878 25.5762 1.90752 25.4096C2.83828 23.9786 4.11173 22.8026 5.61227 21.9886C7.1128 21.1745 8.79289 20.7481 10.5 20.7481C12.2071 20.7481 13.8872 21.1745 15.3878 21.9886C16.8883 22.8026 18.1618 23.9786 19.0925 25.4096C19.2083 25.5581 19.3758 25.6575 19.5615 25.6882C19.7473 25.7189 19.9378 25.6786 20.0952 25.5754C20.2526 25.4721 20.3655 25.3134 20.4113 25.1308C20.4571 24.9482 20.4325 24.755 20.3425 24.5896C18.8684 22.3186 16.654 20.6276 14.075 19.8034ZM4.75002 13.4996C4.75002 12.3624 5.08725 11.2507 5.71907 10.3051C6.35089 9.35952 7.24891 8.62253 8.29959 8.18732C9.35026 7.75212 10.5064 7.63825 11.6218 7.86012C12.7372 8.08198 13.7617 8.62962 14.5659 9.43377C15.37 10.2379 15.9177 11.2625 16.1395 12.3779C16.3614 13.4933 16.2475 14.6494 15.8123 15.7001C15.3771 16.7507 14.6401 17.6488 13.6945 18.2806C12.749 18.9124 11.6373 19.2496 10.5 19.2496C8.97563 19.2476 7.51425 18.6412 6.43635 17.5633C5.35844 16.4854 4.752 15.024 4.75002 13.4996ZM31.125 25.6246C30.9586 25.7333 30.7558 25.7714 30.5613 25.7306C30.3667 25.6898 30.1963 25.5735 30.0875 25.4071C29.1584 23.9759 27.8859 22.8 26.386 21.9865C24.886 21.173 23.2064 20.7478 21.5 20.7496C21.3011 20.7496 21.1103 20.6706 20.9697 20.53C20.829 20.3893 20.75 20.1985 20.75 19.9996C20.75 19.8007 20.829 19.61 20.9697 19.4693C21.1103 19.3286 21.3011 19.2496 21.5 19.2496C22.3467 19.2488 23.1828 19.0609 23.9486 18.6995C24.7143 18.3381 25.3907 17.812 25.9296 17.1589C26.4684 16.5057 26.8564 15.7417 27.0657 14.9212C27.2751 14.1008 27.3006 13.2442 27.1406 12.4127C26.9805 11.5813 26.6388 10.7954 26.1399 10.1113C25.6409 9.42722 24.997 8.86175 24.2542 8.45533C23.5114 8.0489 22.688 7.81154 21.8428 7.76021C20.9976 7.70888 20.1516 7.84484 19.365 8.15838C19.2734 8.19589 19.1753 8.21489 19.0763 8.2143C18.9773 8.2137 18.8794 8.19352 18.7883 8.15491C18.6972 8.1163 18.6146 8.06003 18.5453 7.98935C18.476 7.91866 18.4213 7.83496 18.3846 7.74307C18.3478 7.65118 18.3295 7.55291 18.3309 7.45393C18.3323 7.35496 18.3532 7.25723 18.3925 7.16639C18.4319 7.07555 18.4888 6.99339 18.56 6.92465C18.6312 6.85591 18.7153 6.80195 18.8075 6.76588C20.5135 6.08572 22.4141 6.0784 24.1254 6.74538C25.8366 7.41237 27.2309 8.70395 28.0266 10.3592C28.8224 12.0145 28.9602 13.9101 28.4123 15.6631C27.8645 17.4161 26.6717 18.8958 25.075 19.8034C27.6563 20.6263 29.8731 22.3175 31.3488 24.5896C31.456 24.7566 31.4927 24.9594 31.4508 25.1534C31.4088 25.3474 31.2917 25.5168 31.125 25.6246Z" fill="#0A1A2D"/>
</svg>
