<svg width="32" height="32" viewBox="0 0 32 32" fill="none" xmlns="http://www.w3.org/2000/svg">
<path d="M27.0005 13.2495H10.8355L26.1917 9.19578C26.2875 9.17055 26.3773 9.1266 26.456 9.06648C26.5347 9.00635 26.6007 8.93124 26.6502 8.84548C26.6997 8.75971 26.7317 8.66499 26.7444 8.56678C26.7571 8.46857 26.7503 8.36882 26.7242 8.27328L25.7042 4.52328C25.5808 4.08208 25.2887 3.7072 24.891 3.47981C24.4933 3.25241 24.022 3.19079 23.5792 3.30828L4.54046 8.33328C4.31887 8.39082 4.11099 8.49198 3.92897 8.63085C3.74696 8.76972 3.59448 8.9435 3.48046 9.14203C3.36695 9.33693 3.29346 9.55251 3.26427 9.77615C3.23508 9.9998 3.25078 10.227 3.31046 10.4445L4.25046 13.917C4.25046 13.9445 4.25046 13.972 4.25046 13.9995V24.9995C4.25046 25.4637 4.43484 25.9088 4.76302 26.237C5.09121 26.5652 5.53633 26.7495 6.00046 26.7495H26.0005C26.4646 26.7495 26.9097 26.5652 27.2379 26.237C27.5661 25.9088 27.7505 25.4637 27.7505 24.9995V13.9995C27.7505 13.8006 27.6714 13.6099 27.5308 13.4692C27.3901 13.3285 27.1994 13.2495 27.0005 13.2495ZM15.7192 6.93453L19.8442 9.31828L14.5405 10.7183L10.4155 8.33453L15.7192 6.93453ZM23.9692 4.75828C24.0289 4.74174 24.0926 4.74889 24.1471 4.77824C24.2016 4.80759 24.2427 4.85687 24.2617 4.91578L25.083 7.93828L21.908 8.77453L17.783 6.39078L23.9692 4.75828ZM4.77921 9.89203C4.79467 9.8652 4.81536 9.84175 4.84005 9.82307C4.86475 9.80439 4.89294 9.79086 4.92296 9.78328L8.35796 8.87453L12.483 11.2595L5.58296 13.0845L4.75796 10.0508C4.7506 10.0243 4.74868 9.99651 4.75233 9.96923C4.75599 9.94194 4.76513 9.91568 4.77921 9.89203ZM26.2505 24.9995C26.2505 25.0658 26.2241 25.1294 26.1772 25.1763C26.1304 25.2232 26.0668 25.2495 26.0005 25.2495H6.00046C5.93416 25.2495 5.87057 25.2232 5.82368 25.1763C5.7768 25.1294 5.75046 25.0658 5.75046 24.9995V14.7495H26.2505V24.9995Z" fill="#0A1A2D"/>
</svg>
