<svg width="27" height="27" viewBox="0 0 27 27" fill="none" xmlns="http://www.w3.org/2000/svg">
<path d="M26.7492 7.99985C26.7491 6.46737 26.2948 4.9693 25.4435 3.695C24.5922 2.4207 23.3823 1.42738 21.9666 0.840605C20.5509 0.253831 18.993 0.0999426 17.4899 0.398392C15.9867 0.696842 14.6058 1.43423 13.5217 2.51735L4.76168 11.1761C4.59885 11.3384 4.46973 11.5313 4.38177 11.7436C4.29381 11.956 4.24875 12.1837 4.24918 12.4136V21.6898L0.469177 25.4698C0.39549 25.5385 0.336388 25.6213 0.295396 25.7133C0.254404 25.8053 0.232362 25.9046 0.230585 26.0053C0.228809 26.106 0.247333 26.2061 0.285054 26.2994C0.322775 26.3928 0.37892 26.4777 0.450139 26.5489C0.521357 26.6201 0.606191 26.6763 0.69958 26.714C0.792968 26.7517 0.892997 26.7702 0.9937 26.7684C1.0944 26.7667 1.19372 26.7446 1.28572 26.7036C1.37771 26.6626 1.46052 26.6035 1.52918 26.5299L5.30918 22.7498H14.5854C14.8153 22.7503 15.043 22.7052 15.2554 22.6173C15.4678 22.5293 15.6607 22.4002 15.8229 22.2373L24.4267 13.5336L24.4754 13.4836C25.1984 12.7655 25.7717 11.911 26.162 10.9697C26.5523 10.0283 26.7519 9.01889 26.7492 7.99985ZM14.5792 3.57985C15.7386 2.42994 17.302 1.77945 18.9349 1.76756C20.5678 1.75567 22.1405 2.38332 23.3165 3.51623C24.4925 4.64913 25.1785 6.19731 25.2276 7.82951C25.2767 9.46172 24.685 11.0483 23.5792 12.2498H15.8092L20.5292 7.52985C20.6617 7.38767 20.7338 7.19963 20.7304 7.00533C20.7269 6.81103 20.6482 6.62564 20.5108 6.48823C20.3734 6.35082 20.188 6.2721 19.9937 6.26867C19.7994 6.26525 19.6114 6.33737 19.4692 6.46985L13.4692 12.4698L11.7492 14.1898V6.37485L14.5792 3.57985ZM5.74918 12.4136C5.74911 12.3488 5.77421 12.2865 5.81918 12.2398L10.2492 7.86485V15.6936L5.74918 20.1936V12.4136ZM14.7604 21.1773C14.7139 21.2235 14.651 21.2496 14.5854 21.2498H6.80918L11.5292 16.5311L14.3092 13.7498H22.1029L14.7604 21.1773Z" fill="#091E42"/>
</svg>
