<svg width="24" height="24" viewBox="0 0 24 24" fill="none" xmlns="http://www.w3.org/2000/svg">
<path d="M22.2465 9.17808C22.1691 8.9322 22.0199 8.7151 21.8181 8.55471C21.6162 8.39432 21.3711 8.29798 21.114 8.27808L15.5397 7.79621C15.506 7.79289 15.4738 7.78051 15.4465 7.76037C15.4193 7.74023 15.398 7.71309 15.385 7.68183L13.2072 2.49183C13.1063 2.25507 12.9381 2.05319 12.7234 1.91128C12.5087 1.76938 12.257 1.69373 11.9997 1.69373C11.7423 1.69373 11.4906 1.76938 11.276 1.91128C11.0613 2.05319 10.893 2.25507 10.7922 2.49183L8.61435 7.68183C8.6013 7.71309 8.58003 7.74023 8.55279 7.76037C8.52556 7.78051 8.49337 7.79289 8.45966 7.79621L2.88529 8.27808C2.62827 8.29798 2.38308 8.39432 2.18126 8.55471C1.97944 8.7151 1.83022 8.9322 1.75279 9.17808C1.67078 9.42432 1.66362 9.68933 1.7322 9.93964C1.80079 10.1899 1.94204 10.4143 2.1381 10.5843L6.36716 14.2734C6.39306 14.2964 6.41229 14.3259 6.42285 14.3589C6.4334 14.3919 6.43489 14.4271 6.42716 14.4609L5.15591 19.9462C5.09665 20.1988 5.11356 20.4632 5.2045 20.7061C5.29543 20.9491 5.45633 21.1596 5.66685 21.3112C5.87411 21.4641 6.12245 21.5514 6.37981 21.5618C6.63717 21.5721 6.89172 21.5051 7.1106 21.3693L11.9022 18.4631C11.9303 18.4457 11.9628 18.4364 11.9959 18.4364C12.029 18.4364 12.0615 18.4457 12.0897 18.4631L16.8812 21.3693C17.1024 21.5047 17.3587 21.5716 17.6178 21.5615C17.8769 21.5513 18.1272 21.4647 18.3371 21.3124C18.547 21.1602 18.7072 20.9492 18.7973 20.706C18.8874 20.4629 18.9034 20.1985 18.8434 19.9462L17.5759 14.459C17.5682 14.4253 17.5697 14.39 17.5802 14.3571C17.5908 14.3241 17.61 14.2945 17.6359 14.2715L21.865 10.5825C22.06 10.4121 22.2003 10.1879 22.2682 9.938C22.3361 9.6881 22.3286 9.4237 22.2465 9.17808ZM21.1215 9.73308L16.8925 13.4221C16.7123 13.5789 16.5783 13.7819 16.5049 14.0093C16.4316 14.2366 16.4217 14.4796 16.4762 14.7121L17.7437 20.1993C17.7531 20.2362 17.751 20.275 17.7378 20.3107C17.7246 20.3464 17.7008 20.3772 17.6697 20.399C17.6415 20.4216 17.6068 20.4346 17.5707 20.4361C17.5346 20.4376 17.499 20.4276 17.469 20.4075L12.6775 17.5012C12.4732 17.377 12.2387 17.3114 11.9997 17.3114C11.7606 17.3114 11.5261 17.377 11.3218 17.5012L6.53029 20.4075C6.5003 20.4276 6.46467 20.4376 6.42859 20.4361C6.39251 20.4346 6.35785 20.4216 6.32966 20.399C6.29852 20.3772 6.27476 20.3464 6.26153 20.3107C6.2483 20.275 6.24623 20.2362 6.2556 20.1993L7.5231 14.7121C7.57767 14.4796 7.56774 14.2366 7.49439 14.0093C7.42104 13.7819 7.28705 13.5789 7.10685 13.4221L2.87779 9.73308C2.84886 9.70849 2.82809 9.67569 2.81821 9.63903C2.80834 9.60236 2.80982 9.56357 2.82248 9.52777C2.83194 9.49212 2.85247 9.46039 2.88111 9.43715C2.90975 9.4139 2.94502 9.40033 2.98185 9.3984L8.55716 8.91652C8.79585 8.89618 9.02441 8.81091 9.21809 8.66995C9.41177 8.52899 9.56318 8.3377 9.65591 8.11683L11.8337 2.92683C11.8489 2.89462 11.8729 2.86738 11.9029 2.84831C11.933 2.82923 11.9678 2.8191 12.0034 2.8191C12.039 2.8191 12.0739 2.82923 12.1039 2.84831C12.134 2.86738 12.158 2.89462 12.1731 2.92683L14.3434 8.11683C14.4358 8.33718 14.5867 8.5281 14.7796 8.66903C14.9726 8.80995 15.2004 8.89553 15.4384 8.91652L21.0137 9.3984C21.0506 9.40033 21.0858 9.4139 21.1145 9.43715C21.1431 9.46039 21.1636 9.49212 21.1731 9.52777C21.1862 9.5632 21.1883 9.60176 21.1791 9.6384C21.1699 9.67503 21.1498 9.70804 21.1215 9.73308Z" fill="white"/>
</svg>
