<svg width="24" height="24" viewBox="0 0 24 24" fill="none" xmlns="http://www.w3.org/2000/svg">
<path d="M10.5558 14.8528C11.6003 14.2607 12.4195 13.3396 12.8856 12.2331C13.3517 11.1265 13.4384 9.89685 13.1323 8.73586C12.8261 7.57487 12.1443 6.54786 11.1932 5.81504C10.2421 5.08222 9.0752 4.68481 7.87453 4.68481C6.67385 4.68481 5.50693 5.08222 4.55582 5.81504C3.60471 6.54786 2.9229 7.57487 2.61675 8.73586C2.31061 9.89685 2.39734 11.1265 2.86342 12.2331C3.3295 13.3396 4.14872 14.2607 5.19328 14.8528C3.25731 15.47 1.59472 16.7384 0.487963 18.4425C0.406409 18.5674 0.377828 18.7196 0.408508 18.8656C0.439188 19.0117 0.526615 19.1395 0.651557 19.2211C0.776499 19.3026 0.928721 19.3312 1.07474 19.3005C1.22075 19.2698 1.3486 19.1824 1.43015 19.0575C2.12822 17.9842 3.08331 17.1022 4.20871 16.4917C5.33411 15.8811 6.59418 15.5613 7.87453 15.5613C9.15487 15.5613 10.4149 15.8811 11.5403 16.4917C12.6657 17.1022 13.6208 17.9842 14.3189 19.0575C14.4058 19.1688 14.5313 19.2434 14.6706 19.2664C14.81 19.2894 14.9528 19.2592 15.0709 19.1818C15.189 19.1043 15.2736 18.9853 15.308 18.8483C15.3423 18.7114 15.3239 18.5665 15.2564 18.4425C14.1508 16.7392 12.49 15.4709 10.5558 14.8528ZM3.56203 10.125C3.56203 9.27204 3.81495 8.43826 4.28881 7.72907C4.76268 7.01988 5.4362 6.46714 6.2242 6.14074C7.01221 5.81433 7.87931 5.72893 8.71585 5.89533C9.5524 6.06173 10.3208 6.47246 10.9239 7.07557C11.527 7.67868 11.9378 8.4471 12.1042 9.28364C12.2706 10.1202 12.1852 10.9873 11.8588 11.7753C11.5324 12.5633 10.9796 13.2368 10.2704 13.7107C9.56124 14.1845 8.72746 14.4375 7.87453 14.4375C6.73124 14.436 5.6352 13.9812 4.82677 13.1727C4.01834 12.3643 3.56351 11.2683 3.56203 10.125ZM23.3433 19.2187C23.2184 19.3002 23.0664 19.3288 22.9205 19.2982C22.7746 19.2676 22.6468 19.1803 22.5652 19.0556C21.8683 17.9822 20.9139 17.1002 19.789 16.4901C18.664 15.88 17.4043 15.5611 16.1245 15.5625C15.9753 15.5625 15.8323 15.5032 15.7268 15.3977C15.6213 15.2922 15.562 15.1492 15.562 15C15.562 14.8508 15.6213 14.7077 15.7268 14.6022C15.8323 14.4967 15.9753 14.4375 16.1245 14.4375C16.7596 14.4368 17.3866 14.2959 17.9609 14.0249C18.5352 13.7538 19.0426 13.3593 19.4467 12.8694C19.8508 12.3796 20.1418 11.8065 20.2988 11.1912C20.4558 10.5758 20.475 9.9334 20.3549 9.3098C20.2349 8.6862 19.9786 8.09681 19.6044 7.58374C19.2302 7.07066 18.7473 6.64656 18.1902 6.34174C17.6331 6.03692 17.0155 5.8589 16.3816 5.8204C15.7477 5.7819 15.1132 5.88387 14.5233 6.11903C14.4546 6.14716 14.381 6.16141 14.3067 6.16097C14.2325 6.16052 14.1591 6.14538 14.0907 6.11643C14.0224 6.08747 13.9604 6.04527 13.9085 5.99226C13.8565 5.93924 13.8155 5.87647 13.7879 5.80755C13.7603 5.73863 13.7467 5.66493 13.7477 5.59069C13.7487 5.51646 13.7644 5.44317 13.7939 5.37504C13.8234 5.30691 13.8661 5.24529 13.9195 5.19373C13.9729 5.14218 14.036 5.10171 14.1052 5.07466C15.3847 4.56454 16.8101 4.55904 18.0935 5.05928C19.3769 5.55952 20.4227 6.52821 21.0195 7.76967C21.6163 9.01112 21.7197 10.4328 21.3088 11.7476C20.8979 13.0623 20.0033 14.1721 18.8058 14.8528C20.7417 15.47 22.4043 16.7384 23.5111 18.4425C23.5915 18.5677 23.619 18.7198 23.5876 18.8653C23.5561 19.0108 23.4683 19.1379 23.3433 19.2187Z" fill="white"/>
</svg>
