<svg width="380" height="272" viewBox="0 0 380 272" fill="none" xmlns="http://www.w3.org/2000/svg">
<path d="M156.346 62.9803C153.106 62.5603 124.346 62.5603 119.186 62.9803C119.098 62.9996 119.02 63.0514 118.968 63.1255C118.916 63.1997 118.894 63.2906 118.906 63.3803C118.925 63.4472 118.96 63.5082 119.009 63.5573C119.058 63.6064 119.119 63.6419 119.186 63.6603C123.826 64.0603 153.046 64.2403 156.246 63.8203C156.706 63.7803 156.846 63.0403 156.346 62.9803ZM291.446 113.02C291.046 113.02 285.906 114.84 287.266 115.58L288.706 116.78C288.386 117.5 291.526 120.78 289.366 128.5C288.466 127.88 288.446 128.5 288.566 128.7C291.906 132.14 315.766 151.24 321.086 154.7C321.566 155.4 324.606 153.9 325.086 153.74C335.653 149.235 345.968 144.161 355.986 138.54C359.646 136.54 359.606 129.36 355.166 126.54C350.496 123.434 345.633 120.629 340.606 118.14L346.806 113.28C347.246 112.94 347.006 111.68 345.326 113.04C341.709 107.195 340.244 100.27 341.186 93.4603C341.426 93.3203 344.106 91.7203 342.926 91.2003C336.926 88.7003 317.046 81.4003 310.926 81.0203C308.926 80.8803 292.926 93.6803 291.426 96.2603C288.226 101.6 289.206 107.7 291.546 113.08L291.446 113.02ZM289.846 128.8C291.846 126.62 291.226 120.64 290.266 118C293.006 120.2 315.026 136.8 322.026 141.24C325.806 149.24 321.586 153.12 321.726 153.72C310.006 145.58 300.466 136.28 289.846 128.8V128.8ZM355.026 127.9C358.366 129.62 357.606 136.78 355.206 137.62C344.326 143.44 333.566 148.68 322.326 153.62C323.802 151.629 324.608 149.219 324.626 146.74L340.026 140.42C340.306 140.28 340.026 139.9 339.806 139.96C334.636 141.689 329.573 143.726 324.646 146.06C324.607 144.116 324.003 142.226 322.906 140.62C327.606 138.76 351.626 126.3 355.026 127.9V127.9ZM321.686 107.58C327.571 102.708 333.727 98.1739 340.126 94.0003C339.659 96.4321 339.572 98.9216 339.866 101.38C338.886 101.7 326.766 110.58 326.146 111.06C325.886 111.26 326.146 111.68 326.466 111.52L340.006 102.32C340.426 105.14 342.126 111.56 344.746 113.3C342.086 115.46 328.926 125.88 325.726 125.88C323.327 123.566 321.667 120.593 320.955 117.336C320.243 114.079 320.511 110.685 321.726 107.58H321.686ZM319.066 90.3203C320.466 91.5203 314.666 94.9003 314.446 94.9603C313.786 95.1603 313.346 94.4803 314.766 93.1203C315.486 92.5003 318.126 89.5803 319.066 90.3403V90.3203ZM308.166 93.6603C309.166 91.6603 313.326 88.3403 315.086 87.1403C315.173 87.0799 315.271 87.0371 315.374 87.0145C315.477 86.9918 315.584 86.9897 315.688 87.0083C315.792 87.0269 315.891 87.0658 315.98 87.1227C316.069 87.1797 316.146 87.2536 316.206 87.3403C316.267 87.4269 316.309 87.5247 316.332 87.6279C316.355 87.731 316.357 87.8377 316.338 87.9417C316.32 88.0457 316.281 88.145 316.224 88.234C316.167 88.323 316.093 88.3999 316.006 88.4603C314.446 89.6603 310.206 93.6403 309.026 94.4603C308.937 94.5093 308.838 94.535 308.736 94.535C308.635 94.535 308.535 94.5093 308.446 94.4603C308.376 94.4281 308.313 94.3822 308.261 94.3253C308.209 94.2685 308.168 94.2017 308.142 94.1291C308.116 94.0565 308.105 93.9793 308.109 93.9023C308.113 93.8252 308.133 93.7497 308.166 93.6803V93.6603ZM293.486 97.1203C302.066 99.4484 310.495 102.3 318.726 105.66C319.246 105.92 319.066 106.8 318.446 106.68C309.872 104.291 301.45 101.386 293.226 97.9803C293.135 97.929 293.064 97.8482 293.024 97.751C292.985 97.6538 292.98 97.5461 293.011 97.4458C293.041 97.3455 293.105 97.2585 293.191 97.1993C293.278 97.1401 293.382 97.1122 293.486 97.1203ZM292.006 113.98C301.546 119.36 319.306 126.2 326.006 127.2C327.346 127.4 338.226 119.76 340.006 118.46C341.166 119.6 350.826 125.06 353.286 126.58C349.726 126.76 323.886 138.8 322.026 139.98C310.926 131.68 299.406 123.26 288.026 115.36L292.026 113.98H292.006ZM156.346 62.9803H156.366H156.346ZM188.826 24.8603C188.705 24.8103 188.568 24.8103 188.446 24.8603C187.266 25.5803 180.446 34.8603 179.066 36.6003C177.746 34.8003 176.406 33.0203 175.066 31.2803C174.806 30.9603 174.266 31.2803 174.466 31.7003C175.806 33.8403 177.246 35.9003 178.706 37.9603C178.946 38.2803 179.406 38.1203 179.606 37.8603C180.866 36.2603 188.886 26.5803 189.226 25.4803C189.241 25.4133 189.242 25.344 189.23 25.2766C189.218 25.2091 189.192 25.1447 189.155 25.087C189.118 25.0294 189.07 24.9797 189.013 24.9408C188.957 24.9019 188.893 24.8745 188.826 24.8603V24.8603ZM150.686 66.8603C138.686 67.1003 125.386 66.8603 120.226 67.3003C120.12 67.3003 120.018 67.3424 119.943 67.4174C119.868 67.4924 119.826 67.5942 119.826 67.7003C119.826 67.8063 119.868 67.9081 119.943 67.9831C120.018 68.0581 120.12 68.1003 120.226 68.1003C126.426 68.1003 145.726 68.7403 150.686 67.6803C151.106 67.5803 151.026 66.9803 150.686 66.8603V66.8603ZM151.126 46.7603C151.526 46.7603 151.646 46.0803 151.126 46.0203C147.126 45.4203 123.126 46.6003 117.306 47.5003C117.2 47.5003 117.098 47.5424 117.023 47.6174C116.948 47.6924 116.906 47.7942 116.906 47.9003C116.906 48.0063 116.948 48.1081 117.023 48.1831C117.098 48.2581 117.2 48.3003 117.306 48.3003C125.146 48.3003 142.966 47.0803 151.026 46.8003L151.126 46.7603ZM143.166 50.7603C143.506 50.7603 143.686 50.0803 143.166 49.9603C141.166 49.4603 121.166 49.9603 118.146 50.3003C118.099 50.3075 118.053 50.3242 118.012 50.3494C117.971 50.3746 117.936 50.4078 117.908 50.4469C117.88 50.4861 117.86 50.5304 117.849 50.5774C117.839 50.6243 117.838 50.6729 117.846 50.7203C117.857 50.7981 117.892 50.8706 117.945 50.9279C117.999 50.9852 118.069 51.0245 118.146 51.0403C122.006 51.2603 140.806 51.4003 143.166 50.7603ZM185.806 61.7603C186.906 60.1603 174.846 60.7403 174.326 61.2803C173.806 61.8203 174.326 70.0403 174.326 70.8003C174.326 71.9803 185.506 71.9603 185.946 71.6203C186.445 68.3659 186.445 65.0546 185.946 61.8003L185.806 61.7603ZM184.946 70.7203C183.886 70.7203 176.026 70.8603 175.386 70.3603C175.386 67.5403 175.206 64.7403 175.106 61.9403H185.106C184.746 64.8533 184.693 67.796 184.946 70.7203V70.7203Z" fill="#004737"/>
<path d="M326.806 117.34C329.606 115.68 332.466 114.06 335.166 112.26C335.546 112 335.166 111.32 334.726 111.56L326.506 116.88C326.46 116.926 326.431 116.986 326.424 117.05C326.417 117.114 326.432 117.179 326.468 117.233C326.503 117.288 326.556 117.328 326.618 117.347C326.68 117.367 326.746 117.364 326.806 117.34ZM306.646 139.3C306.406 139.14 306.086 139.52 306.326 139.72C308.326 141.46 318.166 148.34 320.326 149.86C320.606 150.06 320.846 149.6 320.586 149.4C316.386 146.2 311.106 141.98 306.646 139.3V139.3ZM177.086 54.8003C178.126 54.8003 186.266 55.7403 186.186 54.4003C186.106 53.0603 185.986 45.3603 185.466 45.1203C185.326 43.7803 175.186 44.7603 174.246 44.9403C173.666 44.9403 173.906 52.7403 173.946 53.6803C174.006 55.0403 176.186 54.7603 177.086 54.8003V54.8003ZM184.946 45.5803V54.0003C181.578 53.6537 178.186 53.5868 174.806 53.8003C174.939 51.0598 174.885 48.3135 174.646 45.5803C176.306 45.5803 183.886 45.8403 184.946 45.5803V45.5803ZM319.886 146.02C319.937 146.063 320 146.086 320.066 146.086C320.132 146.086 320.196 146.063 320.246 146.02C320.286 145.976 320.307 145.919 320.307 145.86C320.307 145.801 320.286 145.744 320.246 145.7C311.086 139.2 301.986 131.38 292.986 125.28C292.726 125.08 292.326 125.46 292.586 125.72C297.626 130.52 313.366 141.72 319.966 146.12L319.886 146.02ZM345.506 134.54H345.546H345.506ZM186.146 31.9603C186.118 31.871 186.057 31.7959 185.975 31.7512C185.893 31.7064 185.796 31.6953 185.706 31.7203C185.646 31.7345 185.59 31.7641 185.545 31.8062C185.499 31.8482 185.465 31.9013 185.446 31.9603V38.9603H174.366C174.172 35.7372 173.812 32.5262 173.286 29.3403C176.415 29.4856 179.549 29.4054 182.666 29.1003C182.736 29.0777 182.797 29.0315 182.837 28.9695C182.877 28.9076 182.894 28.8336 182.886 28.7603C182.875 28.7177 182.855 28.678 182.827 28.6436C182.8 28.6092 182.765 28.5808 182.726 28.5603C181.986 28.3203 172.726 27.5203 173.006 29.1203C172.086 29.1203 173.426 39.1203 173.426 39.1203C173.906 40.3403 175.926 39.9203 176.986 39.9203C178.046 39.9203 185.406 40.1003 186.006 39.9203C186.966 39.5403 186.426 33.1403 186.206 31.9203L186.146 31.9603Z" fill="#004737"/>
<path d="M379.405 213.4C353.925 214.96 328.438 216.294 302.945 217.4C302.612 213.753 301.942 210.145 300.945 206.62C326.278 205.954 351.611 205.174 376.945 204.281C377.074 204.265 377.195 204.208 377.288 204.117C377.382 204.027 377.444 203.909 377.465 203.781C377.482 203.624 377.437 203.468 377.34 203.344C377.242 203.221 377.101 203.141 376.945 203.12C351.505 204.067 326.071 204.847 300.645 205.46C294.645 184.54 281.985 164.64 267.225 148.88C266.765 143.56 266.745 140.88 264.465 135.54C260.065 125.44 255.205 123.341 255.325 125.741C255.323 126.373 255.425 127.001 255.625 127.601C254.825 126.601 248.945 120.48 247.745 123.78C246.86 123.224 245.861 122.874 244.822 122.756C243.784 122.638 242.732 122.756 241.745 123.101C238.005 117.101 231.745 117.101 227.745 115.101C220.105 111.101 223.625 98.3405 229.245 93.5805C229.245 93.5805 253.385 93.1205 253.405 92.8205C253.845 87.1605 258.665 1.0205 258.665 1.0205C199.185 -0.159502 135.185 1.02049 76.1448 2.22049C75.7448 2.22049 75.4048 2.4805 75.4448 2.8405C79.0048 33.1405 87.7448 95.1605 87.7448 95.1605C89.1848 95.7405 219.925 93.7005 227.745 93.5805C224.401 97.2282 222.57 102.012 222.625 106.961C223.025 119.561 233.045 114.2 241.245 123.42C235.925 125.7 235.245 132.44 237.245 137.26C237.608 138.185 238.1 139.053 238.705 139.84C238.789 141.72 239.324 143.551 240.265 145.18C242.825 150.04 247.385 151.72 247.625 152.44C247.625 163.76 250.005 177.56 252.265 188.6C244.645 184.6 222.045 175.06 198.805 174.38C200.125 162.92 210.025 161.48 208.665 153.82C212.805 153.66 216.945 153.5 221.085 153.3C222.125 153.3 220.985 150.1 220.865 149.56C219.185 142.16 217.498 134.774 215.805 127.401C215.545 126.401 214.385 119.681 213.405 119.681L200.505 119.92C197.665 117.22 191.005 116.22 188.285 119.36C184.285 111.66 171.925 112.78 171.525 120.26C168.145 117.96 163.125 117.5 160.065 120.62C159.745 120.76 99.2448 121.58 90.2448 121.94H90.0848C89.9876 122.002 89.9184 122.1 89.8923 122.212C89.8661 122.324 89.8849 122.442 89.9448 122.541C90.1048 123.581 84.8848 148.26 84.2648 154.2C84.2648 155.04 93.3248 154.92 94.2648 154.92C81.3448 170.06 69.7248 187.14 66.2648 207.12C44.4648 206.78 22.6648 206.24 0.864794 206.32C0.758707 206.32 0.656966 206.363 0.581951 206.438C0.506936 206.513 0.464794 206.614 0.464794 206.721C0.464794 206.827 0.506936 206.928 0.581951 207.003C0.656966 207.078 0.758707 207.12 0.864794 207.12C22.5648 208.06 44.3248 208.16 66.0448 208.32C65.3978 212.286 65.1299 216.304 65.2448 220.32C43.6448 219.88 22.0448 219.2 0.464794 218.84C-0.015206 218.84 -0.095206 219.6 0.464794 219.6C22.0648 220.7 43.7048 221.1 65.3448 221.42C65.9048 232.28 70.1848 245.6 80.8248 250.48C85.2048 259.08 94.4848 266.82 104.825 264.6C104.525 266.16 104.245 267.761 103.945 269.361C103.825 270.081 104.905 270.38 105.025 269.66C107.965 253.82 111.025 237.9 116.165 222.62C116.325 222.14 115.605 221.96 115.425 222.42C110.425 235.7 107.605 249.661 105.005 263.561C94.4248 265.101 85.9848 258.36 81.6048 249.24C79.2483 244.421 77.8852 239.178 77.5966 233.821C77.308 228.465 78.0998 223.105 79.9248 218.061C85.3848 204.061 99.9248 194.06 114.205 187.22C128.724 180.34 144.318 176.003 160.305 174.4C161.445 185.08 173.725 188.7 183.085 188.14C192.445 187.58 197.985 184.72 198.785 175.28C198.905 175.28 232.565 176.02 261.625 195.44C270.165 201.14 277.925 208.46 282.465 217.76C286.905 226.74 288.465 237.76 284.465 247.12C278.745 260.76 268.305 262.741 261.385 263.961C258.938 249.316 254.214 235.144 247.385 221.96C247.205 221.62 246.645 221.84 246.825 222.2C253.947 237.558 258.804 253.868 261.245 270.621C261.245 271.141 262.285 271.281 262.285 270.621C262.204 268.79 261.963 266.969 261.565 265.181C269.107 264.532 276.091 260.939 281.005 255.18C297.005 251.18 303.985 233.88 303.005 218.64C328.551 217.6 354.071 216.267 379.565 214.64C380.265 214.38 380.005 213.4 379.405 213.4V213.4ZM87.8248 82.5205C83.8248 57.0805 80.6448 31.7605 77.0248 6.3005C137.025 5.2605 198.585 5.7005 257.765 4.7005L253.145 79.7205C228.165 80.4805 91.0448 81.2605 87.8248 82.5205ZM208.425 152.7C208.059 151.634 207.357 150.715 206.425 150.08C207.462 148.432 208.022 146.528 208.045 144.58H209.125L210.625 152.58L208.425 152.7ZM206.745 138.04C207.087 137.765 207.402 137.457 207.685 137.12C208.165 139.26 208.565 141.4 208.965 143.54H208.005C208.103 141.626 207.667 139.722 206.745 138.04V138.04ZM220.425 152.18L211.225 152.58C210.985 149.88 210.465 147.22 209.985 144.58C212.86 144.676 215.738 144.603 218.605 144.36C219.205 146.94 219.825 149.58 220.425 152.18ZM218.425 143.44H209.825L208.385 135.94L216.685 135.7L218.425 143.44ZM216.425 134.84L208.605 135.08C208.755 134.132 208.687 133.162 208.407 132.243C208.126 131.325 207.64 130.483 206.985 129.78C206.865 129.18 206.745 128.56 206.585 127.94L214.825 127.76L216.425 134.84ZM213.365 120.56C213.805 122.56 214.205 124.7 214.605 126.78L206.385 126.92C205.965 124.818 205.424 122.741 204.765 120.7L213.365 120.56ZM205.805 129.04C204.831 128.598 203.731 128.52 202.705 128.82C202.796 128.573 202.87 128.319 202.925 128.06H205.565L205.805 129.04ZM203.805 120.72C204.18 122.82 204.674 124.897 205.285 126.94H203.065C203.294 124.725 202.68 122.504 201.345 120.72H203.805ZM155.385 121.58H159.245C158.43 122.841 158.142 124.371 158.445 125.84L155.045 126.821C155.205 125.101 155.385 123.18 155.385 121.58V121.58ZM154.305 121.58V127.16C153.966 127.362 153.639 127.582 153.325 127.821L143.865 127.98C143.952 125.906 143.892 123.827 143.685 121.76L154.305 121.58ZM150.105 136.08H143.805V129.08L152.005 128.94C151.137 129.89 150.512 131.035 150.181 132.278C149.85 133.521 149.824 134.825 150.105 136.08V136.08ZM143.845 145.34H149.305C149.382 147.085 150.028 148.757 151.145 150.1C150.485 150.557 149.954 151.176 149.604 151.898C149.253 152.62 149.095 153.42 149.145 154.22H143.745C143.805 151.22 143.845 148.28 143.845 145.34ZM149.845 142.92C149.669 143.338 149.542 143.774 149.465 144.22H143.945V137H150.405C150.839 138.194 151.619 139.231 152.645 139.98C151.395 140.627 150.386 141.658 149.765 142.92H149.845ZM143.145 154.2H118.365C118.625 150.76 118.365 148.6 120.585 145.64L142.925 145.38C142.905 148.32 142.965 151.26 143.065 154.2H143.145ZM121.405 144.54C123.486 142.436 125.059 139.885 126.005 137.08H131.005V144.42L121.405 144.54ZM132.285 121.98L142.765 121.8C142.652 123.872 142.652 125.949 142.765 128.021L132.225 128.2C132.225 126.14 132.245 124.06 132.285 121.98ZM132.145 129.3L142.725 129.12V136.12H132.005C132.005 133.84 132.005 131.58 132.145 129.3V129.3ZM132.005 137.06H142.825V144.28L131.565 144.42C131.725 141.96 131.845 139.58 132.005 137.06V137.06ZM122.005 122.16L131.585 122L131.365 128.22L121.605 128.381C121.842 126.316 121.916 124.236 121.825 122.16H122.005ZM121.525 129.46L131.345 129.3L131.165 136.1H126.265C126.505 135 126.945 133.2 125.645 132.6C124.345 132 123.105 135 120.705 136.08C120.925 133.88 121.125 131.68 121.345 129.48L121.525 129.46ZM112.965 122.321L121.225 122.181C120.939 124.243 120.759 126.319 120.685 128.401H120.005C120.865 126.301 116.225 124.941 112.225 128.401C112.285 127.381 112.845 123.001 112.785 122.321H112.965ZM120.425 129.58C120.285 131.76 120.165 133.92 120.025 136.1H116.905C116.305 134.34 116.905 130.2 118.505 129.58H120.385H120.425ZM111.765 122.381L111.445 128.58H107.705C106.225 125.5 107.165 123.16 105.705 122.42L111.765 122.381ZM110.965 129.7C110.504 130.278 110.114 130.909 109.805 131.58L108.325 129.76L110.965 129.7ZM98.1848 122.64L104.605 122.521C102.605 123.481 102.305 126.88 102.305 128.74H99.2848C98.2648 127.86 97.8248 128.74 97.0648 128.74L98.1448 122.521L98.1848 122.64ZM102.625 132.8C101.515 132.06 100.613 131.048 100.005 129.86H102.265C102.289 130.846 102.382 131.828 102.545 132.8H102.625ZM96.0048 135.8L96.9648 129.92C96.7643 131.951 97.017 134 97.7048 135.92L96.0048 135.8ZM98.0048 136.78C98.8248 139.52 100.005 142.02 100.565 144.78L94.5648 144.9L95.7648 136.76L98.0048 136.78ZM90.7448 122.66H97.3048C96.9248 124.66 96.5648 126.82 96.2048 128.92C94.0248 128.92 91.8248 129.04 89.6448 129.14C90.1158 127.003 90.4564 124.839 90.6648 122.66H90.7448ZM89.5048 129.96H96.0048C95.7048 131.96 95.3848 133.96 95.0648 135.82H88.3648C88.7048 133.82 89.0648 131.88 89.4248 129.96H89.5048ZM88.2848 136.52C90.4848 136.64 92.6848 136.7 94.8848 136.74C94.5048 139.44 94.0648 142.18 93.7048 144.9C91.3648 144.9 89.0248 145.06 86.6848 145.16C87.2248 142.28 87.7448 139.4 88.2848 136.52V136.52ZM92.7848 153.86H85.0648C85.5648 151.18 86.0848 148.52 86.6248 145.86L93.5648 146.04C93.1429 148.631 92.8558 151.241 92.7048 153.86H92.7848ZM93.3448 153.86L94.5248 145.86H100.745C100.805 146.392 100.805 146.929 100.745 147.46L95.1248 153.88L93.3448 153.86ZM79.7248 215.32C77.3855 220.651 76.2161 226.42 76.2955 232.24C76.3748 238.061 77.7011 243.796 80.1848 249.061C60.8248 235.981 64.9448 207.06 73.1848 188.58C79.9248 173.44 90.6048 160.58 101.545 148.24C103.145 146.42 97.9648 134.24 97.7848 131.26C97.6648 129.04 98.5848 128.58 99.4048 130.16C100.225 131.74 101.405 133.54 103.025 133.92C103.665 135.8 104.165 135.2 104.085 134.9C103.405 131.6 102.225 126.9 104.425 123.86C106.025 121.74 105.965 125.641 106.125 126.401C106.505 128.221 108.125 131.74 109.585 132.4C109.085 133.82 109.925 133.32 109.985 133.14C112.825 125.68 121.505 126.74 118.705 128.58C117.967 129.021 117.339 129.625 116.871 130.347C116.403 131.068 116.107 131.887 116.005 132.74C114.985 139.8 120.545 138.74 124.585 133.82C126.265 131.82 126.345 136.12 123.685 140.46C121.425 144.14 118.365 145.46 118.005 150.28C117.005 162.06 114.585 176.12 112.965 186.48C99.6848 192.9 86.1048 201.58 79.6448 215.34L79.7248 215.32ZM114.005 185.94C115.958 175.771 117.353 165.502 118.185 155.18H149.205C150.365 161.88 158.685 162.78 160.025 173.18C144.062 174.741 128.492 179.058 114.005 185.94V185.94ZM198.445 169.8C197.947 171.373 197.625 172.997 197.485 174.64C196.685 183.12 193.085 185.94 183.665 186.64C173.665 187.46 162.825 184.3 161.305 173.52C159.965 163.92 156.885 164.76 151.945 158.04C150.465 156.04 149.145 152.32 151.945 150.76C153.32 152.272 155.043 153.425 156.965 154.12C161.285 163.82 162.745 175 175.305 176.24C199.585 178.5 194.145 165.28 201.845 153.74C203.342 153.048 204.698 152.086 205.845 150.9C206.718 151.63 207.321 152.632 207.556 153.746C207.792 154.859 207.647 156.019 207.145 157.04C205.185 161.78 200.465 163.58 198.445 169.8V169.8ZM248.005 124.94C248.685 126.46 249.385 127.96 250.005 129.48C249.025 128.22 244.225 122.98 242.625 125.78C241.805 127.24 243.525 129.42 244.225 130.72C241.54 131.196 239.141 132.685 237.525 134.88C234.965 125.58 244.005 120.94 248.005 124.94ZM238.965 138.56C238.585 137.62 238.185 136.66 237.785 135.72C239.54 133.666 241.898 132.217 244.525 131.58C245.65 133.903 246.38 136.398 246.685 138.96C247.225 144.08 243.305 140.42 241.405 138.66C240.665 137.9 239.425 137.58 238.865 138.56H238.965ZM282.265 253.38C288.885 244.1 289.165 232.12 285.325 221.64C279.885 206.82 266.945 196.44 253.325 189.18C250.706 177.086 249.008 164.811 248.245 152.46C248.245 150.58 241.885 149.3 239.905 141.92C239.545 140.58 238.805 137.06 241.225 139.58C243.645 142.1 247.765 144.42 247.585 138.9C247.345 132.36 242.905 128.001 243.305 126.521C243.805 124.661 247.505 128.16 248.105 128.76C249.668 130.48 251.086 132.327 252.345 134.28C252.565 134.6 253.105 134.28 252.905 133.98C252.438 133.18 251.958 132.38 251.465 131.58C251.785 130.9 248.185 124.54 248.825 123.94C249.465 123.34 252.345 125.42 252.985 125.94C256.325 128.84 256.485 130.78 257.625 132.28C257.677 132.299 257.733 132.299 257.785 132.28C257.856 132.286 257.927 132.265 257.982 132.22C258.038 132.175 258.075 132.111 258.085 132.04C257.965 130.76 257.225 130.04 256.865 129.16C256.505 128.28 255.765 126.301 256.265 125.601C256.505 125.401 257.885 126.42 258.045 126.58C259.364 127.844 260.466 129.317 261.305 130.94C267.425 141.4 265.585 148.14 266.625 149.16C281.805 166.26 298.025 191.3 301.305 213.9C303.525 229.58 298.585 247.86 282.165 253.38H282.265Z" fill="#004737"/>
<path d="M137.205 35.5803C137.665 35.4403 137.485 34.7803 137.065 34.7203C129.785 34.8603 122.045 34.7203 114.865 34.9203C114.305 34.9203 114.385 35.7803 114.865 35.8603C118.545 36.4603 134.005 36.5603 137.205 35.5803ZM328.145 142.54C330.865 141.36 344.145 136 345.725 135.1C345.755 135.074 345.778 135.042 345.795 135.006C345.811 134.969 345.82 134.93 345.82 134.89C345.82 134.851 345.811 134.811 345.795 134.775C345.778 134.739 345.755 134.707 345.725 134.68C345.692 134.632 345.647 134.593 345.594 134.568C345.541 134.544 345.483 134.534 345.425 134.54C342.065 135.24 331.185 140.42 327.805 142.1C327.625 142.24 327.865 142.66 328.145 142.54V142.54ZM194.005 95.5803L151.605 96.2203C153.425 116.78 194.545 117.1 194.005 95.5803ZM194.005 51.5803C194.005 51.6671 194.038 51.7507 194.097 51.8139C194.157 51.8771 194.238 51.9152 194.325 51.9203C201.105 52.0803 215.445 52.5003 220.865 51.7603C221.305 51.7603 221.165 51.0203 220.865 51.0203C213.205 51.0203 202.145 51.0203 194.425 51.2403C194.374 51.228 194.321 51.2275 194.27 51.239C194.219 51.2505 194.171 51.2736 194.131 51.3065C194.09 51.3393 194.058 51.3812 194.036 51.4287C194.014 51.4762 194.003 51.528 194.005 51.5803V51.5803ZM136.005 21.5803C136.565 21.5803 136.325 20.7803 135.865 20.7003C122.085 21.1003 107.085 21.4003 93.6448 21.7003C93.5999 21.7075 93.5568 21.7237 93.5182 21.7479C93.4796 21.772 93.4463 21.8037 93.4202 21.841C93.394 21.8783 93.3757 21.9205 93.3662 21.965C93.3567 22.0096 93.3562 22.0556 93.3648 22.1003C93.3764 22.1704 93.4096 22.2351 93.4599 22.2853C93.5101 22.3355 93.5748 22.3687 93.6448 22.3803C103.425 23.0803 123.305 22.0203 136.005 21.5803V21.5803ZM143.705 17.0003C144.165 17.0003 144.305 16.2003 143.705 16.1403C139.225 15.6003 95.0448 16.3203 91.9648 17.0003C91.6648 17.0003 91.6848 17.6003 91.9648 17.6003C103.305 17.5803 130.485 16.8003 143.705 17.0003ZM56.7648 159.86V159.84V159.86ZM57.6048 160.2C59.1457 157.35 60.328 154.321 61.1248 151.18C61.4972 150.101 61.5824 148.944 61.372 147.821C61.1616 146.699 60.6629 145.651 59.9248 144.78C60.6508 142.954 61.024 141.006 61.0248 139.04C60.6248 135.78 57.1648 135.98 55.3048 138.48C47.8048 148.48 39.5248 164.48 39.7648 176.78C39.6248 177.36 39.9248 178.02 40.4448 177.54C49.3242 168.743 55.8922 157.888 59.5648 145.94C62.0648 149.66 58.2048 156.08 56.7648 159.84C56.5848 160.34 57.3448 160.64 57.6048 160.2V160.2ZM40.5248 175.96C40.6715 173.741 40.979 171.535 41.4448 169.36L44.5248 171.58C43.2248 173.02 41.8848 174.52 40.5248 175.96ZM59.1048 143.96C57.7505 142.824 56.124 142.059 54.3848 141.74C55.0531 140.519 55.8583 139.379 56.7848 138.34C57.6848 137.5 59.4048 137.16 59.9248 138.58C60.1014 140.401 59.8195 142.237 59.1048 143.92V143.96ZM110.005 42.0803C109.125 42.4403 104.005 50.0803 103.065 51.4203C101.901 49.874 100.558 48.4709 99.0648 47.2403C98.9814 47.2016 98.8868 47.1945 98.7986 47.2202C98.7103 47.246 98.6344 47.3028 98.5848 47.3803C98.5556 47.4576 98.5556 47.543 98.5848 47.6203C99.7253 49.4877 101.067 51.2247 102.585 52.8003C102.639 52.8604 102.706 52.9084 102.78 52.9412C102.854 52.9741 102.934 52.9911 103.015 52.9911C103.096 52.9911 103.176 52.9741 103.25 52.9412C103.324 52.9084 103.39 52.8604 103.445 52.8003V52.7003L110.005 43.7403C110.925 42.4403 110.665 41.7403 110.005 42.0803ZM230.005 31.5803C230.425 31.5803 230.505 30.7803 230.005 30.7203C217.526 30.0997 205.02 30.2801 192.565 31.2603C192.145 31.2603 192.185 32.0003 192.565 31.9803C202.005 31.9003 219.705 32.2003 230.005 31.5803Z" fill="#004737"/>
<path d="M110.005 54.2007C110.805 53.8807 109.205 47.9207 108.985 46.9807C108.978 46.9387 108.963 46.8984 108.941 46.8621C108.919 46.8258 108.89 46.7942 108.856 46.7691C108.821 46.744 108.782 46.726 108.741 46.716C108.7 46.7059 108.657 46.7042 108.615 46.7107C108.573 46.7173 108.532 46.7321 108.496 46.7542C108.46 46.7764 108.428 46.8054 108.403 46.8398C108.378 46.8742 108.36 46.9131 108.35 46.9545C108.34 46.9958 108.338 47.0387 108.345 47.0807C108.585 49.2207 108.825 51.3807 109.225 53.4807C105.885 53.7407 102.865 53.7207 99.6046 53.8607C99.0046 51.2607 98.4846 47.8607 97.6046 45.2807C100.12 45.4922 102.649 45.4922 105.165 45.2807C106.825 45.2807 106.705 44.2407 105.285 44.2607C104.445 44.2607 97.2846 44.1207 97.2846 44.9807C96.3446 44.9807 98.3246 53.3607 98.4446 53.9207C98.4653 54.0204 98.5171 54.111 98.5926 54.1793C98.6681 54.2476 98.7633 54.2901 98.8646 54.3007C99.1046 55.3407 109.625 55.1807 110.005 54.2007ZM231.125 47.1807C231.107 47.103 231.064 47.0333 231.002 46.9827C230.941 46.932 230.864 46.9032 230.785 46.9007C218.665 46.5807 205.705 47.1607 193.425 47.1407C193.065 47.1407 193.045 47.7407 193.425 47.7807C204.185 48.5007 220.825 48.9407 230.865 47.6207C230.955 47.5928 231.032 47.5323 231.08 47.451C231.128 47.3696 231.144 47.2733 231.125 47.1807V47.1807ZM99.1446 39.7407C101.95 39.819 104.758 39.6919 107.545 39.3607C109.285 39.8007 106.625 28.8807 106.305 28.3807C106.262 28.2865 106.191 28.2084 106.101 28.1579C106.011 28.1075 105.907 28.0874 105.805 28.1007C104.005 28.1007 95.6446 28.1007 94.4646 28.3607C93.0246 27.2007 95.1246 37.0607 95.4246 38.2407C96.0046 40.2207 97.2846 39.7407 99.1446 39.7407ZM94.7046 29.0407C98.3949 29.4914 102.123 29.5451 105.825 29.2007L107.105 38.4407L96.6246 38.9807C96.7046 38.3007 94.9446 30.3607 94.7046 29.0407ZM221.645 35.7807C221.751 35.7807 221.852 35.7386 221.927 35.6636C222.002 35.5886 222.045 35.4868 222.045 35.3807C222.045 35.2746 222.002 35.1729 221.927 35.0979C221.852 35.0229 221.751 34.9807 221.645 34.9807C219.165 34.4807 197.845 35.2407 193.425 35.6207C193.085 35.6207 193.085 36.2007 193.425 36.2207C195.825 36.3207 219.265 36.3807 221.645 35.7807ZM53.7046 99.2207C54.0846 99.2207 56.9046 97.6207 57.5646 100.221C58.4846 103.781 62.0846 101.641 62.6646 98.9207C63.4046 95.5607 60.2046 92.9207 56.4246 92.9207C48.7446 92.9207 50.5046 99.5807 53.7046 99.2207ZM56.4246 93.7007C60.7446 93.8407 63.4046 97.9207 60.7846 100.321C58.5446 102.321 58.7846 99.4407 57.7046 98.3207C55.5446 96.3207 53.8246 98.7407 52.6046 97.7207C50.1046 95.7207 54.8846 93.5807 56.4246 93.7007ZM103.265 61.1207C100.125 61.1207 100.005 60.6007 100.405 63.6607C100.525 64.5207 101.145 70.6007 102.185 70.6607C102.405 71.6207 111.385 71.2807 112.525 70.9407C114.065 70.9407 112.525 66.2007 112.525 65.6607C111.205 58.7007 112.845 60.8607 103.265 61.1207ZM102.685 70.2007C102.185 67.6807 101.805 64.3407 101.085 61.9407C104.359 62.2607 107.662 62.1397 110.905 61.5807C111.108 64.3653 111.543 67.1282 112.205 69.8407C109.085 69.9807 105.845 70.1407 102.685 70.2007ZM234.265 15.8207C230.585 15.4807 177.585 15.8207 170.865 16.3407C170.778 16.3555 170.7 16.4033 170.648 16.4742C170.596 16.5451 170.573 16.6335 170.585 16.7207C170.599 16.7897 170.633 16.8529 170.683 16.9027C170.732 16.9524 170.796 16.9865 170.865 17.0007C176.565 17.3007 230.185 17.1607 234.265 16.7007C234.381 16.7007 234.493 16.6544 234.576 16.5719C234.658 16.4893 234.705 16.3774 234.705 16.2607C234.705 16.144 234.658 16.0321 234.576 15.9496C234.493 15.8671 234.381 15.8207 234.265 15.8207V15.8207ZM144.005 30.5207C144.465 30.4207 144.305 29.8007 143.905 29.7207L113.525 30.4807C113.48 30.4854 113.438 30.4993 113.399 30.5214C113.361 30.5435 113.327 30.5734 113.301 30.6091C113.275 30.6448 113.256 30.6857 113.246 30.729C113.237 30.7723 113.236 30.8172 113.245 30.8607C113.256 30.9308 113.289 30.9955 113.34 31.0457C113.39 31.0959 113.455 31.1291 113.525 31.1407C121.145 31.7007 137.385 31.8607 144.005 30.5207ZM264.465 86.7407C264.605 88.2607 266.125 103.421 266.685 104.521C270.685 112.321 285.405 112.521 285.725 100.981C286.285 96.1807 288.225 82.4007 287.465 78.9807C287.685 77.8607 288.845 72.9807 289.065 70.4007C289.065 69.9807 289.865 58.5607 288.265 60.3007C286.129 63.1439 284.236 66.1611 282.605 69.3207C282.325 70.5407 282.045 71.7407 281.745 72.9407C280.86 72.6071 279.941 72.3723 279.005 72.2407C279.005 71.4207 278.405 67.4207 278.125 65.8207C276.745 63.1407 275.325 60.7407 274.125 57.9607C272.425 53.7807 272.385 53.7007 271.905 58.3007C271.103 62.9867 271.103 67.7747 271.905 72.4607C262.845 74.3407 263.785 79.6807 264.445 86.7407H264.465ZM286.345 64.7407C286.589 64.9774 286.882 65.1588 287.203 65.2726C287.524 65.3865 287.865 65.4302 288.205 65.4007V70.4407C287.362 70.5225 286.511 70.4336 285.704 70.1793C284.896 69.925 284.148 69.5106 283.505 68.9607C284.485 67.5807 285.505 66.1607 286.345 64.7407ZM283.465 70.0007C284.789 70.9426 286.379 71.4398 288.005 71.4207C287.345 75.1407 286.685 78.8407 286.165 82.5807C285.485 85.0207 282.165 85.9007 280.005 86.2007C281.325 80.9207 282.325 75.2407 283.465 69.9407V70.0007ZM279.465 84.7607C279.367 85.2629 279.3 85.7705 279.265 86.2807L274.385 86.4007L272.385 67.5607C273.289 67.8337 274.246 67.8817 275.174 67.7005C276.101 67.5192 276.97 67.1142 277.705 66.5207C277.705 66.5207 279.005 84.4607 279.465 84.7007V84.7607ZM272.625 61.1607C272.931 61.2407 273.251 61.2572 273.564 61.209C273.877 61.1609 274.176 61.0491 274.445 60.8807L277.185 65.8007C276.466 66.3359 275.634 66.6975 274.753 66.8571C273.871 67.0167 272.965 66.97 272.105 66.7207C272.07 64.8339 272.244 62.9491 272.625 61.1007V61.1607ZM286.485 84.2007C286.125 89.2407 285.485 99.8807 284.185 104.641C281.885 110.821 271.865 110.921 267.445 104.641C266.605 97.7007 265.765 90.6407 264.945 83.8007C268.685 89.2207 283.225 88.5607 286.485 84.1407V84.2007Z" fill="#004737"/>
<path d="M17.6259 106.24C20.67 107.83 23.8836 109.071 27.2059 109.94C20.8259 118.72 39.0859 131.24 55.7859 124.56C63.4459 121.5 71.1059 111.78 63.6059 105.04C71.6059 98.5805 74.4259 89.2605 74.0859 79.0405C73.5659 63.2805 66.6059 51.6805 50.6659 47.9405C42.8129 46.1027 34.5836 46.7384 27.1059 49.7605L24.0059 44.4005C24.9859 43.8805 26.0059 43.3805 27.0059 42.9405C29.6459 42.0405 28.8459 40.1005 27.2859 40.6805C-3.35406 51.8605 -10.4341 92.1605 17.6259 106.24ZM27.4459 108.54C26.8859 106.54 28.3859 104.54 27.6859 102.36C26.0859 97.1805 19.3859 100.18 17.6859 96.6805C15.8259 92.8605 20.7859 92.2005 21.7859 89.4605C21.9628 88.9808 22.0078 88.4625 21.9164 87.9595C21.8249 87.4565 21.6003 86.9872 21.2659 86.6005C18.3859 83.0005 11.7259 86.8005 13.6259 78.4005C15.0659 72.0605 21.1859 69.0605 25.6259 71.8605C30.0659 74.6605 32.7259 76.5404 38.3459 73.2604C47.7059 67.7604 46.5459 79.2605 43.6859 82.7405C42.1659 84.6205 39.4059 84.5205 37.2859 85.3205C30.3659 87.9205 30.4059 92.5805 35.8859 93.7205C38.0059 94.1605 40.7259 93.9604 42.3859 95.5604C46.8859 99.9404 37.5859 109.3 34.6459 110.84C33.0659 110.52 28.2459 109.58 27.4459 108.54V108.54ZM52.8259 49.7005C64.6059 53.3605 70.8259 61.8805 72.5059 74.0605C73.3045 79.3169 73.1077 84.6767 71.9259 89.8605C71.4459 90.5205 64.6859 92.3805 62.5059 89.5805C61.6643 88.4488 61.1023 87.134 60.866 85.7436C60.6296 84.3533 60.7255 82.9267 61.1459 81.5805C62.4459 78.2205 66.8659 75.2605 65.5059 71.8205C63.6259 67.0605 58.1259 73.5605 55.8059 72.2205C52.3259 70.2205 58.8459 66.3805 51.4059 65.0005C48.6659 64.5005 46.4259 65.6205 44.4059 62.6005C39.7859 55.6805 51.8059 49.6805 52.8259 49.6405V49.7005ZM30.0059 58.5605C30.0922 58.6968 30.223 58.7991 30.376 58.8501C30.5291 58.9012 30.6951 58.8977 30.8459 58.8405C31.0192 58.7693 31.1579 58.6333 31.2325 58.4616C31.3072 58.2898 31.312 58.0957 31.2459 57.9205L27.6059 50.8205C35.0241 47.8459 43.1913 47.286 50.9459 49.2205C40.9459 52.5205 39.7659 63.8005 46.9459 65.7405C48.4659 66.1605 55.2659 65.5605 54.0859 68.4605C53.8464 68.9309 53.7121 69.4478 53.6923 69.9754C53.6725 70.503 53.7677 71.0285 53.9713 71.5156C54.1749 72.0027 54.482 72.4396 54.8713 72.7962C55.2607 73.1528 55.7229 73.4204 56.2259 73.5805C59.0259 74.0805 62.0259 69.8605 64.0859 71.5805C67.6859 74.5805 58.2859 79.2205 59.8859 85.9005C61.0859 91.0205 63.2059 92.6405 68.4059 91.9005C69.545 91.8025 70.6498 91.4615 71.6459 90.9005C67.3459 105.96 51.2659 112.9 36.5659 111.08C39.5259 108.36 44.1259 102.96 44.5659 99.0805C45.2459 92.2005 37.3459 93.5804 34.4459 92.0604C30.4459 90.0604 36.1659 86.5804 39.8259 85.7804C41.0253 85.583 42.1861 85.1983 43.2659 84.6405C49.2659 80.9605 47.6059 66.1604 38.9059 71.6204C31.4659 76.2804 29.1659 72.3205 25.7059 70.5405C20.1659 67.7205 12.5659 72.1605 12.1859 80.5405C11.9659 86.2405 16.6659 85.0205 19.4059 86.5405C19.897 86.7246 20.307 87.0767 20.5633 87.5344C20.8195 87.992 20.9055 88.5255 20.8059 89.0405C20.1659 91.0405 17.2659 91.4405 16.4659 93.8605C16.1496 94.8043 16.1612 95.8274 16.4987 96.7639C16.8363 97.7004 17.4801 98.4955 18.3259 99.0205C20.9459 100.54 25.5859 99.2204 26.6859 102.84C27.2259 104.6 26.1659 106.4 26.2859 108.18C21.1832 106.346 16.69 103.132 13.307 98.894C9.924 94.6564 7.78416 89.5627 7.12594 84.1805C5.32594 70.5805 13.6259 57.3605 25.8259 51.5805C27.0859 53.9005 28.6659 56.3005 30.0059 58.5605V58.5605ZM12.0059 53.2205C15.0083 50.1071 18.4681 47.4701 22.2659 45.4005C23.3807 47.1107 24.4022 48.88 25.3259 50.7005C19.049 53.6166 13.825 58.3989 10.3672 64.3946C6.9094 70.3902 5.38634 77.307 6.00594 84.2005C6.42287 88.1516 7.6613 91.9719 9.64175 95.4161C11.6222 98.8604 14.3009 101.852 17.5059 104.2C-1.61406 93.5804 -2.41406 68.5405 12.0059 53.2205ZM225.466 67.3205C223.746 66.9405 198.026 66.8205 194.386 67.3205C194.296 67.3205 194.209 67.3563 194.146 67.42C194.082 67.4838 194.046 67.5703 194.046 67.6605C194.046 67.7506 194.082 67.8371 194.146 67.9009C194.209 67.9646 194.296 68.0005 194.386 68.0005C195.766 68.2005 222.646 68.6605 225.466 68.0005C225.559 67.9797 225.643 67.9278 225.702 67.8533C225.762 67.7787 225.795 67.686 225.795 67.5905C225.795 67.4949 225.762 67.4022 225.702 67.3276C225.643 67.2531 225.559 67.2012 225.466 67.1805V67.3205ZM234.006 21.3205C214.706 21.5405 189.766 20.8805 172.366 21.3205C171.886 21.3205 171.926 22.0005 172.366 22.0405C179.666 22.8405 228.126 22.7805 234.006 22.0405C234.063 22.0356 234.119 22.0191 234.169 21.992C234.22 21.9648 234.264 21.9276 234.3 21.8826C234.335 21.8377 234.361 21.7859 234.376 21.7305C234.391 21.6751 234.394 21.6172 234.386 21.5605C234.354 21.487 234.301 21.4248 234.233 21.382C234.165 21.3392 234.086 21.3178 234.006 21.3205V21.3205ZM231.866 62.9805C220.166 62.7205 205.546 63.4405 193.086 63.1205C192.726 63.1205 192.646 63.6405 193.086 63.6805C200.746 64.4405 224.726 65.2005 231.946 63.8005C232.326 63.7005 232.366 62.9805 231.866 62.9805V62.9805Z" fill="#004737"/>
</svg>
