<svg width="24" height="24" viewBox="0 0 24 24" fill="none" xmlns="http://www.w3.org/2000/svg">
<path d="M21.5297 17.5435C22.0631 16.4864 22.3317 15.3156 22.3127 14.1317C22.2936 12.9478 21.9873 11.7863 21.4202 10.7469C20.8531 9.70757 20.0421 8.82146 19.0568 8.16477C18.0716 7.50808 16.9416 7.10044 15.7641 6.97691C15.3902 6.06682 14.8366 5.24154 14.1363 4.55047C13.436 3.8594 12.6035 3.31675 11.6885 2.95503C10.7735 2.5933 9.79498 2.41993 8.81144 2.4453C7.8279 2.47067 6.85959 2.69426 5.96449 3.10268C5.0694 3.51109 4.26592 4.09594 3.60218 4.8222C2.93844 5.54845 2.42809 6.40118 2.10167 7.32933C1.77525 8.25747 1.63949 9.24194 1.70252 10.2238C1.76554 11.2056 2.02606 12.1647 2.46846 13.0435L1.73064 15.6282C1.67567 15.821 1.67324 16.025 1.7236 16.2191C1.77395 16.4132 1.87526 16.5903 2.01705 16.7321C2.15883 16.8738 2.33593 16.9752 2.53002 17.0255C2.72411 17.0759 2.92813 17.0734 3.12096 17.0185L5.70564 16.2807C6.49599 16.6778 7.35163 16.9287 8.23127 17.0213C8.61389 17.9545 9.18531 18.7985 9.90963 19.5003C10.634 20.2022 11.4956 20.7467 12.4403 21.0997C13.3851 21.4527 14.3927 21.6066 15.3998 21.5517C16.4069 21.4968 17.3917 21.2343 18.2925 20.7807L20.8772 21.5185C21.07 21.5734 21.2741 21.5759 21.4681 21.5255C21.6622 21.4752 21.8393 21.3738 21.9811 21.2321C22.1229 21.0903 22.2242 20.9132 22.2746 20.7191C22.3249 20.525 22.3225 20.321 22.2675 20.1282L21.5297 17.5435ZM5.76752 15.1153C5.71519 15.1151 5.66309 15.1223 5.61283 15.1369L2.81158 15.9375L3.61127 13.1372C3.65211 12.995 3.63527 12.8424 3.56439 12.7125C2.85318 11.4056 2.63672 9.88617 2.95469 8.43264C3.27266 6.9791 4.10375 5.68882 5.29569 4.79823C6.48762 3.90763 7.96057 3.47637 9.44461 3.58347C10.9287 3.69056 12.3244 4.32884 13.3761 5.38135C14.4278 6.43386 15.0651 7.8301 15.171 9.31423C15.277 10.7984 14.8446 12.271 13.9531 13.4622C13.0616 14.6535 11.7707 15.4836 10.3169 15.8005C8.86317 16.1173 7.3439 15.8997 6.03752 15.1875C5.95487 15.1415 5.8621 15.1167 5.76752 15.1153ZM20.386 17.6363L21.1866 20.4375L18.3863 19.6378C18.2441 19.597 18.0915 19.6138 17.9616 19.6847C17.2341 20.0813 16.4344 20.3277 15.61 20.4094C14.7855 20.4911 13.953 20.4063 13.1619 20.1602C12.3708 19.914 11.6371 19.5115 11.0045 18.9765C10.3719 18.4415 9.85316 17.7849 9.47908 17.0457C10.5309 16.9772 11.5554 16.682 12.4824 16.1802C13.4093 15.6784 14.2167 14.982 14.849 14.1387C15.4814 13.2954 15.9238 12.3253 16.1458 11.2949C16.3678 10.2645 16.3643 9.19828 16.1353 8.16941C17.0955 8.3482 17.9997 8.75175 18.774 9.34704C19.5483 9.94233 20.1706 10.7125 20.5902 11.5944C21.0097 12.4764 21.2145 13.4451 21.1878 14.4214C21.1611 15.3977 20.9037 16.3539 20.4366 17.2116C20.3644 17.341 20.3463 17.4936 20.386 17.6363Z" fill="white"/>
</svg>
