<svg width="12" height="22" viewBox="0 0 12 22" fill="none" xmlns="http://www.w3.org/2000/svg">
<path d="M11.5293 20.47C11.603 20.5387 11.6621 20.6215 11.7031 20.7135C11.7441 20.8055 11.7662 20.9048 11.7679 21.0055C11.7697 21.1062 11.7512 21.2062 11.7135 21.2996C11.6757 21.393 11.6196 21.4778 11.5484 21.5491C11.4772 21.6203 11.3923 21.6764 11.2989 21.7142C11.2055 21.7519 11.1055 21.7704 11.0048 21.7686C10.9041 21.7668 10.8048 21.7448 10.7128 21.7038C10.6208 21.6628 10.538 21.6037 10.4693 21.53L0.46934 11.53C0.32889 11.3894 0.25 11.1988 0.25 11C0.25 10.8013 0.32889 10.6107 0.46934 10.47L10.4693 0.470029C10.6115 0.337549 10.7996 0.265426 10.9939 0.268855C11.1882 0.272283 11.3735 0.350995 11.511 0.488408C11.6484 0.625821 11.7271 0.811206 11.7305 1.00551C11.7339 1.19981 11.6618 1.38785 11.5293 1.53003L2.06059 11L11.5293 20.47Z" fill="#004737"/>
</svg>
