<svg width="12" height="22" viewBox="0 0 12 22" fill="none" xmlns="http://www.w3.org/2000/svg">
<path d="M11.5308 11.53L1.53082 21.53C1.38865 21.6625 1.2006 21.7346 1.0063 21.7312C0.812 21.7278 0.626615 21.6491 0.489202 21.5117C0.351789 21.3742 0.273076 21.1889 0.269648 20.9946C0.26622 20.8003 0.338344 20.6122 0.470824 20.47L9.93957 11L0.470824 1.53003C0.338344 1.38785 0.26622 1.19981 0.269648 1.00551C0.273076 0.811206 0.351789 0.625821 0.489202 0.488408C0.626615 0.350995 0.812 0.272283 1.0063 0.268855C1.2006 0.265426 1.38865 0.337549 1.53082 0.470029L11.5308 10.47C11.6713 10.6107 11.7502 10.8013 11.7502 11C11.7502 11.1988 11.6713 11.3894 11.5308 11.53Z" fill="#004737"/>
</svg>
